<svg width="232" height="132" viewBox="0 0 232 132" fill="none" xmlns="http://www.w3.org/2000/svg">
<path fill-rule="evenodd" clip-rule="evenodd" d="M6.10026 130.046V131.883H76.0825V130.046H67.0822C63.7759 130.046 60.9595 129.556 58.6329 128.576C56.4287 127.597 54.7756 126.127 53.6735 124.168C52.5714 122.209 52.0204 119.76 52.0204 116.821V105.065H33.4686V116.821C33.4686 119.76 32.9176 122.209 31.8155 124.168C30.7134 126.127 28.9991 127.597 26.6725 128.576C24.4683 129.556 21.7131 130.046 18.4068 130.046H6.10026ZM33.4686 70.9107H52.0204V0H42.469L31.6318 11.3882C28.8154 14.3271 25.999 16.7149 23.1825 18.5517C20.3661 20.2661 17.1211 21.5518 13.4475 22.409C9.89632 23.1437 5.61044 23.5723 0.589844 23.6948C0.589844 26.6337 1.26334 29.0215 2.61033 30.8583C4.07977 32.6951 6.28394 33.6135 9.22283 33.6135C10.9372 33.6135 12.6515 33.1237 14.3659 32.1441C16.2027 31.1645 18.5905 29.144 21.5294 26.0826C24.4683 23.0213 28.448 18.3681 33.4686 12.1229V70.9107Z" fill="black"/>
<path d="M48.8145 92.2664L51.8978 98.8826H55.0132L44.5429 76.4004H42.9371L33.4303 98.8826H34.9077L37.734 92.2664H48.8145ZM48.1401 90.8211H38.3443L42.9692 79.9975H43.0977L48.1401 90.8211ZM60.8079 82.8239V98.8826H63.5379V89.1831C63.5379 88.3052 63.6342 87.5665 63.8269 86.967C64.041 86.3461 64.3087 85.8429 64.6298 85.4575C64.951 85.0721 65.3043 84.7937 65.6897 84.6225C66.0751 84.4512 66.4498 84.3655 66.8138 84.3655C67.3063 84.3655 67.7559 84.5261 68.1628 84.8473C68.591 85.1684 68.9015 85.4682 69.0942 85.7466L70.1861 83.7553C69.9934 83.4983 69.7579 83.2842 69.4796 83.1129C69.2226 82.9416 68.955 82.8132 68.6766 82.7275C68.4197 82.6205 68.1735 82.5562 67.9379 82.5348C67.7238 82.492 67.5632 82.4706 67.4562 82.4706C66.5569 82.4706 65.8075 82.7168 65.208 83.2093C64.6084 83.7018 64.116 84.4297 63.7306 85.3933H63.5379V82.8239H60.8079ZM75.3197 76.4004V98.8826H78.0496V89.6006C78.0496 89.1724 78.0818 88.6478 78.146 88.0269C78.2102 87.406 78.3815 86.8064 78.6599 86.2283C78.9596 85.6502 79.3986 85.1577 79.9767 84.7509C80.5548 84.3227 81.3577 84.1086 82.3855 84.1086C83.1135 84.1086 83.6916 84.2477 84.1198 84.5261C84.5695 84.783 84.912 85.1363 85.1476 85.586C85.3831 86.0356 85.533 86.5602 85.5972 87.1597C85.6829 87.7592 85.7257 88.3802 85.7257 89.0225V98.8826H88.4557V88.2838C88.4557 87.0848 88.2844 86.1106 87.9418 85.3612C87.5992 84.5903 87.171 83.9908 86.6571 83.5626C86.1432 83.1343 85.5758 82.8453 84.9549 82.6954C84.3553 82.5455 83.7772 82.4706 83.2205 82.4706C82.4711 82.4706 81.6789 82.6205 80.8438 82.9202C80.0302 83.1986 79.2594 83.7446 78.5314 84.5582L78.1781 85.0079H78.0496V76.4004H75.3197ZM96.8812 82.8239V98.8826H99.6112V82.8239H96.8812ZM96.4958 77.7493C96.4958 78.2204 96.6671 78.6272 97.0097 78.9698C97.3523 79.3124 97.7591 79.4837 98.2301 79.4837C98.7012 79.4837 99.108 79.3124 99.4506 78.9698C99.7932 78.6272 99.9645 78.2204 99.9645 77.7493C99.9645 77.2783 99.7932 76.8715 99.4506 76.5289C99.108 76.1863 98.7012 76.015 98.2301 76.015C97.7591 76.015 97.3523 76.1863 97.0097 76.5289C96.6671 76.8715 96.4958 77.2783 96.4958 77.7493ZM106.376 84.1086V82.8239H109.17V77.8778H111.9V82.8239H115.786V84.1086H111.9V94.7715C111.9 95.0285 111.911 95.3282 111.932 95.6708C111.953 95.992 112.018 96.3025 112.125 96.6022C112.232 96.8806 112.392 97.1161 112.606 97.3088C112.842 97.5015 113.163 97.5979 113.57 97.5979C114.084 97.5979 114.512 97.4052 114.855 97.0198C115.197 96.6344 115.476 96.2168 115.69 95.7672L117.199 97.3088C116.15 98.358 114.962 98.8826 113.634 98.8826C113.077 98.8826 112.531 98.7862 111.996 98.5935C111.461 98.4008 110.979 98.1118 110.551 97.7263C110.144 97.3195 109.812 96.8056 109.555 96.1847C109.298 95.5638 109.17 94.8358 109.17 94.0007V84.1086H106.376ZM136.534 91.5598V90.8853C136.534 89.4508 136.33 88.2089 135.924 87.1597C135.517 86.1106 134.96 85.2434 134.254 84.5582C133.568 83.873 132.765 83.3592 131.845 83.0166C130.924 82.674 129.95 82.5027 128.922 82.5027C127.83 82.5027 126.824 82.6954 125.903 83.0808C124.982 83.4448 124.179 83.9908 123.494 84.7188C122.809 85.4254 122.274 86.2926 121.888 87.3203C121.503 88.3267 121.31 89.4722 121.31 90.7569C121.31 91.8275 121.471 92.8766 121.792 93.9044C122.135 94.9107 122.638 95.8207 123.302 96.6344C123.987 97.4266 124.843 98.0689 125.871 98.5614C126.92 99.0324 128.151 99.268 129.564 99.268C130.935 99.268 132.198 99.0324 133.354 98.5614C134.51 98.0689 135.517 97.3731 136.373 96.4738L135.346 95.446C134.896 95.8314 134.468 96.1847 134.061 96.5059C133.675 96.8271 133.279 97.0947 132.872 97.3088C132.466 97.5229 132.037 97.6942 131.588 97.8227C131.16 97.9298 130.678 97.9833 130.143 97.9833C129.543 97.9833 128.901 97.8976 128.215 97.7263C127.552 97.5336 126.931 97.2018 126.353 96.7307C125.775 96.2596 125.293 95.6066 124.907 94.7715C124.522 93.9365 124.329 92.8659 124.329 91.5598H136.534ZM124.329 90.2751C124.329 89.4186 124.415 88.5943 124.586 87.8021C124.779 86.9884 125.057 86.2711 125.421 85.6502C125.807 85.0293 126.288 84.5368 126.867 84.1728C127.445 83.7874 128.13 83.5947 128.922 83.5947C130.442 83.5947 131.62 84.1942 132.455 85.3933C133.311 86.5709 133.74 88.1982 133.74 90.2751H124.329ZM151.026 97.5979C150.255 97.5979 149.506 97.4801 148.778 97.2446C148.071 97.0091 147.439 96.6344 146.883 96.1205C146.326 95.5852 145.876 94.8893 145.534 94.0328C145.213 93.155 145.052 92.0844 145.052 90.8211C145.052 89.515 145.234 88.4123 145.598 87.513C145.962 86.5923 146.412 85.8643 146.947 85.329C147.504 84.7723 148.114 84.3762 148.778 84.1407C149.441 83.8838 150.073 83.7553 150.673 83.7553C151.657 83.7553 152.514 84.0122 153.242 84.5261C153.97 85.04 154.452 85.6716 154.687 86.421H156.903C156.689 85.6502 156.347 85.0186 155.876 84.5261C155.405 84.0122 154.859 83.6054 154.238 83.3056C153.638 82.9845 152.985 82.7704 152.278 82.6633C151.593 82.5348 150.929 82.4706 150.287 82.4706C148.938 82.4706 147.75 82.6954 146.722 83.1451C145.694 83.5733 144.827 84.1621 144.121 84.9115C143.414 85.6609 142.879 86.5388 142.515 87.5451C142.172 88.5515 142.001 89.6221 142.001 90.7569C142.001 91.9559 142.194 93.08 142.579 94.1292C142.964 95.157 143.51 96.0562 144.217 96.8271C144.945 97.5765 145.812 98.176 146.818 98.6256C147.825 99.0539 148.96 99.268 150.223 99.268C151.636 99.268 152.867 99.0324 153.916 98.5614C154.987 98.0903 155.886 97.5765 156.614 97.0198L155.683 95.7993C154.933 96.4202 154.184 96.8806 153.435 97.1803C152.707 97.4587 151.904 97.5979 151.026 97.5979ZM161.077 84.1086V82.8239H163.871V77.8778H166.601V82.8239H170.487V84.1086H166.601V94.7715C166.601 95.0285 166.612 95.3282 166.633 95.6708C166.655 95.992 166.719 96.3025 166.826 96.6022C166.933 96.8806 167.093 97.1161 167.308 97.3088C167.543 97.5015 167.864 97.5979 168.271 97.5979C168.785 97.5979 169.213 97.4052 169.556 97.0198C169.898 96.6344 170.177 96.2168 170.391 95.7672L171.9 97.3088C170.851 98.358 169.663 98.8826 168.335 98.8826C167.779 98.8826 167.233 98.7862 166.697 98.5935C166.162 98.4008 165.68 98.1118 165.252 97.7263C164.845 97.3195 164.513 96.8056 164.256 96.1847C163.999 95.5638 163.871 94.8358 163.871 94.0007V84.1086H161.077ZM176.975 82.8239V93.262C176.975 93.6474 177.007 94.1827 177.071 94.8679C177.157 95.5317 177.382 96.1954 177.746 96.8592C178.11 97.5015 178.677 98.0689 179.448 98.5614C180.24 99.0324 181.343 99.268 182.756 99.268C183.377 99.2894 184.051 99.1609 184.779 98.8826C185.529 98.6256 186.278 98.1225 187.028 97.3731L187.542 96.8592H187.67V98.8826H190.4V82.8239H187.67V92.7803C187.67 93.6153 187.552 94.3326 187.317 94.9321C187.081 95.5317 186.771 96.0348 186.385 96.4416C186 96.8271 185.55 97.1161 185.036 97.3088C184.523 97.5015 183.987 97.5979 183.431 97.5979C182.531 97.5979 181.825 97.4266 181.311 97.084C180.818 96.72 180.444 96.3025 180.187 95.8314C179.951 95.3604 179.812 94.9 179.769 94.4504C179.726 93.9793 179.705 93.6367 179.705 93.4226V82.8239H176.975ZM197.885 82.8239V98.8826H200.615V89.1831C200.615 88.3052 200.711 87.5665 200.904 86.967C201.118 86.3461 201.386 85.8429 201.707 85.4575C202.028 85.0721 202.382 84.7937 202.767 84.6225C203.152 84.4512 203.527 84.3655 203.891 84.3655C204.384 84.3655 204.833 84.5261 205.24 84.8473C205.668 85.1684 205.979 85.4682 206.171 85.7466L207.263 83.7553C207.071 83.4983 206.835 83.2842 206.557 83.1129C206.3 82.9416 206.032 82.8132 205.754 82.7275C205.497 82.6205 205.251 82.5562 205.015 82.5348C204.801 82.492 204.64 82.4706 204.533 82.4706C203.634 82.4706 202.885 82.7168 202.285 83.2093C201.686 83.7018 201.193 84.4297 200.808 85.3933H200.615V82.8239H197.885ZM218.306 82.4706C219.87 82.4706 221.079 82.6954 221.936 83.1451C222.792 83.5733 223.413 84.1407 223.799 84.8473C224.205 85.5539 224.441 86.3675 224.505 87.2882C224.569 88.2089 224.601 89.151 224.601 90.1145V98.8826H222V97.3088C221.379 97.9083 220.587 98.3901 219.623 98.7541C218.66 99.0967 217.696 99.268 216.733 99.268C215.812 99.268 214.998 99.1074 214.292 98.7862C213.585 98.465 212.996 98.0475 212.525 97.5336C212.054 97.0198 211.701 96.4416 211.465 95.7993C211.23 95.157 211.112 94.5039 211.112 93.8401C211.112 93.155 211.241 92.4698 211.498 91.7846C211.755 91.0995 212.14 90.4892 212.654 89.9539C213.168 89.3972 213.799 88.9476 214.549 88.605C215.298 88.2624 216.155 88.0911 217.118 88.0911C218.082 88.0911 218.992 88.2838 219.848 88.6692C220.726 89.0332 221.443 89.5578 222 90.243V88.8619C222 87.1062 221.732 85.8001 221.197 84.9436C220.683 84.0872 219.73 83.6589 218.339 83.6589C217.739 83.6589 217.214 83.7339 216.765 83.8838C216.315 84.0336 215.908 84.2477 215.544 84.5261C215.202 84.783 214.881 85.1149 214.581 85.5217C214.281 85.9071 213.981 86.3461 213.682 86.8386L212.011 85.1684C212.311 84.8473 212.622 84.5261 212.943 84.2049C213.285 83.8838 213.692 83.5947 214.163 83.3378C214.656 83.0808 215.234 82.8774 215.898 82.7275C216.561 82.5562 217.364 82.4706 218.306 82.4706ZM222 92.5233C221.893 92.2664 221.732 91.9666 221.518 91.624C221.326 91.2815 221.069 90.9496 220.747 90.6284C220.426 90.3072 220.041 90.0396 219.591 89.8255C219.142 89.5899 218.606 89.4722 217.985 89.4722C217.364 89.4722 216.797 89.6006 216.283 89.8576C215.769 90.0931 215.33 90.4143 214.966 90.8211C214.624 91.2065 214.356 91.6669 214.163 92.2022C213.971 92.7374 213.874 93.2941 213.874 93.8723C213.874 94.5574 213.992 95.157 214.228 95.6708C214.485 96.1633 214.806 96.5915 215.191 96.9555C215.576 97.2981 216.005 97.555 216.476 97.7263C216.947 97.8976 217.396 97.9833 217.825 97.9833C218.232 97.9833 218.638 97.9083 219.045 97.7585C219.473 97.6086 219.87 97.4052 220.234 97.1482C220.619 96.8699 220.962 96.5487 221.261 96.1847C221.561 95.8207 221.807 95.4246 222 94.9964V92.5233ZM213.778 76.015C213.778 76.6145 213.896 77.1819 214.131 77.7172C214.367 78.2525 214.699 78.7236 215.127 79.1304C215.555 79.5158 216.048 79.8263 216.604 80.0618C217.182 80.2759 217.814 80.383 218.499 80.383C219.163 80.383 219.784 80.2759 220.362 80.0618C220.94 79.8263 221.443 79.5158 221.872 79.1304C222.3 78.7236 222.632 78.2525 222.867 77.7172C223.103 77.1819 223.22 76.6145 223.22 76.015H221.872C221.829 76.9785 221.475 77.76 220.812 78.3596C220.169 78.9377 219.398 79.2267 218.499 79.2267C217.621 79.2267 216.85 78.9377 216.187 78.3596C215.544 77.76 215.191 76.9785 215.127 76.015H213.778Z" fill="black"/>
<path d="M48.8145 92.2664L51.8978 98.8826H55.0132L44.5429 76.4004H42.9371L33.4303 98.8826H34.9077L37.734 92.2664H48.8145ZM48.1401 90.8211H38.3443L42.9692 79.9975H43.0977L48.1401 90.8211ZM60.8079 82.8239V98.8826H63.5379V89.1831C63.5379 88.3052 63.6342 87.5665 63.8269 86.967C64.041 86.3461 64.3087 85.8429 64.6298 85.4575C64.951 85.0721 65.3043 84.7937 65.6897 84.6225C66.0751 84.4512 66.4498 84.3655 66.8138 84.3655C67.3063 84.3655 67.7559 84.5261 68.1628 84.8473C68.591 85.1684 68.9015 85.4682 69.0942 85.7466L70.1861 83.7553C69.9934 83.4983 69.7579 83.2842 69.4796 83.1129C69.2226 82.9416 68.955 82.8132 68.6766 82.7275C68.4197 82.6205 68.1735 82.5562 67.9379 82.5348C67.7238 82.492 67.5632 82.4706 67.4562 82.4706C66.5569 82.4706 65.8075 82.7168 65.208 83.2093C64.6084 83.7018 64.116 84.4297 63.7306 85.3933H63.5379V82.8239H60.8079ZM75.3197 76.4004V98.8826H78.0496V89.6006C78.0496 89.1724 78.0818 88.6478 78.146 88.0269C78.2102 87.406 78.3815 86.8064 78.6599 86.2283C78.9596 85.6502 79.3986 85.1577 79.9767 84.7509C80.5548 84.3227 81.3577 84.1086 82.3855 84.1086C83.1135 84.1086 83.6916 84.2477 84.1198 84.5261C84.5695 84.783 84.912 85.1363 85.1476 85.586C85.3831 86.0356 85.533 86.5602 85.5972 87.1597C85.6829 87.7592 85.7257 88.3802 85.7257 89.0225V98.8826H88.4557V88.2838C88.4557 87.0848 88.2844 86.1106 87.9418 85.3612C87.5992 84.5903 87.171 83.9908 86.6571 83.5626C86.1432 83.1343 85.5758 82.8453 84.9549 82.6954C84.3553 82.5455 83.7772 82.4706 83.2205 82.4706C82.4711 82.4706 81.6789 82.6205 80.8438 82.9202C80.0302 83.1986 79.2594 83.7446 78.5314 84.5582L78.1781 85.0079H78.0496V76.4004H75.3197ZM96.8812 82.8239V98.8826H99.6112V82.8239H96.8812ZM96.4958 77.7493C96.4958 78.2204 96.6671 78.6272 97.0097 78.9698C97.3523 79.3124 97.7591 79.4837 98.2301 79.4837C98.7012 79.4837 99.108 79.3124 99.4506 78.9698C99.7932 78.6272 99.9645 78.2204 99.9645 77.7493C99.9645 77.2783 99.7932 76.8715 99.4506 76.5289C99.108 76.1863 98.7012 76.015 98.2301 76.015C97.7591 76.015 97.3523 76.1863 97.0097 76.5289C96.6671 76.8715 96.4958 77.2783 96.4958 77.7493ZM106.376 84.1086V82.8239H109.17V77.8778H111.9V82.8239H115.786V84.1086H111.9V94.7715C111.9 95.0285 111.911 95.3282 111.932 95.6708C111.953 95.992 112.018 96.3025 112.125 96.6022C112.232 96.8806 112.392 97.1161 112.606 97.3088C112.842 97.5015 113.163 97.5979 113.57 97.5979C114.084 97.5979 114.512 97.4052 114.855 97.0198C115.197 96.6344 115.476 96.2168 115.69 95.7672L117.199 97.3088C116.15 98.358 114.962 98.8826 113.634 98.8826C113.077 98.8826 112.531 98.7862 111.996 98.5935C111.461 98.4008 110.979 98.1118 110.551 97.7263C110.144 97.3195 109.812 96.8056 109.555 96.1847C109.298 95.5638 109.17 94.8358 109.17 94.0007V84.1086H106.376ZM136.534 91.5598V90.8853C136.534 89.4508 136.33 88.2089 135.924 87.1597C135.517 86.1106 134.96 85.2434 134.254 84.5582C133.568 83.873 132.765 83.3592 131.845 83.0166C130.924 82.674 129.95 82.5027 128.922 82.5027C127.83 82.5027 126.824 82.6954 125.903 83.0808C124.982 83.4448 124.179 83.9908 123.494 84.7188C122.809 85.4254 122.274 86.2926 121.888 87.3203C121.503 88.3267 121.31 89.4722 121.31 90.7569C121.31 91.8275 121.471 92.8766 121.792 93.9044C122.135 94.9107 122.638 95.8207 123.302 96.6344C123.987 97.4266 124.843 98.0689 125.871 98.5614C126.92 99.0324 128.151 99.268 129.564 99.268C130.935 99.268 132.198 99.0324 133.354 98.5614C134.51 98.0689 135.517 97.3731 136.373 96.4738L135.346 95.446C134.896 95.8314 134.468 96.1847 134.061 96.5059C133.675 96.8271 133.279 97.0947 132.872 97.3088C132.466 97.5229 132.037 97.6942 131.588 97.8227C131.16 97.9298 130.678 97.9833 130.143 97.9833C129.543 97.9833 128.901 97.8976 128.215 97.7263C127.552 97.5336 126.931 97.2018 126.353 96.7307C125.775 96.2596 125.293 95.6066 124.907 94.7715C124.522 93.9365 124.329 92.8659 124.329 91.5598H136.534ZM124.329 90.2751C124.329 89.4186 124.415 88.5943 124.586 87.8021C124.779 86.9884 125.057 86.2711 125.421 85.6502C125.807 85.0293 126.288 84.5368 126.867 84.1728C127.445 83.7874 128.13 83.5947 128.922 83.5947C130.442 83.5947 131.62 84.1942 132.455 85.3933C133.311 86.5709 133.74 88.1982 133.74 90.2751H124.329ZM151.026 97.5979C150.255 97.5979 149.506 97.4801 148.778 97.2446C148.071 97.0091 147.439 96.6344 146.883 96.1205C146.326 95.5852 145.876 94.8893 145.534 94.0328C145.213 93.155 145.052 92.0844 145.052 90.8211C145.052 89.515 145.234 88.4123 145.598 87.513C145.962 86.5923 146.412 85.8643 146.947 85.329C147.504 84.7723 148.114 84.3762 148.778 84.1407C149.441 83.8838 150.073 83.7553 150.673 83.7553C151.657 83.7553 152.514 84.0122 153.242 84.5261C153.97 85.04 154.452 85.6716 154.687 86.421H156.903C156.689 85.6502 156.347 85.0186 155.876 84.5261C155.405 84.0122 154.859 83.6054 154.238 83.3056C153.638 82.9845 152.985 82.7704 152.278 82.6633C151.593 82.5348 150.929 82.4706 150.287 82.4706C148.938 82.4706 147.75 82.6954 146.722 83.1451C145.694 83.5733 144.827 84.1621 144.121 84.9115C143.414 85.6609 142.879 86.5388 142.515 87.5451C142.172 88.5515 142.001 89.6221 142.001 90.7569C142.001 91.9559 142.194 93.08 142.579 94.1292C142.964 95.157 143.51 96.0562 144.217 96.8271C144.945 97.5765 145.812 98.176 146.818 98.6256C147.825 99.0539 148.96 99.268 150.223 99.268C151.636 99.268 152.867 99.0324 153.916 98.5614C154.987 98.0903 155.886 97.5765 156.614 97.0198L155.683 95.7993C154.933 96.4202 154.184 96.8806 153.435 97.1803C152.707 97.4587 151.904 97.5979 151.026 97.5979ZM161.077 84.1086V82.8239H163.871V77.8778H166.601V82.8239H170.487V84.1086H166.601V94.7715C166.601 95.0285 166.612 95.3282 166.633 95.6708C166.655 95.992 166.719 96.3025 166.826 96.6022C166.933 96.8806 167.093 97.1161 167.308 97.3088C167.543 97.5015 167.864 97.5979 168.271 97.5979C168.785 97.5979 169.213 97.4052 169.556 97.0198C169.898 96.6344 170.177 96.2168 170.391 95.7672L171.9 97.3088C170.851 98.358 169.663 98.8826 168.335 98.8826C167.779 98.8826 167.233 98.7862 166.697 98.5935C166.162 98.4008 165.68 98.1118 165.252 97.7263C164.845 97.3195 164.513 96.8056 164.256 96.1847C163.999 95.5638 163.871 94.8358 163.871 94.0007V84.1086H161.077ZM176.975 82.8239V93.262C176.975 93.6474 177.007 94.1827 177.071 94.8679C177.157 95.5317 177.382 96.1954 177.746 96.8592C178.11 97.5015 178.677 98.0689 179.448 98.5614C180.24 99.0324 181.343 99.268 182.756 99.268C183.377 99.2894 184.051 99.1609 184.779 98.8826C185.529 98.6256 186.278 98.1225 187.028 97.3731L187.542 96.8592H187.67V98.8826H190.4V82.8239H187.67V92.7803C187.67 93.6153 187.552 94.3326 187.317 94.9321C187.081 95.5317 186.771 96.0348 186.385 96.4416C186 96.8271 185.55 97.1161 185.036 97.3088C184.523 97.5015 183.987 97.5979 183.431 97.5979C182.531 97.5979 181.825 97.4266 181.311 97.084C180.818 96.72 180.444 96.3025 180.187 95.8314C179.951 95.3604 179.812 94.9 179.769 94.4504C179.726 93.9793 179.705 93.6367 179.705 93.4226V82.8239H176.975ZM197.885 82.8239V98.8826H200.615V89.1831C200.615 88.3052 200.711 87.5665 200.904 86.967C201.118 86.3461 201.386 85.8429 201.707 85.4575C202.028 85.0721 202.382 84.7937 202.767 84.6225C203.152 84.4512 203.527 84.3655 203.891 84.3655C204.384 84.3655 204.833 84.5261 205.24 84.8473C205.668 85.1684 205.979 85.4682 206.171 85.7466L207.263 83.7553C207.071 83.4983 206.835 83.2842 206.557 83.1129C206.3 82.9416 206.032 82.8132 205.754 82.7275C205.497 82.6205 205.251 82.5562 205.015 82.5348C204.801 82.492 204.64 82.4706 204.533 82.4706C203.634 82.4706 202.885 82.7168 202.285 83.2093C201.686 83.7018 201.193 84.4297 200.808 85.3933H200.615V82.8239H197.885ZM218.306 82.4706C219.87 82.4706 221.079 82.6954 221.936 83.1451C222.792 83.5733 223.413 84.1407 223.799 84.8473C224.205 85.5539 224.441 86.3675 224.505 87.2882C224.569 88.2089 224.601 89.151 224.601 90.1145V98.8826H222V97.3088C221.379 97.9083 220.587 98.3901 219.623 98.7541C218.66 99.0967 217.696 99.268 216.733 99.268C215.812 99.268 214.998 99.1074 214.292 98.7862C213.585 98.465 212.996 98.0475 212.525 97.5336C212.054 97.0198 211.701 96.4416 211.465 95.7993C211.23 95.157 211.112 94.5039 211.112 93.8401C211.112 93.155 211.241 92.4698 211.498 91.7846C211.755 91.0995 212.14 90.4892 212.654 89.9539C213.168 89.3972 213.799 88.9476 214.549 88.605C215.298 88.2624 216.155 88.0911 217.118 88.0911C218.082 88.0911 218.992 88.2838 219.848 88.6692C220.726 89.0332 221.443 89.5578 222 90.243V88.8619C222 87.1062 221.732 85.8001 221.197 84.9436C220.683 84.0872 219.73 83.6589 218.339 83.6589C217.739 83.6589 217.214 83.7339 216.765 83.8838C216.315 84.0336 215.908 84.2477 215.544 84.5261C215.202 84.783 214.881 85.1149 214.581 85.5217C214.281 85.9071 213.981 86.3461 213.682 86.8386L212.011 85.1684C212.311 84.8473 212.622 84.5261 212.943 84.2049C213.285 83.8838 213.692 83.5947 214.163 83.3378C214.656 83.0808 215.234 82.8774 215.898 82.7275C216.561 82.5562 217.364 82.4706 218.306 82.4706ZM222 92.5233C221.893 92.2664 221.732 91.9666 221.518 91.624C221.326 91.2815 221.069 90.9496 220.747 90.6284C220.426 90.3072 220.041 90.0396 219.591 89.8255C219.142 89.5899 218.606 89.4722 217.985 89.4722C217.364 89.4722 216.797 89.6006 216.283 89.8576C215.769 90.0931 215.33 90.4143 214.966 90.8211C214.624 91.2065 214.356 91.6669 214.163 92.2022C213.971 92.7374 213.874 93.2941 213.874 93.8723C213.874 94.5574 213.992 95.157 214.228 95.6708C214.485 96.1633 214.806 96.5915 215.191 96.9555C215.576 97.2981 216.005 97.555 216.476 97.7263C216.947 97.8976 217.396 97.9833 217.825 97.9833C218.232 97.9833 218.638 97.9083 219.045 97.7585C219.473 97.6086 219.87 97.4052 220.234 97.1482C220.619 96.8699 220.962 96.5487 221.261 96.1847C221.561 95.8207 221.807 95.4246 222 94.9964V92.5233ZM213.778 76.015C213.778 76.6145 213.896 77.1819 214.131 77.7172C214.367 78.2525 214.699 78.7236 215.127 79.1304C215.555 79.5158 216.048 79.8263 216.604 80.0618C217.182 80.2759 217.814 80.383 218.499 80.383C219.163 80.383 219.784 80.2759 220.362 80.0618C220.94 79.8263 221.443 79.5158 221.872 79.1304C222.3 78.7236 222.632 78.2525 222.867 77.7172C223.103 77.1819 223.22 76.6145 223.22 76.015H221.872C221.829 76.9785 221.475 77.76 220.812 78.3596C220.169 78.9377 219.398 79.2267 218.499 79.2267C217.621 79.2267 216.85 78.9377 216.187 78.3596C215.544 77.76 215.191 76.9785 215.127 76.015H213.778Z" fill="#592424" fill-opacity="0.2"/>
</svg>
