<svg width="225" height="136" viewBox="0 0 225 136" fill="none" xmlns="http://www.w3.org/2000/svg">
<path fill-rule="evenodd" clip-rule="evenodd" d="M6.24943 133.28V135.154H77.6363V133.28H68.4553C65.0827 133.28 62.2097 132.781 59.8364 131.781C57.588 130.782 55.9017 129.283 54.7775 127.285C53.6533 125.286 53.0912 122.788 53.0912 119.79V97H34.1671V119.79C34.1671 122.788 33.605 125.286 32.4808 127.285C31.3566 129.283 29.6079 130.782 27.2345 131.781C24.9861 132.781 22.1756 133.28 18.803 133.28H6.24943ZM34.1671 63H53.0912V0.624387H43.3481L32.2935 12.2412C29.4205 15.239 26.5475 17.6748 23.6746 19.5485C20.8016 21.2972 17.4915 22.6088 13.7441 23.4832C10.1217 24.2326 5.74979 24.6698 0.628418 24.7947C0.628418 27.7926 1.31543 30.2284 2.68946 32.1021C4.18839 33.9757 6.4368 34.9126 9.43467 34.9126C11.1834 34.9126 12.9322 34.4129 14.6809 33.4136C16.5546 32.4143 18.9904 30.3533 21.9883 27.2305C24.9861 24.1077 29.0458 19.3611 34.1671 12.9906V63Z" fill="black"/>
<path d="M48.6759 85.251L51.821 92H54.9989L44.3185 69.0666H42.6804L32.9829 92H34.4899L37.373 85.251H48.6759ZM47.9879 83.7767H37.9954L42.7132 72.7359H42.8442L47.9879 83.7767ZM60.2547 75.619V92H63.0394V82.1059C63.0394 81.2104 63.1377 80.4569 63.3343 79.8453C63.5527 79.2119 63.8257 78.6986 64.1533 78.3055C64.481 77.9123 64.8413 77.6284 65.2345 77.4537C65.6276 77.2789 66.0099 77.1916 66.3812 77.1916C66.8835 77.1916 67.3422 77.3554 67.7572 77.683C68.194 78.0106 68.5107 78.3164 68.7073 78.6003L69.8212 76.5691C69.6246 76.307 69.3843 76.0886 69.1004 75.9139C68.8383 75.7391 68.5653 75.6081 68.2814 75.5207C68.0193 75.4115 67.7681 75.346 67.5278 75.3241C67.3094 75.2805 67.1456 75.2586 67.0364 75.2586C66.1191 75.2586 65.3546 75.5098 64.7431 76.0121C64.1315 76.5145 63.6292 77.2571 63.236 78.24H63.0394V75.619H60.2547ZM74.4025 69.0666V92H77.1872V82.5318C77.1872 82.095 77.22 81.5598 77.2855 80.9264C77.3511 80.293 77.5258 79.6815 77.8097 79.0918C78.1155 78.5021 78.5632 77.9997 79.153 77.5847C79.7427 77.1479 80.5617 76.9295 81.6101 76.9295C82.3527 76.9295 82.9424 77.0714 83.3793 77.3554C83.8379 77.6175 84.1874 77.9779 84.4276 78.4365C84.6679 78.8952 84.8208 79.4303 84.8863 80.0419C84.9737 80.6534 85.0174 81.2868 85.0174 81.9421V92H87.8021V81.1885C87.8021 79.9654 87.6274 78.9716 87.2779 78.2072C86.9285 77.4209 86.4917 76.8094 85.9675 76.3725C85.4433 75.9357 84.8645 75.6408 84.2311 75.488C83.6195 75.3351 83.0298 75.2586 82.4619 75.2586C81.6975 75.2586 80.8893 75.4115 80.0375 75.7173C79.2076 76.0012 78.4213 76.5582 77.6787 77.3881L77.3183 77.8468H77.1872V69.0666H74.4025ZM95.7415 75.619V92H98.5263V75.619H95.7415ZM95.3484 70.4426C95.3484 70.9231 95.5231 71.3381 95.8726 71.6876C96.2221 72.037 96.637 72.2118 97.1175 72.2118C97.5981 72.2118 98.013 72.037 98.3625 71.6876C98.712 71.3381 98.8867 70.9231 98.8867 70.4426C98.8867 69.9621 98.712 69.5471 98.3625 69.1976C98.013 68.8482 97.5981 68.6735 97.1175 68.6735C96.637 68.6735 96.2221 68.8482 95.8726 69.1976C95.5231 69.5471 95.3484 69.9621 95.3484 70.4426ZM104.771 76.9295V75.619H107.622V70.5736H110.406V75.619H114.371V76.9295H110.406V87.8065C110.406 88.0686 110.417 88.3743 110.439 88.7238C110.461 89.0514 110.527 89.3681 110.636 89.6739C110.745 89.9578 110.909 90.1981 111.127 90.3947C111.367 90.5912 111.695 90.6895 112.11 90.6895C112.634 90.6895 113.071 90.4929 113.42 90.0998C113.77 89.7067 114.054 89.2808 114.272 88.8221L115.812 90.3947C114.742 91.4649 113.53 92 112.176 92C111.608 92 111.051 91.9017 110.505 91.7051C109.959 91.5086 109.467 91.2137 109.03 90.8206C108.615 90.4056 108.277 89.8814 108.015 89.248C107.753 88.6146 107.622 87.872 107.622 87.0202V76.9295H104.771ZM134.88 84.5303V83.8423C134.88 82.3789 134.672 81.1121 134.257 80.0419C133.842 78.9716 133.274 78.0871 132.553 77.3881C131.855 76.6892 131.036 76.165 130.096 75.8156C129.157 75.4661 128.163 75.2914 127.115 75.2914C126.001 75.2914 124.975 75.488 124.035 75.8811C123.096 76.2524 122.277 76.8094 121.578 77.552C120.879 78.2727 120.333 79.1573 119.94 80.2057C119.547 81.2322 119.35 82.4007 119.35 83.7112C119.35 84.8033 119.514 85.8735 119.842 86.9219C120.191 87.9484 120.705 88.8767 121.382 89.7067C122.081 90.5148 122.954 91.17 124.003 91.6724C125.073 92.1529 126.329 92.3931 127.77 92.3931C129.168 92.3931 130.457 92.1529 131.636 91.6724C132.816 91.17 133.842 90.4602 134.716 89.5428L133.667 88.4945C133.209 88.8876 132.772 89.248 132.357 89.5756C131.964 89.9032 131.56 90.1762 131.145 90.3947C130.73 90.6131 130.293 90.7878 129.834 90.9189C129.397 91.0281 128.906 91.0827 128.36 91.0827C127.748 91.0827 127.093 90.9953 126.394 90.8206C125.717 90.624 125.084 90.2855 124.494 89.8049C123.904 89.3244 123.413 88.6583 123.02 87.8065C122.627 86.9547 122.43 85.8626 122.43 84.5303H134.88ZM122.43 83.2198C122.43 82.3461 122.517 81.5052 122.692 80.6971C122.889 79.8671 123.173 79.1355 123.544 78.5021C123.937 77.8687 124.429 77.3663 125.018 76.995C125.608 76.6019 126.307 76.4053 127.115 76.4053C128.666 76.4053 129.867 77.0168 130.719 78.24C131.592 79.4412 132.029 81.1012 132.029 83.2198H122.43ZM149.007 90.6895C148.221 90.6895 147.456 90.5694 146.714 90.3291C145.993 90.0889 145.349 89.7067 144.781 89.1825C144.213 88.6364 143.754 87.9266 143.405 87.0529C143.077 86.1574 142.913 85.0654 142.913 83.7767C142.913 82.4444 143.099 81.3196 143.47 80.4023C143.842 79.4631 144.3 78.7205 144.846 78.1744C145.414 77.6066 146.037 77.2025 146.714 76.9622C147.391 76.7001 148.035 76.5691 148.647 76.5691C149.651 76.5691 150.525 76.8312 151.268 77.3554C152.01 77.8796 152.502 78.5239 152.742 79.2883H155.003C154.784 78.5021 154.435 77.8577 153.954 77.3554C153.474 76.8312 152.917 76.4162 152.283 76.1104C151.672 75.7828 151.006 75.5644 150.285 75.4552C149.586 75.3241 148.909 75.2586 148.254 75.2586C146.878 75.2586 145.665 75.488 144.617 75.9466C143.569 76.3834 142.684 76.9841 141.963 77.7485C141.243 78.513 140.697 79.4085 140.325 80.435C139.976 81.4616 139.801 82.5536 139.801 83.7112C139.801 84.9343 139.998 86.081 140.391 87.1512C140.784 88.1996 141.341 89.1169 142.062 89.9032C142.804 90.6677 143.689 91.2792 144.715 91.7379C145.742 92.1747 146.899 92.3931 148.188 92.3931C149.63 92.3931 150.886 92.1529 151.956 91.6724C153.048 91.1919 153.965 90.6677 154.708 90.0998L153.758 88.8548C152.993 89.4882 152.229 89.9578 151.464 90.2636C150.722 90.5476 149.903 90.6895 149.007 90.6895ZM158.605 76.9295V75.619H161.455V70.5736H164.24V75.619H168.204V76.9295H164.24V87.8065C164.24 88.0686 164.251 88.3743 164.272 88.7238C164.294 89.0514 164.36 89.3681 164.469 89.6739C164.578 89.9578 164.742 90.1981 164.96 90.3947C165.201 90.5912 165.528 90.6895 165.943 90.6895C166.468 90.6895 166.904 90.4929 167.254 90.0998C167.603 89.7067 167.887 89.2808 168.106 88.8221L169.645 90.3947C168.575 91.4649 167.363 92 166.009 92C165.441 92 164.884 91.9017 164.338 91.7051C163.792 91.5086 163.301 91.2137 162.864 90.8206C162.449 90.4056 162.11 89.8814 161.848 89.248C161.586 88.6146 161.455 87.872 161.455 87.0202V76.9295H158.605ZM174.167 75.619V86.2666C174.167 86.6598 174.199 87.2058 174.265 87.9047C174.352 88.5818 174.582 89.2589 174.953 89.936C175.324 90.5912 175.903 91.17 176.689 91.6724C177.497 92.1529 178.622 92.3931 180.064 92.3931C180.697 92.415 181.385 92.2839 182.128 92C182.892 91.7379 183.657 91.2246 184.421 90.4602L184.945 89.936H185.076V92H187.861V75.619H185.076V85.7752C185.076 86.627 184.956 87.3587 184.716 87.9703C184.476 88.5818 184.159 89.0951 183.766 89.5101C183.373 89.9032 182.914 90.1981 182.39 90.3947C181.866 90.5912 181.32 90.6895 180.752 90.6895C179.834 90.6895 179.114 90.5148 178.589 90.1653C178.087 89.794 177.705 89.3681 177.443 88.8876C177.203 88.4071 177.061 87.9375 177.017 87.4788C176.973 86.9983 176.951 86.6489 176.951 86.4305V75.619H174.167ZM194.841 75.619V92H197.626V82.1059C197.626 81.2104 197.724 80.4569 197.921 79.8453C198.139 79.2119 198.412 78.6986 198.74 78.3055C199.068 77.9123 199.428 77.6284 199.821 77.4537C200.214 77.2789 200.596 77.1916 200.968 77.1916C201.47 77.1916 201.929 77.3554 202.344 77.683C202.781 78.0106 203.097 78.3164 203.294 78.6003L204.408 76.5691C204.211 76.307 203.971 76.0886 203.687 75.9139C203.425 75.7391 203.152 75.6081 202.868 75.5207C202.606 75.4115 202.355 75.346 202.114 75.3241C201.896 75.2805 201.732 75.2586 201.623 75.2586C200.706 75.2586 199.941 75.5098 199.33 76.0121C198.718 76.5145 198.216 77.2571 197.823 78.24H197.626V75.619H194.841ZM215.017 75.2586C216.612 75.2586 217.846 75.488 218.719 75.9466C219.593 76.3834 220.226 76.9622 220.62 77.683C221.035 78.4038 221.275 79.2337 221.34 80.1729C221.406 81.1121 221.439 82.0731 221.439 83.056V92H218.785V90.3947C218.151 91.0062 217.343 91.4976 216.36 91.869C215.378 92.2184 214.395 92.3931 213.412 92.3931C212.473 92.3931 211.643 92.2293 210.922 91.9017C210.201 91.5741 209.601 91.1482 209.12 90.624C208.64 90.0998 208.279 89.5101 208.039 88.8548C207.799 88.1996 207.679 87.5334 207.679 86.8564C207.679 86.1574 207.81 85.4585 208.072 84.7596C208.334 84.0607 208.727 83.4382 209.251 82.8922C209.775 82.3243 210.42 81.8656 211.184 81.5162C211.949 81.1667 212.822 80.992 213.805 80.992C214.788 80.992 215.716 81.1885 216.59 81.5817C217.485 81.953 218.217 82.4881 218.785 83.187V81.7783C218.785 79.9873 218.512 78.6549 217.966 77.7813C217.442 76.9076 216.47 76.4708 215.05 76.4708C214.438 76.4708 213.903 76.5473 213.445 76.7001C212.986 76.853 212.571 77.0714 212.2 77.3554C211.85 77.6175 211.523 77.956 211.217 78.371C210.911 78.7642 210.605 79.2119 210.3 79.7142L208.596 78.0106C208.902 77.683 209.218 77.3554 209.546 77.0278C209.895 76.7001 210.31 76.4053 210.791 76.1432C211.293 75.8811 211.883 75.6736 212.56 75.5207C213.237 75.346 214.056 75.2586 215.017 75.2586ZM218.785 85.5131C218.676 85.251 218.512 84.9452 218.293 84.5958C218.097 84.2463 217.835 83.9078 217.507 83.5802C217.18 83.2525 216.786 82.9795 216.328 82.7611C215.869 82.5209 215.323 82.4007 214.69 82.4007C214.056 82.4007 213.477 82.5318 212.953 82.7939C212.429 83.0341 211.981 83.3618 211.61 83.7767C211.261 84.1699 210.988 84.6395 210.791 85.1855C210.594 85.7315 210.496 86.2994 210.496 86.8891C210.496 87.5881 210.616 88.1996 210.856 88.7238C211.119 89.2262 211.446 89.663 211.839 90.0343C212.232 90.3837 212.669 90.6458 213.15 90.8206C213.63 90.9953 214.089 91.0827 214.526 91.0827C214.941 91.0827 215.356 91.0062 215.771 90.8533C216.208 90.7004 216.612 90.4929 216.983 90.2309C217.376 89.9469 217.726 89.6193 218.031 89.248C218.337 88.8767 218.588 88.4726 218.785 88.0358V85.5131ZM210.398 68.6735C210.398 69.285 210.518 69.8638 210.758 70.4098C210.998 70.9559 211.337 71.4364 211.774 71.8514C212.211 72.2445 212.713 72.5612 213.281 72.8015C213.871 73.0199 214.515 73.1291 215.214 73.1291C215.891 73.1291 216.524 73.0199 217.114 72.8015C217.704 72.5612 218.217 72.2445 218.654 71.8514C219.091 71.4364 219.429 70.9559 219.669 70.4098C219.91 69.8638 220.03 69.285 220.03 68.6735H218.654C218.61 69.6563 218.25 70.4535 217.573 71.0651C216.917 71.6548 216.131 71.9497 215.214 71.9497C214.318 71.9497 213.532 71.6548 212.855 71.0651C212.2 70.4535 211.839 69.6563 211.774 68.6735H210.398Z" fill="black"/>
<path d="M48.6759 85.251L51.821 92H54.9989L44.3185 69.0666H42.6804L32.9829 92H34.4899L37.373 85.251H48.6759ZM47.9879 83.7767H37.9954L42.7132 72.7359H42.8442L47.9879 83.7767ZM60.2547 75.619V92H63.0394V82.1059C63.0394 81.2104 63.1377 80.4569 63.3343 79.8453C63.5527 79.2119 63.8257 78.6986 64.1533 78.3055C64.481 77.9123 64.8413 77.6284 65.2345 77.4537C65.6276 77.2789 66.0099 77.1916 66.3812 77.1916C66.8835 77.1916 67.3422 77.3554 67.7572 77.683C68.194 78.0106 68.5107 78.3164 68.7073 78.6003L69.8212 76.5691C69.6246 76.307 69.3843 76.0886 69.1004 75.9139C68.8383 75.7391 68.5653 75.6081 68.2814 75.5207C68.0193 75.4115 67.7681 75.346 67.5278 75.3241C67.3094 75.2805 67.1456 75.2586 67.0364 75.2586C66.1191 75.2586 65.3546 75.5098 64.7431 76.0121C64.1315 76.5145 63.6292 77.2571 63.236 78.24H63.0394V75.619H60.2547ZM74.4025 69.0666V92H77.1872V82.5318C77.1872 82.095 77.22 81.5598 77.2855 80.9264C77.3511 80.293 77.5258 79.6815 77.8097 79.0918C78.1155 78.5021 78.5632 77.9997 79.153 77.5847C79.7427 77.1479 80.5617 76.9295 81.6101 76.9295C82.3527 76.9295 82.9424 77.0714 83.3793 77.3554C83.8379 77.6175 84.1874 77.9779 84.4276 78.4365C84.6679 78.8952 84.8208 79.4303 84.8863 80.0419C84.9737 80.6534 85.0174 81.2868 85.0174 81.9421V92H87.8021V81.1885C87.8021 79.9654 87.6274 78.9716 87.2779 78.2072C86.9285 77.4209 86.4917 76.8094 85.9675 76.3725C85.4433 75.9357 84.8645 75.6408 84.2311 75.488C83.6195 75.3351 83.0298 75.2586 82.4619 75.2586C81.6975 75.2586 80.8893 75.4115 80.0375 75.7173C79.2076 76.0012 78.4213 76.5582 77.6787 77.3881L77.3183 77.8468H77.1872V69.0666H74.4025ZM95.7415 75.619V92H98.5263V75.619H95.7415ZM95.3484 70.4426C95.3484 70.9231 95.5231 71.3381 95.8726 71.6876C96.2221 72.037 96.637 72.2118 97.1175 72.2118C97.5981 72.2118 98.013 72.037 98.3625 71.6876C98.712 71.3381 98.8867 70.9231 98.8867 70.4426C98.8867 69.9621 98.712 69.5471 98.3625 69.1976C98.013 68.8482 97.5981 68.6735 97.1175 68.6735C96.637 68.6735 96.2221 68.8482 95.8726 69.1976C95.5231 69.5471 95.3484 69.9621 95.3484 70.4426ZM104.771 76.9295V75.619H107.622V70.5736H110.406V75.619H114.371V76.9295H110.406V87.8065C110.406 88.0686 110.417 88.3743 110.439 88.7238C110.461 89.0514 110.527 89.3681 110.636 89.6739C110.745 89.9578 110.909 90.1981 111.127 90.3947C111.367 90.5912 111.695 90.6895 112.11 90.6895C112.634 90.6895 113.071 90.4929 113.42 90.0998C113.77 89.7067 114.054 89.2808 114.272 88.8221L115.812 90.3947C114.742 91.4649 113.53 92 112.176 92C111.608 92 111.051 91.9017 110.505 91.7051C109.959 91.5086 109.467 91.2137 109.03 90.8206C108.615 90.4056 108.277 89.8814 108.015 89.248C107.753 88.6146 107.622 87.872 107.622 87.0202V76.9295H104.771ZM134.88 84.5303V83.8423C134.88 82.3789 134.672 81.1121 134.257 80.0419C133.842 78.9716 133.274 78.0871 132.553 77.3881C131.855 76.6892 131.036 76.165 130.096 75.8156C129.157 75.4661 128.163 75.2914 127.115 75.2914C126.001 75.2914 124.975 75.488 124.035 75.8811C123.096 76.2524 122.277 76.8094 121.578 77.552C120.879 78.2727 120.333 79.1573 119.94 80.2057C119.547 81.2322 119.35 82.4007 119.35 83.7112C119.35 84.8033 119.514 85.8735 119.842 86.9219C120.191 87.9484 120.705 88.8767 121.382 89.7067C122.081 90.5148 122.954 91.17 124.003 91.6724C125.073 92.1529 126.329 92.3931 127.77 92.3931C129.168 92.3931 130.457 92.1529 131.636 91.6724C132.816 91.17 133.842 90.4602 134.716 89.5428L133.667 88.4945C133.209 88.8876 132.772 89.248 132.357 89.5756C131.964 89.9032 131.56 90.1762 131.145 90.3947C130.73 90.6131 130.293 90.7878 129.834 90.9189C129.397 91.0281 128.906 91.0827 128.36 91.0827C127.748 91.0827 127.093 90.9953 126.394 90.8206C125.717 90.624 125.084 90.2855 124.494 89.8049C123.904 89.3244 123.413 88.6583 123.02 87.8065C122.627 86.9547 122.43 85.8626 122.43 84.5303H134.88ZM122.43 83.2198C122.43 82.3461 122.517 81.5052 122.692 80.6971C122.889 79.8671 123.173 79.1355 123.544 78.5021C123.937 77.8687 124.429 77.3663 125.018 76.995C125.608 76.6019 126.307 76.4053 127.115 76.4053C128.666 76.4053 129.867 77.0168 130.719 78.24C131.592 79.4412 132.029 81.1012 132.029 83.2198H122.43ZM149.007 90.6895C148.221 90.6895 147.456 90.5694 146.714 90.3291C145.993 90.0889 145.349 89.7067 144.781 89.1825C144.213 88.6364 143.754 87.9266 143.405 87.0529C143.077 86.1574 142.913 85.0654 142.913 83.7767C142.913 82.4444 143.099 81.3196 143.47 80.4023C143.842 79.4631 144.3 78.7205 144.846 78.1744C145.414 77.6066 146.037 77.2025 146.714 76.9622C147.391 76.7001 148.035 76.5691 148.647 76.5691C149.651 76.5691 150.525 76.8312 151.268 77.3554C152.01 77.8796 152.502 78.5239 152.742 79.2883H155.003C154.784 78.5021 154.435 77.8577 153.954 77.3554C153.474 76.8312 152.917 76.4162 152.283 76.1104C151.672 75.7828 151.006 75.5644 150.285 75.4552C149.586 75.3241 148.909 75.2586 148.254 75.2586C146.878 75.2586 145.665 75.488 144.617 75.9466C143.569 76.3834 142.684 76.9841 141.963 77.7485C141.243 78.513 140.697 79.4085 140.325 80.435C139.976 81.4616 139.801 82.5536 139.801 83.7112C139.801 84.9343 139.998 86.081 140.391 87.1512C140.784 88.1996 141.341 89.1169 142.062 89.9032C142.804 90.6677 143.689 91.2792 144.715 91.7379C145.742 92.1747 146.899 92.3931 148.188 92.3931C149.63 92.3931 150.886 92.1529 151.956 91.6724C153.048 91.1919 153.965 90.6677 154.708 90.0998L153.758 88.8548C152.993 89.4882 152.229 89.9578 151.464 90.2636C150.722 90.5476 149.903 90.6895 149.007 90.6895ZM158.605 76.9295V75.619H161.455V70.5736H164.24V75.619H168.204V76.9295H164.24V87.8065C164.24 88.0686 164.251 88.3743 164.272 88.7238C164.294 89.0514 164.36 89.3681 164.469 89.6739C164.578 89.9578 164.742 90.1981 164.96 90.3947C165.201 90.5912 165.528 90.6895 165.943 90.6895C166.468 90.6895 166.904 90.4929 167.254 90.0998C167.603 89.7067 167.887 89.2808 168.106 88.8221L169.645 90.3947C168.575 91.4649 167.363 92 166.009 92C165.441 92 164.884 91.9017 164.338 91.7051C163.792 91.5086 163.301 91.2137 162.864 90.8206C162.449 90.4056 162.11 89.8814 161.848 89.248C161.586 88.6146 161.455 87.872 161.455 87.0202V76.9295H158.605ZM174.167 75.619V86.2666C174.167 86.6598 174.199 87.2058 174.265 87.9047C174.352 88.5818 174.582 89.2589 174.953 89.936C175.324 90.5912 175.903 91.17 176.689 91.6724C177.497 92.1529 178.622 92.3931 180.064 92.3931C180.697 92.415 181.385 92.2839 182.128 92C182.892 91.7379 183.657 91.2246 184.421 90.4602L184.945 89.936H185.076V92H187.861V75.619H185.076V85.7752C185.076 86.627 184.956 87.3587 184.716 87.9703C184.476 88.5818 184.159 89.0951 183.766 89.5101C183.373 89.9032 182.914 90.1981 182.39 90.3947C181.866 90.5912 181.32 90.6895 180.752 90.6895C179.834 90.6895 179.114 90.5148 178.589 90.1653C178.087 89.794 177.705 89.3681 177.443 88.8876C177.203 88.4071 177.061 87.9375 177.017 87.4788C176.973 86.9983 176.951 86.6489 176.951 86.4305V75.619H174.167ZM194.841 75.619V92H197.626V82.1059C197.626 81.2104 197.724 80.4569 197.921 79.8453C198.139 79.2119 198.412 78.6986 198.74 78.3055C199.068 77.9123 199.428 77.6284 199.821 77.4537C200.214 77.2789 200.596 77.1916 200.968 77.1916C201.47 77.1916 201.929 77.3554 202.344 77.683C202.781 78.0106 203.097 78.3164 203.294 78.6003L204.408 76.5691C204.211 76.307 203.971 76.0886 203.687 75.9139C203.425 75.7391 203.152 75.6081 202.868 75.5207C202.606 75.4115 202.355 75.346 202.114 75.3241C201.896 75.2805 201.732 75.2586 201.623 75.2586C200.706 75.2586 199.941 75.5098 199.33 76.0121C198.718 76.5145 198.216 77.2571 197.823 78.24H197.626V75.619H194.841ZM215.017 75.2586C216.612 75.2586 217.846 75.488 218.719 75.9466C219.593 76.3834 220.226 76.9622 220.62 77.683C221.035 78.4038 221.275 79.2337 221.34 80.1729C221.406 81.1121 221.439 82.0731 221.439 83.056V92H218.785V90.3947C218.151 91.0062 217.343 91.4976 216.36 91.869C215.378 92.2184 214.395 92.3931 213.412 92.3931C212.473 92.3931 211.643 92.2293 210.922 91.9017C210.201 91.5741 209.601 91.1482 209.12 90.624C208.64 90.0998 208.279 89.5101 208.039 88.8548C207.799 88.1996 207.679 87.5334 207.679 86.8564C207.679 86.1574 207.81 85.4585 208.072 84.7596C208.334 84.0607 208.727 83.4382 209.251 82.8922C209.775 82.3243 210.42 81.8656 211.184 81.5162C211.949 81.1667 212.822 80.992 213.805 80.992C214.788 80.992 215.716 81.1885 216.59 81.5817C217.485 81.953 218.217 82.4881 218.785 83.187V81.7783C218.785 79.9873 218.512 78.6549 217.966 77.7813C217.442 76.9076 216.47 76.4708 215.05 76.4708C214.438 76.4708 213.903 76.5473 213.445 76.7001C212.986 76.853 212.571 77.0714 212.2 77.3554C211.85 77.6175 211.523 77.956 211.217 78.371C210.911 78.7642 210.605 79.2119 210.3 79.7142L208.596 78.0106C208.902 77.683 209.218 77.3554 209.546 77.0278C209.895 76.7001 210.31 76.4053 210.791 76.1432C211.293 75.8811 211.883 75.6736 212.56 75.5207C213.237 75.346 214.056 75.2586 215.017 75.2586ZM218.785 85.5131C218.676 85.251 218.512 84.9452 218.293 84.5958C218.097 84.2463 217.835 83.9078 217.507 83.5802C217.18 83.2525 216.786 82.9795 216.328 82.7611C215.869 82.5209 215.323 82.4007 214.69 82.4007C214.056 82.4007 213.477 82.5318 212.953 82.7939C212.429 83.0341 211.981 83.3618 211.61 83.7767C211.261 84.1699 210.988 84.6395 210.791 85.1855C210.594 85.7315 210.496 86.2994 210.496 86.8891C210.496 87.5881 210.616 88.1996 210.856 88.7238C211.119 89.2262 211.446 89.663 211.839 90.0343C212.232 90.3837 212.669 90.6458 213.15 90.8206C213.63 90.9953 214.089 91.0827 214.526 91.0827C214.941 91.0827 215.356 91.0062 215.771 90.8533C216.208 90.7004 216.612 90.4929 216.983 90.2309C217.376 89.9469 217.726 89.6193 218.031 89.248C218.337 88.8767 218.588 88.4726 218.785 88.0358V85.5131ZM210.398 68.6735C210.398 69.285 210.518 69.8638 210.758 70.4098C210.998 70.9559 211.337 71.4364 211.774 71.8514C212.211 72.2445 212.713 72.5612 213.281 72.8015C213.871 73.0199 214.515 73.1291 215.214 73.1291C215.891 73.1291 216.524 73.0199 217.114 72.8015C217.704 72.5612 218.217 72.2445 218.654 71.8514C219.091 71.4364 219.429 70.9559 219.669 70.4098C219.91 69.8638 220.03 69.285 220.03 68.6735H218.654C218.61 69.6563 218.25 70.4535 217.573 71.0651C216.917 71.6548 216.131 71.9497 215.214 71.9497C214.318 71.9497 213.532 71.6548 212.855 71.0651C212.2 70.4535 211.839 69.6563 211.774 68.6735H210.398Z" fill="#592424" fill-opacity="0.2"/>
</svg>
