<svg width="237" height="136" viewBox="0 0 237 136" fill="none" xmlns="http://www.w3.org/2000/svg">
<path fill-rule="evenodd" clip-rule="evenodd" d="M6.24943 133.28V135.154H77.6363V133.28H68.4553C65.0827 133.28 62.2097 132.781 59.8364 131.781C57.588 130.782 55.9017 129.283 54.7775 127.285C53.6533 125.286 53.0912 122.788 53.0912 119.79V106.753H34.1671V119.79C34.1671 122.788 33.605 125.286 32.4808 127.285C31.3566 129.283 29.6079 130.782 27.2345 131.781C24.9861 132.781 22.1756 133.28 18.803 133.28H6.24943ZM34.1671 71.913H53.0912V0.62439H43.3481L32.2935 12.2412C29.4205 15.239 26.5475 17.6748 23.6746 19.5485C20.8016 21.2972 17.4915 22.6088 13.7441 23.4832C10.1217 24.2326 5.74979 24.6698 0.628418 24.7947C0.628418 27.7926 1.31543 30.2284 2.68946 32.1021C4.18839 33.9757 6.4368 34.9126 9.43467 34.9126C11.1834 34.9126 12.9322 34.4129 14.6809 33.4136C16.5546 32.4143 18.9904 30.3533 21.9883 27.2305C24.9861 24.1077 29.0458 19.3611 34.1671 12.9906V71.913Z" fill="black"/>
<path d="M49.8214 93.2149L52.9665 99.9639H56.1444L45.464 77.0305H43.8259L34.1284 99.9639H35.6354L38.5185 93.2149H49.8214ZM49.1334 91.7406H39.141L43.8587 80.6998H43.9897L49.1334 91.7406ZM61.4002 83.5829V99.9639H64.1849V90.0697C64.1849 89.1742 64.2832 88.4207 64.4798 87.8092C64.6982 87.1758 64.9712 86.6625 65.2989 86.2694C65.6265 85.8762 65.9869 85.5923 66.38 85.4175C66.7731 85.2428 67.1554 85.1554 67.5267 85.1554C68.029 85.1554 68.4877 85.3193 68.9027 85.6469C69.3395 85.9745 69.6562 86.2803 69.8528 86.5642L70.9667 84.533C70.7701 84.2709 70.5299 84.0525 70.2459 83.8777C69.9838 83.703 69.7108 83.5719 69.4269 83.4846C69.1648 83.3754 68.9136 83.3098 68.6733 83.288C68.4549 83.2443 68.2911 83.2225 68.1819 83.2225C67.2646 83.2225 66.5001 83.4737 65.8886 83.976C65.277 84.4784 64.7747 85.221 64.3815 86.2038H64.1849V83.5829H61.4002ZM75.548 77.0305V99.9639H78.3328V90.4956C78.3328 90.0588 78.3655 89.5237 78.431 88.8903C78.4966 88.2569 78.6713 87.6454 78.9552 87.0556C79.261 86.4659 79.7088 85.9636 80.2985 85.5486C80.8882 85.1118 81.7072 84.8933 82.7556 84.8933C83.4982 84.8933 84.0879 85.0353 84.5248 85.3193C84.9834 85.5813 85.3329 85.9417 85.5732 86.4004C85.8134 86.8591 85.9663 87.3942 86.0318 88.0057C86.1192 88.6173 86.1629 89.2507 86.1629 89.9059V99.9639H88.9476V89.1524C88.9476 87.9293 88.7729 86.9355 88.4234 86.1711C88.074 85.3848 87.6372 84.7732 87.113 84.3364C86.5888 83.8996 86.01 83.6047 85.3766 83.4518C84.765 83.2989 84.1753 83.2225 83.6074 83.2225C82.843 83.2225 82.0349 83.3754 81.183 83.6812C80.3531 83.9651 79.5668 84.522 78.8242 85.352L78.4638 85.8107H78.3328V77.0305H75.548ZM96.8871 83.5829V99.9639H99.6718V83.5829H96.8871ZM96.4939 78.4065C96.4939 78.887 96.6686 79.302 97.0181 79.6514C97.3676 80.0009 97.7825 80.1756 98.2631 80.1756C98.7436 80.1756 99.1586 80.0009 99.508 79.6514C99.8575 79.302 100.032 78.887 100.032 78.4065C100.032 77.926 99.8575 77.511 99.508 77.1615C99.1586 76.8121 98.7436 76.6373 98.2631 76.6373C97.7825 76.6373 97.3676 76.8121 97.0181 77.1615C96.6686 77.511 96.4939 77.926 96.4939 78.4065ZM105.917 84.8933V83.5829H108.767V78.5375H111.552V83.5829H115.516V84.8933H111.552V95.7703C111.552 96.0324 111.563 96.3382 111.585 96.6877C111.606 97.0153 111.672 97.332 111.781 97.6378C111.89 97.9217 112.054 98.162 112.273 98.3585C112.513 98.5551 112.841 98.6534 113.256 98.6534C113.78 98.6534 114.217 98.4568 114.566 98.0637C114.915 97.6705 115.199 97.2446 115.418 96.786L116.958 98.3585C115.887 99.4288 114.675 99.9639 113.321 99.9639C112.753 99.9639 112.196 99.8656 111.65 99.669C111.104 99.4724 110.613 99.1776 110.176 98.7844C109.761 98.3694 109.422 97.8453 109.16 97.2119C108.898 96.5785 108.767 95.8359 108.767 94.984V84.8933H105.917ZM136.025 92.4941V91.8061C136.025 90.3428 135.818 89.076 135.403 88.0057C134.988 86.9355 134.42 86.0509 133.699 85.352C133 84.6531 132.181 84.1289 131.242 83.7794C130.303 83.43 129.309 83.2552 128.261 83.2552C127.147 83.2552 126.12 83.4518 125.181 83.845C124.242 84.2163 123.423 84.7732 122.724 85.5158C122.025 86.2366 121.479 87.1212 121.086 88.1695C120.692 89.1961 120.496 90.3646 120.496 91.6751C120.496 92.7671 120.66 93.8374 120.987 94.8858C121.337 95.9123 121.85 96.8406 122.527 97.6705C123.226 98.4787 124.1 99.1339 125.148 99.6362C126.218 100.117 127.474 100.357 128.916 100.357C130.314 100.357 131.602 100.117 132.782 99.6362C133.961 99.1339 134.988 98.4241 135.861 97.5067L134.813 96.4583C134.354 96.8515 133.917 97.2119 133.502 97.5395C133.109 97.8671 132.705 98.1401 132.29 98.3585C131.875 98.5769 131.438 98.7517 130.98 98.8827C130.543 98.9919 130.051 99.0465 129.505 99.0465C128.894 99.0465 128.239 98.9592 127.54 98.7844C126.863 98.5879 126.229 98.2493 125.64 97.7688C125.05 97.2883 124.558 96.6221 124.165 95.7703C123.772 94.9185 123.576 93.8265 123.576 92.4941H136.025ZM123.576 91.1837C123.576 90.31 123.663 89.4691 123.838 88.661C124.034 87.831 124.318 87.0993 124.689 86.4659C125.083 85.8325 125.574 85.3302 126.164 84.9589C126.753 84.5657 127.452 84.3692 128.261 84.3692C129.811 84.3692 131.013 84.9807 131.864 86.2038C132.738 87.4051 133.175 89.065 133.175 91.1837H123.576ZM150.153 98.6534C149.366 98.6534 148.602 98.5333 147.859 98.293C147.139 98.0528 146.494 97.6705 145.926 97.1463C145.359 96.6003 144.9 95.8905 144.55 95.0168C144.223 94.1213 144.059 93.0292 144.059 91.7406C144.059 90.4083 144.245 89.2835 144.616 88.3661C144.987 87.4269 145.446 86.6843 145.992 86.1383C146.56 85.5704 147.182 85.1664 147.859 84.9261C148.536 84.664 149.181 84.533 149.792 84.533C150.797 84.533 151.671 84.7951 152.413 85.3193C153.156 85.8434 153.647 86.4878 153.888 87.2522H156.148C155.93 86.4659 155.58 85.8216 155.1 85.3193C154.619 84.7951 154.062 84.3801 153.429 84.0743C152.817 83.7467 152.151 83.5283 151.43 83.4191C150.731 83.288 150.054 83.2225 149.399 83.2225C148.023 83.2225 146.811 83.4518 145.763 83.9105C144.714 84.3473 143.83 84.9479 143.109 85.7124C142.388 86.4768 141.842 87.3723 141.471 88.3989C141.121 89.4254 140.947 90.5175 140.947 91.6751C140.947 92.8982 141.143 94.0449 141.536 95.1151C141.929 96.1635 142.486 97.0808 143.207 97.8671C143.95 98.6315 144.834 99.2431 145.861 99.7018C146.887 100.139 148.045 100.357 149.334 100.357C150.775 100.357 152.031 100.117 153.101 99.6362C154.193 99.1557 155.111 98.6315 155.853 98.0637L154.903 96.8187C154.139 97.4521 153.374 97.9217 152.61 98.2275C151.867 98.5114 151.048 98.6534 150.153 98.6534ZM159.75 84.8933V83.5829H162.6V78.5375H165.385V83.5829H169.349V84.8933H165.385V95.7703C165.385 96.0324 165.396 96.3382 165.418 96.6877C165.44 97.0153 165.505 97.332 165.615 97.6378C165.724 97.9217 165.888 98.162 166.106 98.3585C166.346 98.5551 166.674 98.6534 167.089 98.6534C167.613 98.6534 168.05 98.4568 168.399 98.0637C168.749 97.6705 169.033 97.2446 169.251 96.786L170.791 98.3585C169.721 99.4288 168.509 99.9639 167.154 99.9639C166.587 99.9639 166.03 99.8656 165.484 99.669C164.937 99.4724 164.446 99.1776 164.009 98.7844C163.594 98.3694 163.256 97.8453 162.994 97.2119C162.732 96.5785 162.6 95.8359 162.6 94.984V84.8933H159.75ZM175.312 83.5829V94.2305C175.312 94.6237 175.345 95.1697 175.41 95.8686C175.498 96.5457 175.727 97.2228 176.098 97.8999C176.47 98.5551 177.049 99.1339 177.835 99.6362C178.643 100.117 179.768 100.357 181.209 100.357C181.843 100.379 182.531 100.248 183.273 99.9639C184.038 99.7018 184.802 99.1885 185.567 98.4241L186.091 97.8999H186.222V99.9639H189.007V83.5829H186.222V93.7391C186.222 94.5909 186.102 95.3226 185.861 95.9341C185.621 96.5457 185.305 97.059 184.911 97.474C184.518 97.8671 184.06 98.162 183.535 98.3585C183.011 98.5551 182.465 98.6534 181.897 98.6534C180.98 98.6534 180.259 98.4787 179.735 98.1292C179.233 97.7579 178.85 97.332 178.588 96.8515C178.348 96.371 178.206 95.9014 178.162 95.4427C178.119 94.9622 178.097 94.6127 178.097 94.3943V83.5829H175.312ZM195.987 83.5829V99.9639H198.771V90.0697C198.771 89.1742 198.87 88.4207 199.066 87.8092C199.285 87.1758 199.558 86.6625 199.885 86.2694C200.213 85.8762 200.573 85.5923 200.967 85.4175C201.36 85.2428 201.742 85.1554 202.113 85.1554C202.616 85.1554 203.074 85.3193 203.489 85.6469C203.926 85.9745 204.243 86.2803 204.439 86.5642L205.553 84.533C205.357 84.2709 205.116 84.0525 204.832 83.8777C204.57 83.703 204.297 83.5719 204.013 83.4846C203.751 83.3754 203.5 83.3098 203.26 83.288C203.041 83.2443 202.878 83.2225 202.768 83.2225C201.851 83.2225 201.087 83.4737 200.475 83.976C199.864 84.4784 199.361 85.221 198.968 86.2038H198.771V83.5829H195.987ZM216.163 83.2225C217.757 83.2225 218.991 83.4518 219.865 83.9105C220.739 84.3473 221.372 84.9261 221.765 85.6469C222.18 86.3676 222.42 87.1976 222.486 88.1368C222.551 89.076 222.584 90.037 222.584 91.0198V99.9639H219.93V98.3585C219.297 98.9701 218.489 99.4615 217.506 99.8328C216.523 100.182 215.54 100.357 214.557 100.357C213.618 100.357 212.788 100.193 212.067 99.8656C211.347 99.538 210.746 99.1121 210.266 98.5879C209.785 98.0637 209.425 97.474 209.184 96.8187C208.944 96.1635 208.824 95.4973 208.824 94.8202C208.824 94.1213 208.955 93.4224 209.217 92.7235C209.479 92.0245 209.872 91.4021 210.397 90.856C210.921 90.2882 211.565 89.8295 212.33 89.48C213.094 89.1306 213.968 88.9558 214.951 88.9558C215.933 88.9558 216.862 89.1524 217.735 89.5456C218.631 89.9169 219.363 90.452 219.93 91.1509V89.7421C219.93 87.9511 219.657 86.6188 219.111 85.7452C218.587 84.8715 217.615 84.4347 216.196 84.4347C215.584 84.4347 215.049 84.5111 214.59 84.664C214.132 84.8169 213.717 85.0353 213.345 85.3193C212.996 85.5813 212.668 85.9199 212.362 86.3349C212.057 86.728 211.751 87.1758 211.445 87.6781L209.741 85.9745C210.047 85.6469 210.364 85.3193 210.691 84.9916C211.041 84.664 211.456 84.3692 211.936 84.1071C212.439 83.845 213.029 83.6375 213.706 83.4846C214.383 83.3098 215.202 83.2225 216.163 83.2225ZM219.93 93.477C219.821 93.2149 219.657 92.9091 219.439 92.5597C219.242 92.2102 218.98 91.8717 218.653 91.544C218.325 91.2164 217.932 90.9434 217.473 90.725C217.015 90.4847 216.469 90.3646 215.835 90.3646C215.202 90.3646 214.623 90.4956 214.099 90.7577C213.575 90.998 213.127 91.3256 212.756 91.7406C212.406 92.1337 212.133 92.6033 211.936 93.1494C211.74 93.6954 211.642 94.2633 211.642 94.853C211.642 95.5519 211.762 96.1635 212.002 96.6877C212.264 97.19 212.592 97.6268 212.985 97.9981C213.378 98.3476 213.815 98.6097 214.295 98.7844C214.776 98.9592 215.234 99.0465 215.671 99.0465C216.086 99.0465 216.501 98.9701 216.916 98.8172C217.353 98.6643 217.757 98.4568 218.128 98.1947C218.522 97.9108 218.871 97.5832 219.177 97.2119C219.483 96.8406 219.734 96.4365 219.93 95.9997V93.477ZM211.543 76.6373C211.543 77.2489 211.663 77.8277 211.904 78.3737C212.144 78.9197 212.482 79.4003 212.919 79.8152C213.356 80.2084 213.858 80.5251 214.426 80.7653C215.016 80.9837 215.66 81.093 216.359 81.093C217.036 81.093 217.67 80.9837 218.26 80.7653C218.849 80.5251 219.363 80.2084 219.799 79.8152C220.236 79.4003 220.575 78.9197 220.815 78.3737C221.055 77.8277 221.175 77.2489 221.175 76.6373H219.799C219.756 77.6202 219.395 78.4174 218.718 79.0289C218.063 79.6187 217.277 79.9135 216.359 79.9135C215.464 79.9135 214.678 79.6187 214 79.0289C213.345 78.4174 212.985 77.6202 212.919 76.6373H211.543Z" fill="black"/>
<path d="M49.8214 93.2149L52.9665 99.9639H56.1444L45.464 77.0305H43.8259L34.1284 99.9639H35.6354L38.5185 93.2149H49.8214ZM49.1334 91.7406H39.141L43.8587 80.6998H43.9897L49.1334 91.7406ZM61.4002 83.5829V99.9639H64.1849V90.0697C64.1849 89.1742 64.2832 88.4207 64.4798 87.8092C64.6982 87.1758 64.9712 86.6625 65.2989 86.2694C65.6265 85.8762 65.9869 85.5923 66.38 85.4175C66.7731 85.2428 67.1554 85.1554 67.5267 85.1554C68.029 85.1554 68.4877 85.3193 68.9027 85.6469C69.3395 85.9745 69.6562 86.2803 69.8528 86.5642L70.9667 84.533C70.7701 84.2709 70.5299 84.0525 70.2459 83.8777C69.9838 83.703 69.7108 83.5719 69.4269 83.4846C69.1648 83.3754 68.9136 83.3098 68.6733 83.288C68.4549 83.2443 68.2911 83.2225 68.1819 83.2225C67.2646 83.2225 66.5001 83.4737 65.8886 83.976C65.277 84.4784 64.7747 85.221 64.3815 86.2038H64.1849V83.5829H61.4002ZM75.548 77.0305V99.9639H78.3328V90.4956C78.3328 90.0588 78.3655 89.5237 78.431 88.8903C78.4966 88.2569 78.6713 87.6454 78.9552 87.0556C79.261 86.4659 79.7088 85.9636 80.2985 85.5486C80.8882 85.1118 81.7072 84.8933 82.7556 84.8933C83.4982 84.8933 84.0879 85.0353 84.5248 85.3193C84.9834 85.5813 85.3329 85.9417 85.5732 86.4004C85.8134 86.8591 85.9663 87.3942 86.0318 88.0057C86.1192 88.6173 86.1629 89.2507 86.1629 89.9059V99.9639H88.9476V89.1524C88.9476 87.9293 88.7729 86.9355 88.4234 86.1711C88.074 85.3848 87.6372 84.7732 87.113 84.3364C86.5888 83.8996 86.01 83.6047 85.3766 83.4518C84.765 83.2989 84.1753 83.2225 83.6074 83.2225C82.843 83.2225 82.0349 83.3754 81.183 83.6812C80.3531 83.9651 79.5668 84.522 78.8242 85.352L78.4638 85.8107H78.3328V77.0305H75.548ZM96.8871 83.5829V99.9639H99.6718V83.5829H96.8871ZM96.4939 78.4065C96.4939 78.887 96.6686 79.302 97.0181 79.6514C97.3676 80.0009 97.7825 80.1756 98.2631 80.1756C98.7436 80.1756 99.1586 80.0009 99.508 79.6514C99.8575 79.302 100.032 78.887 100.032 78.4065C100.032 77.926 99.8575 77.511 99.508 77.1615C99.1586 76.8121 98.7436 76.6373 98.2631 76.6373C97.7825 76.6373 97.3676 76.8121 97.0181 77.1615C96.6686 77.511 96.4939 77.926 96.4939 78.4065ZM105.917 84.8933V83.5829H108.767V78.5375H111.552V83.5829H115.516V84.8933H111.552V95.7703C111.552 96.0324 111.563 96.3382 111.585 96.6877C111.606 97.0153 111.672 97.332 111.781 97.6378C111.89 97.9217 112.054 98.162 112.273 98.3585C112.513 98.5551 112.841 98.6534 113.256 98.6534C113.78 98.6534 114.217 98.4568 114.566 98.0637C114.915 97.6705 115.199 97.2446 115.418 96.786L116.958 98.3585C115.887 99.4288 114.675 99.9639 113.321 99.9639C112.753 99.9639 112.196 99.8656 111.65 99.669C111.104 99.4724 110.613 99.1776 110.176 98.7844C109.761 98.3694 109.422 97.8453 109.16 97.2119C108.898 96.5785 108.767 95.8359 108.767 94.984V84.8933H105.917ZM136.025 92.4941V91.8061C136.025 90.3428 135.818 89.076 135.403 88.0057C134.988 86.9355 134.42 86.0509 133.699 85.352C133 84.6531 132.181 84.1289 131.242 83.7794C130.303 83.43 129.309 83.2552 128.261 83.2552C127.147 83.2552 126.12 83.4518 125.181 83.845C124.242 84.2163 123.423 84.7732 122.724 85.5158C122.025 86.2366 121.479 87.1212 121.086 88.1695C120.692 89.1961 120.496 90.3646 120.496 91.6751C120.496 92.7671 120.66 93.8374 120.987 94.8858C121.337 95.9123 121.85 96.8406 122.527 97.6705C123.226 98.4787 124.1 99.1339 125.148 99.6362C126.218 100.117 127.474 100.357 128.916 100.357C130.314 100.357 131.602 100.117 132.782 99.6362C133.961 99.1339 134.988 98.4241 135.861 97.5067L134.813 96.4583C134.354 96.8515 133.917 97.2119 133.502 97.5395C133.109 97.8671 132.705 98.1401 132.29 98.3585C131.875 98.5769 131.438 98.7517 130.98 98.8827C130.543 98.9919 130.051 99.0465 129.505 99.0465C128.894 99.0465 128.239 98.9592 127.54 98.7844C126.863 98.5879 126.229 98.2493 125.64 97.7688C125.05 97.2883 124.558 96.6221 124.165 95.7703C123.772 94.9185 123.576 93.8265 123.576 92.4941H136.025ZM123.576 91.1837C123.576 90.31 123.663 89.4691 123.838 88.661C124.034 87.831 124.318 87.0993 124.689 86.4659C125.083 85.8325 125.574 85.3302 126.164 84.9589C126.753 84.5657 127.452 84.3692 128.261 84.3692C129.811 84.3692 131.013 84.9807 131.864 86.2038C132.738 87.4051 133.175 89.065 133.175 91.1837H123.576ZM150.153 98.6534C149.366 98.6534 148.602 98.5333 147.859 98.293C147.139 98.0528 146.494 97.6705 145.926 97.1463C145.359 96.6003 144.9 95.8905 144.55 95.0168C144.223 94.1213 144.059 93.0292 144.059 91.7406C144.059 90.4083 144.245 89.2835 144.616 88.3661C144.987 87.4269 145.446 86.6843 145.992 86.1383C146.56 85.5704 147.182 85.1664 147.859 84.9261C148.536 84.664 149.181 84.533 149.792 84.533C150.797 84.533 151.671 84.7951 152.413 85.3193C153.156 85.8434 153.647 86.4878 153.888 87.2522H156.148C155.93 86.4659 155.58 85.8216 155.1 85.3193C154.619 84.7951 154.062 84.3801 153.429 84.0743C152.817 83.7467 152.151 83.5283 151.43 83.4191C150.731 83.288 150.054 83.2225 149.399 83.2225C148.023 83.2225 146.811 83.4518 145.763 83.9105C144.714 84.3473 143.83 84.9479 143.109 85.7124C142.388 86.4768 141.842 87.3723 141.471 88.3989C141.121 89.4254 140.947 90.5175 140.947 91.6751C140.947 92.8982 141.143 94.0449 141.536 95.1151C141.929 96.1635 142.486 97.0808 143.207 97.8671C143.95 98.6315 144.834 99.2431 145.861 99.7018C146.887 100.139 148.045 100.357 149.334 100.357C150.775 100.357 152.031 100.117 153.101 99.6362C154.193 99.1557 155.111 98.6315 155.853 98.0637L154.903 96.8187C154.139 97.4521 153.374 97.9217 152.61 98.2275C151.867 98.5114 151.048 98.6534 150.153 98.6534ZM159.75 84.8933V83.5829H162.6V78.5375H165.385V83.5829H169.349V84.8933H165.385V95.7703C165.385 96.0324 165.396 96.3382 165.418 96.6877C165.44 97.0153 165.505 97.332 165.615 97.6378C165.724 97.9217 165.888 98.162 166.106 98.3585C166.346 98.5551 166.674 98.6534 167.089 98.6534C167.613 98.6534 168.05 98.4568 168.399 98.0637C168.749 97.6705 169.033 97.2446 169.251 96.786L170.791 98.3585C169.721 99.4288 168.509 99.9639 167.154 99.9639C166.587 99.9639 166.03 99.8656 165.484 99.669C164.937 99.4724 164.446 99.1776 164.009 98.7844C163.594 98.3694 163.256 97.8453 162.994 97.2119C162.732 96.5785 162.6 95.8359 162.6 94.984V84.8933H159.75ZM175.312 83.5829V94.2305C175.312 94.6237 175.345 95.1697 175.41 95.8686C175.498 96.5457 175.727 97.2228 176.098 97.8999C176.47 98.5551 177.049 99.1339 177.835 99.6362C178.643 100.117 179.768 100.357 181.209 100.357C181.843 100.379 182.531 100.248 183.273 99.9639C184.038 99.7018 184.802 99.1885 185.567 98.4241L186.091 97.8999H186.222V99.9639H189.007V83.5829H186.222V93.7391C186.222 94.5909 186.102 95.3226 185.861 95.9341C185.621 96.5457 185.305 97.059 184.911 97.474C184.518 97.8671 184.06 98.162 183.535 98.3585C183.011 98.5551 182.465 98.6534 181.897 98.6534C180.98 98.6534 180.259 98.4787 179.735 98.1292C179.233 97.7579 178.85 97.332 178.588 96.8515C178.348 96.371 178.206 95.9014 178.162 95.4427C178.119 94.9622 178.097 94.6127 178.097 94.3943V83.5829H175.312ZM195.987 83.5829V99.9639H198.771V90.0697C198.771 89.1742 198.87 88.4207 199.066 87.8092C199.285 87.1758 199.558 86.6625 199.885 86.2694C200.213 85.8762 200.573 85.5923 200.967 85.4175C201.36 85.2428 201.742 85.1554 202.113 85.1554C202.616 85.1554 203.074 85.3193 203.489 85.6469C203.926 85.9745 204.243 86.2803 204.439 86.5642L205.553 84.533C205.357 84.2709 205.116 84.0525 204.832 83.8777C204.57 83.703 204.297 83.5719 204.013 83.4846C203.751 83.3754 203.5 83.3098 203.26 83.288C203.041 83.2443 202.878 83.2225 202.768 83.2225C201.851 83.2225 201.087 83.4737 200.475 83.976C199.864 84.4784 199.361 85.221 198.968 86.2038H198.771V83.5829H195.987ZM216.163 83.2225C217.757 83.2225 218.991 83.4518 219.865 83.9105C220.739 84.3473 221.372 84.9261 221.765 85.6469C222.18 86.3676 222.42 87.1976 222.486 88.1368C222.551 89.076 222.584 90.037 222.584 91.0198V99.9639H219.93V98.3585C219.297 98.9701 218.489 99.4615 217.506 99.8328C216.523 100.182 215.54 100.357 214.557 100.357C213.618 100.357 212.788 100.193 212.067 99.8656C211.347 99.538 210.746 99.1121 210.266 98.5879C209.785 98.0637 209.425 97.474 209.184 96.8187C208.944 96.1635 208.824 95.4973 208.824 94.8202C208.824 94.1213 208.955 93.4224 209.217 92.7235C209.479 92.0245 209.872 91.4021 210.397 90.856C210.921 90.2882 211.565 89.8295 212.33 89.48C213.094 89.1306 213.968 88.9558 214.951 88.9558C215.933 88.9558 216.862 89.1524 217.735 89.5456C218.631 89.9169 219.363 90.452 219.93 91.1509V89.7421C219.93 87.9511 219.657 86.6188 219.111 85.7452C218.587 84.8715 217.615 84.4347 216.196 84.4347C215.584 84.4347 215.049 84.5111 214.59 84.664C214.132 84.8169 213.717 85.0353 213.345 85.3193C212.996 85.5813 212.668 85.9199 212.362 86.3349C212.057 86.728 211.751 87.1758 211.445 87.6781L209.741 85.9745C210.047 85.6469 210.364 85.3193 210.691 84.9916C211.041 84.664 211.456 84.3692 211.936 84.1071C212.439 83.845 213.029 83.6375 213.706 83.4846C214.383 83.3098 215.202 83.2225 216.163 83.2225ZM219.93 93.477C219.821 93.2149 219.657 92.9091 219.439 92.5597C219.242 92.2102 218.98 91.8717 218.653 91.544C218.325 91.2164 217.932 90.9434 217.473 90.725C217.015 90.4847 216.469 90.3646 215.835 90.3646C215.202 90.3646 214.623 90.4956 214.099 90.7577C213.575 90.998 213.127 91.3256 212.756 91.7406C212.406 92.1337 212.133 92.6033 211.936 93.1494C211.74 93.6954 211.642 94.2633 211.642 94.853C211.642 95.5519 211.762 96.1635 212.002 96.6877C212.264 97.19 212.592 97.6268 212.985 97.9981C213.378 98.3476 213.815 98.6097 214.295 98.7844C214.776 98.9592 215.234 99.0465 215.671 99.0465C216.086 99.0465 216.501 98.9701 216.916 98.8172C217.353 98.6643 217.757 98.4568 218.128 98.1947C218.522 97.9108 218.871 97.5832 219.177 97.2119C219.483 96.8406 219.734 96.4365 219.93 95.9997V93.477ZM211.543 76.6373C211.543 77.2489 211.663 77.8277 211.904 78.3737C212.144 78.9197 212.482 79.4003 212.919 79.8152C213.356 80.2084 213.858 80.5251 214.426 80.7653C215.016 80.9837 215.66 81.093 216.359 81.093C217.036 81.093 217.67 80.9837 218.26 80.7653C218.849 80.5251 219.363 80.2084 219.799 79.8152C220.236 79.4003 220.575 78.9197 220.815 78.3737C221.055 77.8277 221.175 77.2489 221.175 76.6373H219.799C219.756 77.6202 219.395 78.4174 218.718 79.0289C218.063 79.6187 217.277 79.9135 216.359 79.9135C215.464 79.9135 214.678 79.6187 214 79.0289C213.345 78.4174 212.985 77.6202 212.919 76.6373H211.543Z" fill="#592424" fill-opacity="0.2"/>
</svg>
