<svg width="275" height="157" viewBox="0 0 275 157" fill="none" xmlns="http://www.w3.org/2000/svg">
<path fill-rule="evenodd" clip-rule="evenodd" d="M6.54615 154.489V156.671H89.6823V154.489H78.9902C75.0626 154.489 71.7167 153.907 68.9528 152.744C66.3343 151.58 64.3705 149.834 63.0613 147.507C61.752 145.179 61.0974 142.27 61.0974 138.778V123.969H39.0587V138.778C39.0587 142.27 38.4041 145.179 37.0949 147.507C35.7856 149.834 33.7491 151.58 30.9851 152.744C28.3667 153.907 25.0936 154.489 21.1659 154.489H6.54615ZM39.0587 83.3948H61.0974V0H49.7508L36.8767 13.5287C33.5308 17.02 30.185 19.8567 26.8392 22.0387C23.4934 24.0753 19.6385 25.6027 15.2744 26.621C11.0557 27.4938 5.96427 28.003 0 28.1485C0 31.6397 0.800086 34.4764 2.40026 36.6585C4.1459 38.8405 6.76436 39.9315 10.2556 39.9315C12.2922 39.9315 14.3288 39.3497 16.3654 38.1859C18.5474 37.0221 21.3841 34.6219 24.8754 30.9851C28.3667 27.3484 33.0944 21.8205 39.0587 14.4015V83.3948Z" fill="black"/>
<path d="M57.2877 108.126L60.9505 115.986H64.6514L52.2132 89.2777H50.3054L39.0118 115.986H40.7669L44.1245 108.126H57.2877ZM56.4864 106.409H44.8494L50.3436 93.5509H50.4962L56.4864 106.409ZM71.5353 96.9085V115.986H74.7784V104.463C74.7784 103.42 74.8928 102.543 75.1218 101.83C75.3761 101.093 75.6941 100.495 76.0756 100.037C76.4571 99.5793 76.8768 99.2486 77.3347 99.0451C77.7925 98.8417 78.2377 98.7399 78.6701 98.7399C79.2551 98.7399 79.7893 98.9307 80.2726 99.3122C80.7813 99.6938 81.1501 100.05 81.379 100.381L82.6763 98.015C82.4474 97.7097 82.1676 97.4554 81.8369 97.2519C81.5317 97.0484 81.2137 96.8958 80.883 96.794C80.5778 96.6669 80.2853 96.5906 80.0055 96.5651C79.7511 96.5143 79.5604 96.4888 79.4332 96.4888C78.3649 96.4888 77.4746 96.7813 76.7624 97.3664C76.0502 97.9514 75.4651 98.8162 75.0073 99.9608H74.7784V96.9085H71.5353ZM88.7747 89.2777V115.986H92.0178V104.959C92.0178 104.45 92.0559 103.827 92.1323 103.089C92.2086 102.352 92.412 101.64 92.7427 100.953C93.0988 100.266 93.6203 99.681 94.307 99.1978C94.9938 98.689 95.9477 98.4347 97.1686 98.4347C98.0334 98.4347 98.7202 98.6 99.2289 98.9307C99.7631 99.2359 100.17 99.6556 100.45 100.19C100.73 100.724 100.908 101.347 100.984 102.059C101.086 102.772 101.137 103.509 101.137 104.272V115.986H104.38V103.395C104.38 101.97 104.176 100.813 103.769 99.9227C103.362 99.007 102.854 98.2948 102.243 97.7861C101.633 97.2773 100.959 96.9339 100.221 96.7559C99.5087 96.5778 98.8219 96.4888 98.1606 96.4888C97.2703 96.4888 96.3292 96.6669 95.3372 97.023C94.3706 97.3536 93.4549 98.0023 92.5901 98.9688L92.1704 99.503H92.0178V89.2777H88.7747ZM114.389 96.9085V115.986H117.632V96.9085H114.389ZM113.931 90.8802C113.931 91.4397 114.135 91.923 114.542 92.33C114.949 92.737 115.432 92.9405 115.991 92.9405C116.551 92.9405 117.034 92.737 117.441 92.33C117.848 91.923 118.052 91.4397 118.052 90.8802C118.052 90.3206 117.848 89.8373 117.441 89.4303C117.034 89.0233 116.551 88.8198 115.991 88.8198C115.432 88.8198 114.949 89.0233 114.542 89.4303C114.135 89.8373 113.931 90.3206 113.931 90.8802ZM125.668 98.4347V96.9085H128.987V91.0328H132.23V96.9085H136.847V98.4347H132.23V111.102C132.23 111.407 132.243 111.763 132.269 112.17C132.294 112.552 132.37 112.921 132.498 113.277C132.625 113.607 132.816 113.887 133.07 114.116C133.35 114.345 133.731 114.459 134.215 114.459C134.825 114.459 135.334 114.231 135.741 113.773C136.148 113.315 136.478 112.819 136.733 112.285L138.526 114.116C137.28 115.362 135.868 115.986 134.291 115.986C133.629 115.986 132.981 115.871 132.345 115.642C131.709 115.413 131.137 115.07 130.628 114.612C130.145 114.129 129.75 113.518 129.445 112.781C129.14 112.043 128.987 111.178 128.987 110.186V98.4347H125.668ZM161.495 107.286V106.485C161.495 104.781 161.253 103.306 160.77 102.059C160.287 100.813 159.625 99.7828 158.786 98.9688C157.972 98.1549 157.018 97.5444 155.924 97.1374C154.83 96.7305 153.673 96.527 152.452 96.527C151.155 96.527 149.959 96.7559 148.866 97.2137C147.772 97.6462 146.818 98.2948 146.004 99.1596C145.19 99.999 144.554 101.029 144.096 102.25C143.639 103.446 143.41 104.806 143.41 106.333C143.41 107.604 143.6 108.851 143.982 110.072C144.389 111.267 144.987 112.348 145.775 113.315C146.589 114.256 147.607 115.019 148.828 115.604C150.074 116.164 151.536 116.443 153.215 116.443C154.843 116.443 156.344 116.164 157.717 115.604C159.091 115.019 160.287 114.192 161.304 113.124L160.083 111.903C159.549 112.361 159.04 112.781 158.557 113.162C158.099 113.544 157.628 113.862 157.145 114.116C156.662 114.37 156.153 114.574 155.619 114.727C155.11 114.854 154.538 114.917 153.902 114.917C153.19 114.917 152.427 114.816 151.613 114.612C150.824 114.383 150.087 113.989 149.4 113.429C148.713 112.87 148.141 112.094 147.683 111.102C147.225 110.11 146.996 108.838 146.996 107.286H161.495ZM146.996 105.76C146.996 104.743 147.098 103.764 147.301 102.822C147.53 101.856 147.861 101.004 148.293 100.266C148.751 99.5284 149.324 98.9434 150.01 98.511C150.697 98.0531 151.511 97.8242 152.452 97.8242C154.258 97.8242 155.657 98.5364 156.649 99.9608C157.667 101.36 158.175 103.293 158.175 105.76H146.996ZM178.711 114.459C177.795 114.459 176.905 114.32 176.04 114.04C175.2 113.76 174.45 113.315 173.789 112.704C173.127 112.068 172.593 111.242 172.186 110.224C171.805 109.181 171.614 107.91 171.614 106.409C171.614 104.857 171.83 103.547 172.263 102.479C172.695 101.385 173.229 100.52 173.865 99.8845C174.526 99.2232 175.251 98.7526 176.04 98.4728C176.828 98.1676 177.579 98.015 178.291 98.015C179.461 98.015 180.478 98.3202 181.343 98.9307C182.208 99.5411 182.78 100.292 183.06 101.182H185.693C185.438 100.266 185.031 99.5157 184.472 98.9307C183.912 98.3202 183.264 97.8369 182.526 97.4808C181.814 97.0993 181.038 96.8449 180.199 96.7177C179.385 96.5651 178.596 96.4888 177.833 96.4888C176.231 96.4888 174.819 96.7559 173.598 97.2901C172.377 97.7988 171.347 98.4983 170.507 99.3885C169.668 100.279 169.032 101.322 168.6 102.517C168.193 103.713 167.989 104.984 167.989 106.333C167.989 107.757 168.218 109.092 168.676 110.339C169.134 111.56 169.783 112.628 170.622 113.544C171.487 114.434 172.517 115.146 173.712 115.68C174.908 116.189 176.256 116.443 177.757 116.443C179.436 116.443 180.898 116.164 182.144 115.604C183.416 115.044 184.485 114.434 185.349 113.773L184.243 112.323C183.353 113.06 182.462 113.607 181.572 113.963C180.707 114.294 179.753 114.459 178.711 114.459ZM190.651 98.4347V96.9085H193.97V91.0328H197.213V96.9085H201.83V98.4347H197.213V111.102C197.213 111.407 197.226 111.763 197.251 112.17C197.277 112.552 197.353 112.921 197.48 113.277C197.608 113.607 197.798 113.887 198.053 114.116C198.332 114.345 198.714 114.459 199.197 114.459C199.808 114.459 200.316 114.231 200.723 113.773C201.13 113.315 201.461 112.819 201.715 112.285L203.509 114.116C202.262 115.362 200.851 115.986 199.274 115.986C198.612 115.986 197.964 115.871 197.328 115.642C196.692 115.413 196.12 115.07 195.611 114.612C195.128 114.129 194.733 113.518 194.428 112.781C194.123 112.043 193.97 111.178 193.97 110.186V98.4347H190.651ZM209.537 96.9085V109.309C209.537 109.766 209.575 110.402 209.652 111.216C209.753 112.005 210.02 112.793 210.453 113.582C210.885 114.345 211.559 115.019 212.475 115.604C213.416 116.164 214.726 116.443 216.405 116.443C217.142 116.469 217.944 116.316 218.809 115.986C219.699 115.68 220.589 115.083 221.479 114.192L222.09 113.582H222.242V115.986H225.486V96.9085H222.242V108.736C222.242 109.728 222.103 110.58 221.823 111.293C221.543 112.005 221.174 112.603 220.716 113.086C220.258 113.544 219.724 113.887 219.114 114.116C218.503 114.345 217.867 114.459 217.206 114.459C216.138 114.459 215.298 114.256 214.688 113.849C214.103 113.417 213.658 112.921 213.353 112.361C213.073 111.801 212.907 111.254 212.857 110.72C212.806 110.161 212.78 109.754 212.78 109.499V96.9085H209.537ZM234.378 96.9085V115.986H237.621V104.463C237.621 103.42 237.735 102.543 237.964 101.83C238.218 101.093 238.536 100.495 238.918 100.037C239.299 99.5793 239.719 99.2486 240.177 99.0451C240.635 98.8417 241.08 98.7399 241.512 98.7399C242.097 98.7399 242.632 98.9307 243.115 99.3122C243.624 99.6938 243.992 100.05 244.221 100.381L245.519 98.015C245.29 97.7097 245.01 97.4554 244.679 97.2519C244.374 97.0484 244.056 96.8958 243.725 96.794C243.42 96.6669 243.128 96.5906 242.848 96.5651C242.593 96.5143 242.403 96.4888 242.275 96.4888C241.207 96.4888 240.317 96.7813 239.605 97.3664C238.892 97.9514 238.307 98.8162 237.85 99.9608H237.621V96.9085H234.378ZM258.637 96.4888C260.494 96.4888 261.931 96.7559 262.949 97.2901C263.966 97.7988 264.704 98.4728 265.162 99.3122C265.645 100.152 265.925 101.118 266.001 102.212C266.077 103.306 266.116 104.425 266.116 105.57V115.986H263.025V114.116C262.287 114.828 261.346 115.401 260.202 115.833C259.057 116.24 257.912 116.443 256.768 116.443C255.674 116.443 254.707 116.253 253.868 115.871C253.029 115.49 252.329 114.994 251.77 114.383C251.21 113.773 250.79 113.086 250.51 112.323C250.231 111.56 250.091 110.784 250.091 109.995C250.091 109.181 250.243 108.367 250.549 107.554C250.854 106.74 251.312 106.015 251.922 105.379C252.533 104.717 253.283 104.183 254.173 103.776C255.064 103.369 256.081 103.166 257.226 103.166C258.37 103.166 259.451 103.395 260.469 103.853C261.512 104.285 262.364 104.908 263.025 105.722V104.081C263.025 101.996 262.707 100.444 262.071 99.4267C261.461 98.4092 260.329 97.9005 258.675 97.9005C257.963 97.9005 257.34 97.9895 256.806 98.1676C256.272 98.3457 255.788 98.6 255.356 98.9307C254.949 99.2359 254.568 99.6302 254.211 100.113C253.855 100.571 253.499 101.093 253.143 101.678L251.159 99.6938C251.515 99.3122 251.884 98.9307 252.266 98.5491C252.673 98.1676 253.156 97.8242 253.715 97.519C254.3 97.2137 254.987 96.9721 255.776 96.794C256.564 96.5906 257.518 96.4888 258.637 96.4888ZM263.025 108.431C262.898 108.126 262.707 107.77 262.453 107.363C262.224 106.956 261.919 106.562 261.537 106.18C261.156 105.798 260.698 105.48 260.164 105.226C259.629 104.946 258.993 104.806 258.256 104.806C257.518 104.806 256.844 104.959 256.234 105.264C255.623 105.544 255.102 105.926 254.669 106.409C254.262 106.867 253.944 107.414 253.715 108.05C253.487 108.685 253.372 109.347 253.372 110.034C253.372 110.848 253.512 111.56 253.792 112.17C254.097 112.755 254.479 113.264 254.936 113.696C255.394 114.103 255.903 114.409 256.463 114.612C257.022 114.816 257.556 114.917 258.065 114.917C258.548 114.917 259.032 114.828 259.515 114.65C260.024 114.472 260.494 114.231 260.927 113.925C261.384 113.595 261.791 113.213 262.148 112.781C262.504 112.348 262.796 111.878 263.025 111.369V108.431ZM253.258 88.8198C253.258 89.532 253.397 90.2061 253.677 90.842C253.957 91.4779 254.351 92.0375 254.86 92.5208C255.369 92.9786 255.954 93.3475 256.615 93.6273C257.302 93.8816 258.052 94.0088 258.866 94.0088C259.655 94.0088 260.392 93.8816 261.079 93.6273C261.766 93.3475 262.364 92.9786 262.872 92.5208C263.381 92.0375 263.775 91.4779 264.055 90.842C264.335 90.2061 264.475 89.532 264.475 88.8198H262.872C262.822 89.9645 262.402 90.8929 261.613 91.6051C260.85 92.2919 259.935 92.6352 258.866 92.6352C257.823 92.6352 256.908 92.2919 256.119 91.6051C255.356 90.8929 254.936 89.9645 254.86 88.8198H253.258Z" fill="black"/>
<path d="M57.2877 108.126L60.9505 115.986H64.6514L52.2132 89.2777H50.3054L39.0118 115.986H40.7669L44.1245 108.126H57.2877ZM56.4864 106.409H44.8494L50.3436 93.5509H50.4962L56.4864 106.409ZM71.5353 96.9085V115.986H74.7784V104.463C74.7784 103.42 74.8928 102.543 75.1218 101.83C75.3761 101.093 75.6941 100.495 76.0756 100.037C76.4571 99.5793 76.8768 99.2486 77.3347 99.0451C77.7925 98.8417 78.2377 98.7399 78.6701 98.7399C79.2551 98.7399 79.7893 98.9307 80.2726 99.3122C80.7813 99.6938 81.1501 100.05 81.379 100.381L82.6763 98.015C82.4474 97.7097 82.1676 97.4554 81.8369 97.2519C81.5317 97.0484 81.2137 96.8958 80.883 96.794C80.5778 96.6669 80.2853 96.5906 80.0055 96.5651C79.7511 96.5143 79.5604 96.4888 79.4332 96.4888C78.3649 96.4888 77.4746 96.7813 76.7624 97.3664C76.0502 97.9514 75.4651 98.8162 75.0073 99.9608H74.7784V96.9085H71.5353ZM88.7747 89.2777V115.986H92.0178V104.959C92.0178 104.45 92.0559 103.827 92.1323 103.089C92.2086 102.352 92.412 101.64 92.7427 100.953C93.0988 100.266 93.6203 99.681 94.307 99.1978C94.9938 98.689 95.9477 98.4347 97.1686 98.4347C98.0334 98.4347 98.7202 98.6 99.2289 98.9307C99.7631 99.2359 100.17 99.6556 100.45 100.19C100.73 100.724 100.908 101.347 100.984 102.059C101.086 102.772 101.137 103.509 101.137 104.272V115.986H104.38V103.395C104.38 101.97 104.176 100.813 103.769 99.9227C103.362 99.007 102.854 98.2948 102.243 97.7861C101.633 97.2773 100.959 96.9339 100.221 96.7559C99.5087 96.5778 98.8219 96.4888 98.1606 96.4888C97.2703 96.4888 96.3292 96.6669 95.3372 97.023C94.3706 97.3536 93.4549 98.0023 92.5901 98.9688L92.1704 99.503H92.0178V89.2777H88.7747ZM114.389 96.9085V115.986H117.632V96.9085H114.389ZM113.931 90.8802C113.931 91.4397 114.135 91.923 114.542 92.33C114.949 92.737 115.432 92.9405 115.991 92.9405C116.551 92.9405 117.034 92.737 117.441 92.33C117.848 91.923 118.052 91.4397 118.052 90.8802C118.052 90.3206 117.848 89.8373 117.441 89.4303C117.034 89.0233 116.551 88.8198 115.991 88.8198C115.432 88.8198 114.949 89.0233 114.542 89.4303C114.135 89.8373 113.931 90.3206 113.931 90.8802ZM125.668 98.4347V96.9085H128.987V91.0328H132.23V96.9085H136.847V98.4347H132.23V111.102C132.23 111.407 132.243 111.763 132.269 112.17C132.294 112.552 132.37 112.921 132.498 113.277C132.625 113.607 132.816 113.887 133.07 114.116C133.35 114.345 133.731 114.459 134.215 114.459C134.825 114.459 135.334 114.231 135.741 113.773C136.148 113.315 136.478 112.819 136.733 112.285L138.526 114.116C137.28 115.362 135.868 115.986 134.291 115.986C133.629 115.986 132.981 115.871 132.345 115.642C131.709 115.413 131.137 115.07 130.628 114.612C130.145 114.129 129.75 113.518 129.445 112.781C129.14 112.043 128.987 111.178 128.987 110.186V98.4347H125.668ZM161.495 107.286V106.485C161.495 104.781 161.253 103.306 160.77 102.059C160.287 100.813 159.625 99.7828 158.786 98.9688C157.972 98.1549 157.018 97.5444 155.924 97.1374C154.83 96.7305 153.673 96.527 152.452 96.527C151.155 96.527 149.959 96.7559 148.866 97.2137C147.772 97.6462 146.818 98.2948 146.004 99.1596C145.19 99.999 144.554 101.029 144.096 102.25C143.639 103.446 143.41 104.806 143.41 106.333C143.41 107.604 143.6 108.851 143.982 110.072C144.389 111.267 144.987 112.348 145.775 113.315C146.589 114.256 147.607 115.019 148.828 115.604C150.074 116.164 151.536 116.443 153.215 116.443C154.843 116.443 156.344 116.164 157.717 115.604C159.091 115.019 160.287 114.192 161.304 113.124L160.083 111.903C159.549 112.361 159.04 112.781 158.557 113.162C158.099 113.544 157.628 113.862 157.145 114.116C156.662 114.37 156.153 114.574 155.619 114.727C155.11 114.854 154.538 114.917 153.902 114.917C153.19 114.917 152.427 114.816 151.613 114.612C150.824 114.383 150.087 113.989 149.4 113.429C148.713 112.87 148.141 112.094 147.683 111.102C147.225 110.11 146.996 108.838 146.996 107.286H161.495ZM146.996 105.76C146.996 104.743 147.098 103.764 147.301 102.822C147.53 101.856 147.861 101.004 148.293 100.266C148.751 99.5284 149.324 98.9434 150.01 98.511C150.697 98.0531 151.511 97.8242 152.452 97.8242C154.258 97.8242 155.657 98.5364 156.649 99.9608C157.667 101.36 158.175 103.293 158.175 105.76H146.996ZM178.711 114.459C177.795 114.459 176.905 114.32 176.04 114.04C175.2 113.76 174.45 113.315 173.789 112.704C173.127 112.068 172.593 111.242 172.186 110.224C171.805 109.181 171.614 107.91 171.614 106.409C171.614 104.857 171.83 103.547 172.263 102.479C172.695 101.385 173.229 100.52 173.865 99.8845C174.526 99.2232 175.251 98.7526 176.04 98.4728C176.828 98.1676 177.579 98.015 178.291 98.015C179.461 98.015 180.478 98.3202 181.343 98.9307C182.208 99.5411 182.78 100.292 183.06 101.182H185.693C185.438 100.266 185.031 99.5157 184.472 98.9307C183.912 98.3202 183.264 97.8369 182.526 97.4808C181.814 97.0993 181.038 96.8449 180.199 96.7177C179.385 96.5651 178.596 96.4888 177.833 96.4888C176.231 96.4888 174.819 96.7559 173.598 97.2901C172.377 97.7988 171.347 98.4983 170.507 99.3885C169.668 100.279 169.032 101.322 168.6 102.517C168.193 103.713 167.989 104.984 167.989 106.333C167.989 107.757 168.218 109.092 168.676 110.339C169.134 111.56 169.783 112.628 170.622 113.544C171.487 114.434 172.517 115.146 173.712 115.68C174.908 116.189 176.256 116.443 177.757 116.443C179.436 116.443 180.898 116.164 182.144 115.604C183.416 115.044 184.485 114.434 185.349 113.773L184.243 112.323C183.353 113.06 182.462 113.607 181.572 113.963C180.707 114.294 179.753 114.459 178.711 114.459ZM190.651 98.4347V96.9085H193.97V91.0328H197.213V96.9085H201.83V98.4347H197.213V111.102C197.213 111.407 197.226 111.763 197.251 112.17C197.277 112.552 197.353 112.921 197.48 113.277C197.608 113.607 197.798 113.887 198.053 114.116C198.332 114.345 198.714 114.459 199.197 114.459C199.808 114.459 200.316 114.231 200.723 113.773C201.13 113.315 201.461 112.819 201.715 112.285L203.509 114.116C202.262 115.362 200.851 115.986 199.274 115.986C198.612 115.986 197.964 115.871 197.328 115.642C196.692 115.413 196.12 115.07 195.611 114.612C195.128 114.129 194.733 113.518 194.428 112.781C194.123 112.043 193.97 111.178 193.97 110.186V98.4347H190.651ZM209.537 96.9085V109.309C209.537 109.766 209.575 110.402 209.652 111.216C209.753 112.005 210.02 112.793 210.453 113.582C210.885 114.345 211.559 115.019 212.475 115.604C213.416 116.164 214.726 116.443 216.405 116.443C217.142 116.469 217.944 116.316 218.809 115.986C219.699 115.68 220.589 115.083 221.479 114.192L222.09 113.582H222.242V115.986H225.486V96.9085H222.242V108.736C222.242 109.728 222.103 110.58 221.823 111.293C221.543 112.005 221.174 112.603 220.716 113.086C220.258 113.544 219.724 113.887 219.114 114.116C218.503 114.345 217.867 114.459 217.206 114.459C216.138 114.459 215.298 114.256 214.688 113.849C214.103 113.417 213.658 112.921 213.353 112.361C213.073 111.801 212.907 111.254 212.857 110.72C212.806 110.161 212.78 109.754 212.78 109.499V96.9085H209.537ZM234.378 96.9085V115.986H237.621V104.463C237.621 103.42 237.735 102.543 237.964 101.83C238.218 101.093 238.536 100.495 238.918 100.037C239.299 99.5793 239.719 99.2486 240.177 99.0451C240.635 98.8417 241.08 98.7399 241.512 98.7399C242.097 98.7399 242.632 98.9307 243.115 99.3122C243.624 99.6938 243.992 100.05 244.221 100.381L245.519 98.015C245.29 97.7097 245.01 97.4554 244.679 97.2519C244.374 97.0484 244.056 96.8958 243.725 96.794C243.42 96.6669 243.128 96.5906 242.848 96.5651C242.593 96.5143 242.403 96.4888 242.275 96.4888C241.207 96.4888 240.317 96.7813 239.605 97.3664C238.892 97.9514 238.307 98.8162 237.85 99.9608H237.621V96.9085H234.378ZM258.637 96.4888C260.494 96.4888 261.931 96.7559 262.949 97.2901C263.966 97.7988 264.704 98.4728 265.162 99.3122C265.645 100.152 265.925 101.118 266.001 102.212C266.077 103.306 266.116 104.425 266.116 105.57V115.986H263.025V114.116C262.287 114.828 261.346 115.401 260.202 115.833C259.057 116.24 257.912 116.443 256.768 116.443C255.674 116.443 254.707 116.253 253.868 115.871C253.029 115.49 252.329 114.994 251.77 114.383C251.21 113.773 250.79 113.086 250.51 112.323C250.231 111.56 250.091 110.784 250.091 109.995C250.091 109.181 250.243 108.367 250.549 107.554C250.854 106.74 251.312 106.015 251.922 105.379C252.533 104.717 253.283 104.183 254.173 103.776C255.064 103.369 256.081 103.166 257.226 103.166C258.37 103.166 259.451 103.395 260.469 103.853C261.512 104.285 262.364 104.908 263.025 105.722V104.081C263.025 101.996 262.707 100.444 262.071 99.4267C261.461 98.4092 260.329 97.9005 258.675 97.9005C257.963 97.9005 257.34 97.9895 256.806 98.1676C256.272 98.3457 255.788 98.6 255.356 98.9307C254.949 99.2359 254.568 99.6302 254.211 100.113C253.855 100.571 253.499 101.093 253.143 101.678L251.159 99.6938C251.515 99.3122 251.884 98.9307 252.266 98.5491C252.673 98.1676 253.156 97.8242 253.715 97.519C254.3 97.2137 254.987 96.9721 255.776 96.794C256.564 96.5906 257.518 96.4888 258.637 96.4888ZM263.025 108.431C262.898 108.126 262.707 107.77 262.453 107.363C262.224 106.956 261.919 106.562 261.537 106.18C261.156 105.798 260.698 105.48 260.164 105.226C259.629 104.946 258.993 104.806 258.256 104.806C257.518 104.806 256.844 104.959 256.234 105.264C255.623 105.544 255.102 105.926 254.669 106.409C254.262 106.867 253.944 107.414 253.715 108.05C253.487 108.685 253.372 109.347 253.372 110.034C253.372 110.848 253.512 111.56 253.792 112.17C254.097 112.755 254.479 113.264 254.936 113.696C255.394 114.103 255.903 114.409 256.463 114.612C257.022 114.816 257.556 114.917 258.065 114.917C258.548 114.917 259.032 114.828 259.515 114.65C260.024 114.472 260.494 114.231 260.927 113.925C261.384 113.595 261.791 113.213 262.148 112.781C262.504 112.348 262.796 111.878 263.025 111.369V108.431ZM253.258 88.8198C253.258 89.532 253.397 90.2061 253.677 90.842C253.957 91.4779 254.351 92.0375 254.86 92.5208C255.369 92.9786 255.954 93.3475 256.615 93.6273C257.302 93.8816 258.052 94.0088 258.866 94.0088C259.655 94.0088 260.392 93.8816 261.079 93.6273C261.766 93.3475 262.364 92.9786 262.872 92.5208C263.381 92.0375 263.775 91.4779 264.055 90.842C264.335 90.2061 264.475 89.532 264.475 88.8198H262.872C262.822 89.9645 262.402 90.8929 261.613 91.6051C260.85 92.2919 259.935 92.6352 258.866 92.6352C257.823 92.6352 256.908 92.2919 256.119 91.6051C255.356 90.8929 254.936 89.9645 254.86 88.8198H253.258Z" fill="#592424" fill-opacity="0.2"/>
</svg>
