<svg width="281" height="136" viewBox="0 0 281 136" fill="none" xmlns="http://www.w3.org/2000/svg">
<path fill-rule="evenodd" clip-rule="evenodd" d="M0 121.686V135.331H80.1891L81.3106 102.993H79.4414L79.2545 105.423C78.756 111.156 77.323 115.081 74.9553 117.199C72.5876 119.318 68.4131 120.377 62.4316 120.377H3.5515L27.3684 98.3509H21.5511L0 121.686ZM50.2217 62.9251H62.6742C66.2611 58.5905 69.0464 54.6876 71.03 51.2163C73.1484 47.6025 74.5815 44.3003 75.3291 41.3095C76.2014 38.1942 76.6376 35.0788 76.6376 31.9635C76.6376 25.3589 75.1422 19.689 72.1515 14.9537C69.2854 10.2183 64.9862 6.54223 59.2539 3.92535C53.5217 1.30845 46.5433 0 38.3188 0C30.7173 0 24.1751 1.05922 18.6921 3.17766C13.3337 5.29609 9.22143 8.22452 6.35531 11.9629C3.48919 15.5767 2.05613 19.689 2.05613 24.2997C2.05613 27.6643 2.74151 30.2812 4.11226 32.1504C5.60763 34.0196 7.53914 35.3281 9.90681 36.0757C12.3991 36.8234 15.1406 37.1973 18.1313 37.1973C18.1313 28.7235 18.7544 21.9321 20.0005 16.8229C21.3713 11.5891 23.4897 7.78837 26.3558 5.4207C29.3466 3.05304 33.2719 1.86921 38.1319 1.86921C42.7426 1.86921 46.481 2.92843 49.3471 5.04687C52.2132 7.04069 54.3317 10.343 55.7024 14.9537C57.0732 19.5644 57.7586 25.6082 57.7586 33.085C57.7586 37.945 57.3224 42.5557 56.4501 46.9172C55.5778 51.154 54.0201 55.5155 51.7771 60.0016C51.2984 60.9591 50.7799 61.9336 50.2217 62.9251Z" fill="black"/>
<path d="M30.6421 91.9767V69.4945H38.0291C39.8062 69.4945 41.4335 69.7836 42.9109 70.3617C44.3883 70.9184 45.6516 71.6999 46.7007 72.7063C47.7713 73.6912 48.5957 74.8688 49.1738 76.2392C49.7733 77.6095 50.0731 79.0869 50.0731 80.6714C50.0731 82.3201 49.7626 83.8403 49.1417 85.232C48.5421 86.6024 47.7071 87.7907 46.6365 88.7971C45.5873 89.8034 44.3562 90.5849 42.943 91.1416C41.5298 91.6983 40.0203 91.9767 38.4145 91.9767H30.6421ZM33.5647 90.5635H37.0977C38.8534 90.5635 40.3415 90.2745 41.562 89.6964C42.8038 89.0968 43.8209 88.326 44.6131 87.3839C45.4053 86.4418 45.9835 85.3926 46.3475 84.2364C46.7115 83.0588 46.8935 81.8918 46.8935 80.7356C46.8935 79.4509 46.6793 78.2197 46.2511 77.0421C45.8229 75.8431 45.1912 74.7939 44.3562 73.8946C43.5425 72.9739 42.5255 72.2459 41.305 71.7106C40.0846 71.1753 38.6821 70.9077 37.0977 70.9077H33.5647V90.5635ZM69.4607 84.6539V83.9795C69.4607 82.5449 69.2573 81.303 68.8504 80.2538C68.4436 79.2047 67.8869 78.3375 67.1803 77.6523C66.4952 76.9672 65.6922 76.4533 64.7715 76.1107C63.8508 75.7681 62.8766 75.5968 61.8489 75.5968C60.7569 75.5968 59.7505 75.7895 58.8298 76.1749C57.9091 76.5389 57.1062 77.0849 56.421 77.8129C55.7358 78.5195 55.2006 79.3867 54.8152 80.4144C54.4297 81.4208 54.237 82.5663 54.237 83.851C54.237 84.9216 54.3976 85.9707 54.7188 86.9985C55.0614 88.0048 55.5646 88.9148 56.2283 89.7285C56.9135 90.5207 57.7699 91.163 58.7977 91.6555C59.8469 92.1266 61.078 92.3621 62.4912 92.3621C63.8615 92.3621 65.1248 92.1266 66.2811 91.6555C67.4373 91.163 68.4436 90.4672 69.3001 89.5679L68.2723 88.5401C67.8227 88.9255 67.3945 89.2788 66.9876 89.6C66.6022 89.9212 66.2061 90.1888 65.7993 90.4029C65.3925 90.617 64.9642 90.7883 64.5146 90.9168C64.0864 91.0239 63.6046 91.0774 63.0693 91.0774C62.4698 91.0774 61.8274 90.9918 61.1423 90.8205C60.4785 90.6278 59.8576 90.2959 59.2795 89.8248C58.7014 89.3538 58.2196 88.7007 57.8342 87.8657C57.4488 87.0306 57.2561 85.96 57.2561 84.6539H69.4607ZM57.2561 83.3692C57.2561 82.5128 57.3417 81.6884 57.513 80.8962C57.7057 80.0825 57.9841 79.3653 58.3481 78.7443C58.7335 78.1234 59.2152 77.6309 59.7933 77.2669C60.3715 76.8815 61.0566 76.6888 61.8489 76.6888C63.3691 76.6888 64.5467 77.2883 65.3818 78.4874C66.2382 79.665 66.6665 81.2923 66.6665 83.3692H57.2561ZM85.4943 79.5794C85.4943 79.0013 85.3444 78.466 85.0446 77.9735C84.7449 77.481 84.3273 77.0635 83.792 76.7209C83.2782 76.3569 82.6679 76.0786 81.9614 75.8859C81.2762 75.6718 80.5375 75.5647 79.7453 75.5647C78.9959 75.5647 78.2893 75.6611 77.6255 75.8538C76.9832 76.0465 76.4158 76.3355 75.9233 76.7209C75.4522 77.1063 75.0775 77.5881 74.7992 78.1662C74.5208 78.7229 74.3817 79.376 74.3817 80.1254C74.3817 81.1531 74.6172 81.9668 75.0882 82.5663C75.5593 83.1658 76.1481 83.6476 76.8547 84.0116C77.5613 84.3756 78.3214 84.6753 79.135 84.9109C79.9701 85.125 80.7409 85.3712 81.4475 85.6496C82.1541 85.9065 82.7429 86.2384 83.2139 86.6452C83.685 87.052 83.9205 87.6087 83.9205 88.3153C83.9205 88.6151 83.867 88.9255 83.7599 89.2467C83.6743 89.5679 83.503 89.8676 83.2461 90.146C82.9891 90.4029 82.6358 90.6278 82.1862 90.8205C81.7365 90.9918 81.1691 91.0774 80.484 91.0774C79.6275 91.0774 78.8995 90.9489 78.3 90.692C77.7219 90.4136 77.2401 90.0925 76.8547 89.7285C76.4907 89.3431 76.2231 88.9577 76.0518 88.5722C75.9019 88.1868 75.8269 87.8657 75.8269 87.6087H73.7393C73.7393 88.2082 73.8785 88.7971 74.1568 89.3752C74.4352 89.9319 74.8527 90.4351 75.4094 90.8847C75.9875 91.3343 76.6834 91.6983 77.497 91.9767C78.3321 92.2336 79.2956 92.3621 80.3876 92.3621C82.3575 92.3621 83.8349 91.9339 84.8198 91.0774C85.8261 90.1995 86.3293 89.054 86.3293 87.6408C86.3293 86.6131 86.0831 85.7887 85.5906 85.1678C85.1196 84.5469 84.52 84.0544 83.792 83.6904C83.0641 83.305 82.2718 82.9945 81.4154 82.759C80.5803 82.5235 79.7988 82.2772 79.0708 82.0203C78.3428 81.7634 77.7326 81.4529 77.2401 81.0889C76.769 80.7249 76.5335 80.211 76.5335 79.5473C76.5335 79.2689 76.5871 78.9799 76.6941 78.6801C76.8012 78.3589 76.9832 78.0699 77.2401 77.8129C77.497 77.5346 77.8396 77.3097 78.2679 77.1385C78.6961 76.9458 79.2314 76.8494 79.8737 76.8494C80.5161 76.8494 81.0728 76.9458 81.5438 77.1385C82.0149 77.3097 82.411 77.5346 82.7322 77.8129C83.0533 78.0699 83.2889 78.3589 83.4388 78.6801C83.5886 79.0013 83.6636 79.301 83.6636 79.5794H85.4943ZM93.3138 75.918V91.9767H96.0438V75.918H93.3138ZM92.9284 70.8434C92.9284 71.3145 93.0997 71.7213 93.4423 72.0639C93.7849 72.4065 94.1917 72.5778 94.6628 72.5778C95.1338 72.5778 95.5407 72.4065 95.8832 72.0639C96.2258 71.7213 96.3971 71.3145 96.3971 70.8434C96.3971 70.3724 96.2258 69.9656 95.8832 69.623C95.5407 69.2804 95.1338 69.1091 94.6628 69.1091C94.1917 69.1091 93.7849 69.2804 93.4423 69.623C93.0997 69.9656 92.9284 70.3724 92.9284 70.8434ZM115.238 93.3256C115.238 94.3105 115.12 95.1456 114.884 95.8308C114.649 96.5159 114.317 97.0726 113.889 97.5009C113.482 97.9291 112.99 98.2396 112.411 98.4323C111.855 98.625 111.255 98.7213 110.613 98.7213C109.478 98.7213 108.557 98.4323 107.851 97.8542C107.166 97.2761 106.534 96.5052 105.956 95.5417L104.189 97.1476C104.339 97.3403 104.575 97.5865 104.896 97.8863C105.217 98.2075 105.624 98.5179 106.116 98.8177C106.609 99.1389 107.198 99.4065 107.883 99.6206C108.568 99.8561 109.35 99.9739 110.227 99.9739C111.855 99.9739 113.172 99.7384 114.178 99.2673C115.184 98.8177 115.966 98.2075 116.522 97.4366C117.079 96.6658 117.454 95.7772 117.647 94.7709C117.861 93.786 117.968 92.7582 117.968 91.6876V75.918H115.238V78.4232H115.109C114.852 77.5239 114.296 76.828 113.439 76.3355C112.604 75.8216 111.501 75.5647 110.131 75.5647C109.039 75.5647 108.043 75.7681 107.144 76.1749C106.245 76.5603 105.474 77.117 104.832 77.845C104.189 78.573 103.686 79.4509 103.322 80.4787C102.98 81.5064 102.808 82.6519 102.808 83.9152C102.808 85.1999 102.98 86.3668 103.322 87.416C103.686 88.4438 104.189 89.3324 104.832 90.0818C105.474 90.8098 106.234 91.3772 107.112 91.784C108.011 92.1694 109.007 92.3621 110.099 92.3621C111.298 92.3621 112.336 92.1266 113.214 91.6555C114.114 91.1845 114.745 90.4351 115.109 89.4073H115.238V93.3256ZM115.238 85.1357C115.238 86.035 115.109 86.8272 114.852 87.5124C114.617 88.1975 114.296 88.7757 113.889 89.2467C113.482 89.7178 113.011 90.0818 112.476 90.3387C111.94 90.5742 111.384 90.692 110.806 90.692C110.292 90.692 109.735 90.6063 109.135 90.4351C108.557 90.2423 108.011 89.8998 107.497 89.4073C107.005 88.9148 106.587 88.219 106.245 87.3197C105.924 86.4204 105.763 85.2642 105.763 83.851C105.763 82.3522 105.967 81.1638 106.373 80.286C106.78 79.3867 107.251 78.7015 107.786 78.2304C108.343 77.7594 108.9 77.4596 109.457 77.3312C110.035 77.1813 110.484 77.1063 110.806 77.1063C111.512 77.1063 112.144 77.2669 112.7 77.5881C113.257 77.8879 113.718 78.3054 114.082 78.8407C114.467 79.3546 114.756 79.9541 114.949 80.6392C115.141 81.3244 115.238 82.031 115.238 82.759V85.1357ZM138.123 91.9767V81.5707C138.123 81.1852 138.091 80.6607 138.027 79.9969C137.963 79.3117 137.749 78.648 137.385 78.0056C137.042 77.3419 136.485 76.7745 135.715 76.3034C134.944 75.8109 133.852 75.5647 132.439 75.5647C131.818 75.5433 131.122 75.6718 130.351 75.9501C129.58 76.2071 128.82 76.7102 128.071 77.4596L127.557 77.9735H127.428V75.918H124.698V91.9767H127.428V82.0524C127.428 81.2174 127.546 80.5001 127.782 79.9005C128.017 79.301 128.338 78.7979 128.745 78.391C129.152 77.9842 129.612 77.6845 130.126 77.4917C130.661 77.299 131.207 77.2027 131.764 77.2027C132.663 77.2027 133.359 77.3847 133.852 77.7487C134.344 78.0913 134.698 78.4981 134.912 78.9691C135.147 79.4402 135.286 79.9113 135.329 80.3823C135.372 80.8534 135.393 81.196 135.393 81.4101V91.9767H138.123ZM158.828 75.918V91.9767H161.558V75.918H158.828ZM158.443 70.8434C158.443 71.3145 158.614 71.7213 158.957 72.0639C159.299 72.4065 159.706 72.5778 160.177 72.5778C160.648 72.5778 161.055 72.4065 161.398 72.0639C161.74 71.7213 161.912 71.3145 161.912 70.8434C161.912 70.3724 161.74 69.9656 161.398 69.623C161.055 69.2804 160.648 69.1091 160.177 69.1091C159.706 69.1091 159.299 69.2804 158.957 69.623C158.614 69.9656 158.443 70.3724 158.443 70.8434ZM182.711 91.9767V81.5707C182.711 81.1852 182.679 80.6607 182.615 79.9969C182.551 79.3117 182.337 78.648 181.973 78.0056C181.63 77.3419 181.073 76.7745 180.303 76.3034C179.532 75.8109 178.44 75.5647 177.027 75.5647C176.406 75.5433 175.71 75.6718 174.939 75.9501C174.168 76.2071 173.408 76.7102 172.659 77.4596L172.145 77.9735H172.016V75.918H169.286V91.9767H172.016V82.0524C172.016 81.2174 172.134 80.5001 172.37 79.9005C172.605 79.301 172.926 78.7979 173.333 78.391C173.74 77.9842 174.2 77.6845 174.714 77.4917C175.249 77.299 175.795 77.2027 176.352 77.2027C177.251 77.2027 177.947 77.3847 178.44 77.7487C178.932 78.0913 179.285 78.4981 179.5 78.9691C179.735 79.4402 179.874 79.9113 179.917 80.3823C179.96 80.8534 179.981 81.196 179.981 81.4101V91.9767H182.711ZM187.948 77.2027V75.918H190.742V70.9719H193.472V75.918H197.359V77.2027H193.472V87.8657C193.472 88.1226 193.483 88.4224 193.505 88.7649C193.526 89.0861 193.59 89.3966 193.697 89.6964C193.804 89.9747 193.965 90.2102 194.179 90.4029C194.415 90.5956 194.736 90.692 195.142 90.692C195.656 90.692 196.085 90.4993 196.427 90.1139C196.77 89.7285 197.048 89.3109 197.262 88.8613L198.772 90.4029C197.723 91.4521 196.534 91.9767 195.207 91.9767C194.65 91.9767 194.104 91.8803 193.569 91.6876C193.033 91.4949 192.552 91.2059 192.123 90.8205C191.717 90.4136 191.385 89.8998 191.128 89.2788C190.871 88.6579 190.742 87.9299 190.742 87.0948V77.2027H187.948ZM217.464 84.6539V83.9795C217.464 82.5449 217.261 81.303 216.854 80.2538C216.447 79.2047 215.89 78.3375 215.184 77.6523C214.499 76.9672 213.696 76.4533 212.775 76.1107C211.854 75.7681 210.88 75.5968 209.852 75.5968C208.76 75.5968 207.754 75.7895 206.833 76.1749C205.913 76.5389 205.11 77.0849 204.424 77.8129C203.739 78.5195 203.204 79.3867 202.819 80.4144C202.433 81.4208 202.24 82.5663 202.24 83.851C202.24 84.9216 202.401 85.9707 202.722 86.9985C203.065 88.0048 203.568 88.9148 204.232 89.7285C204.917 90.5207 205.773 91.163 206.801 91.6555C207.85 92.1266 209.081 92.3621 210.495 92.3621C211.865 92.3621 213.128 92.1266 214.284 91.6555C215.441 91.163 216.447 90.4672 217.303 89.5679L216.276 88.5401C215.826 88.9255 215.398 89.2788 214.991 89.6C214.606 89.9212 214.21 90.1888 213.803 90.4029C213.396 90.617 212.968 90.7883 212.518 90.9168C212.09 91.0239 211.608 91.0774 211.073 91.0774C210.473 91.0774 209.831 90.9918 209.146 90.8205C208.482 90.6278 207.861 90.2959 207.283 89.8248C206.705 89.3538 206.223 88.7007 205.838 87.8657C205.452 87.0306 205.259 85.96 205.259 84.6539H217.464ZM205.259 83.3692C205.259 82.5128 205.345 81.6884 205.516 80.8962C205.709 80.0825 205.987 79.3653 206.351 78.7443C206.737 78.1234 207.219 77.6309 207.797 77.2669C208.375 76.8815 209.06 76.6888 209.852 76.6888C211.372 76.6888 212.55 77.2883 213.385 78.4874C214.242 79.665 214.67 81.2923 214.67 83.3692H205.259ZM223.252 75.918V91.9767H225.982V82.2772C225.982 81.3994 226.079 80.6607 226.271 80.0611C226.485 79.4402 226.753 78.937 227.074 78.5516C227.395 78.1662 227.749 77.8879 228.134 77.7166C228.519 77.5453 228.894 77.4596 229.258 77.4596C229.751 77.4596 230.2 77.6202 230.607 77.9414C231.035 78.2626 231.346 78.5623 231.539 78.8407L232.631 76.8494C232.438 76.5925 232.202 76.3783 231.924 76.2071C231.667 76.0358 231.399 75.9073 231.121 75.8216C230.864 75.7146 230.618 75.6504 230.382 75.6289C230.168 75.5861 230.008 75.5647 229.901 75.5647C229.001 75.5647 228.252 75.8109 227.652 76.3034C227.053 76.7959 226.56 77.5239 226.175 78.4874H225.982V75.918H223.252ZM238.149 75.918V91.9767H240.879V75.918H238.149ZM237.764 70.8434C237.764 71.3145 237.935 71.7213 238.278 72.0639C238.62 72.4065 239.027 72.5778 239.498 72.5778C239.969 72.5778 240.376 72.4065 240.719 72.0639C241.061 71.7213 241.233 71.3145 241.233 70.8434C241.233 70.3724 241.061 69.9656 240.719 69.623C240.376 69.2804 239.969 69.1091 239.498 69.1091C239.027 69.1091 238.62 69.2804 238.278 69.623C237.935 69.9656 237.764 70.3724 237.764 70.8434ZM264.281 83.9795C264.281 85.0929 264.088 86.1634 263.703 87.1912C263.317 88.1975 262.76 89.0861 262.032 89.8569C261.326 90.6278 260.459 91.238 259.431 91.6876C258.425 92.1373 257.29 92.3621 256.027 92.3621C254.742 92.3621 253.575 92.1373 252.526 91.6876C251.498 91.2166 250.62 90.5956 249.892 89.8248C249.186 89.054 248.629 88.1654 248.222 87.1591C247.837 86.1313 247.644 85.0714 247.644 83.9795C247.644 82.8661 247.837 81.8062 248.222 80.7998C248.629 79.7721 249.186 78.8728 249.892 78.102C250.62 77.3312 251.498 76.7209 252.526 76.2713C253.575 75.8002 254.742 75.5647 256.027 75.5647C257.29 75.5647 258.425 75.8002 259.431 76.2713C260.459 76.7209 261.326 77.3312 262.032 78.102C262.76 78.8728 263.317 79.7721 263.703 80.7998C264.088 81.8062 264.281 82.8661 264.281 83.9795ZM261.23 83.9795C261.23 82.4806 261.069 81.2709 260.748 80.3502C260.427 79.4081 260.009 78.6801 259.495 78.1662C258.981 77.6523 258.414 77.3097 257.793 77.1385C257.172 76.9458 256.573 76.8494 255.994 76.8494C255.416 76.8494 254.817 76.9458 254.196 77.1385C253.575 77.3097 252.997 77.6523 252.461 78.1662C251.948 78.6801 251.519 79.4081 251.177 80.3502C250.856 81.2709 250.695 82.4806 250.695 83.9795C250.695 85.4569 250.856 86.6666 251.177 87.6087C251.519 88.5294 251.948 89.2467 252.461 89.7606C252.997 90.2745 253.575 90.6278 254.196 90.8205C254.817 90.9918 255.416 91.0774 255.994 91.0774C256.573 91.0774 257.172 90.9918 257.793 90.8205C258.414 90.6278 258.981 90.2745 259.495 89.7606C260.009 89.2467 260.427 88.5294 260.748 87.6087C261.069 86.6666 261.23 85.4569 261.23 83.9795ZM270.067 75.918V91.9767H272.797V82.2772C272.797 81.3994 272.893 80.6607 273.086 80.0611C273.3 79.4402 273.568 78.937 273.889 78.5516C274.21 78.1662 274.564 77.8879 274.949 77.7166C275.334 77.5453 275.709 77.4596 276.073 77.4596C276.565 77.4596 277.015 77.6202 277.422 77.9414C277.85 78.2626 278.161 78.5623 278.353 78.8407L279.445 76.8494C279.253 76.5925 279.017 76.3783 278.739 76.2071C278.482 76.0358 278.214 75.9073 277.936 75.8216C277.679 75.7146 277.433 75.6504 277.197 75.6289C276.983 75.5861 276.822 75.5647 276.715 75.5647C275.816 75.5647 275.067 75.8109 274.467 76.3034C273.868 76.7959 273.375 77.5239 272.99 78.4874H272.797V75.918H270.067Z" fill="black"/>
<path d="M30.6421 91.9767V69.4945H38.0291C39.8062 69.4945 41.4335 69.7836 42.9109 70.3617C44.3883 70.9184 45.6516 71.6999 46.7007 72.7063C47.7713 73.6912 48.5957 74.8688 49.1738 76.2392C49.7733 77.6095 50.0731 79.0869 50.0731 80.6714C50.0731 82.3201 49.7626 83.8403 49.1417 85.232C48.5421 86.6024 47.7071 87.7907 46.6365 88.7971C45.5873 89.8034 44.3562 90.5849 42.943 91.1416C41.5298 91.6983 40.0203 91.9767 38.4145 91.9767H30.6421ZM33.5647 90.5635H37.0977C38.8534 90.5635 40.3415 90.2745 41.562 89.6964C42.8038 89.0968 43.8209 88.326 44.6131 87.3839C45.4053 86.4418 45.9835 85.3926 46.3475 84.2364C46.7115 83.0588 46.8935 81.8918 46.8935 80.7356C46.8935 79.4509 46.6793 78.2197 46.2511 77.0421C45.8229 75.8431 45.1912 74.7939 44.3562 73.8946C43.5425 72.9739 42.5255 72.2459 41.305 71.7106C40.0846 71.1753 38.6821 70.9077 37.0977 70.9077H33.5647V90.5635ZM69.4607 84.6539V83.9795C69.4607 82.5449 69.2573 81.303 68.8504 80.2538C68.4436 79.2047 67.8869 78.3375 67.1803 77.6523C66.4952 76.9672 65.6922 76.4533 64.7715 76.1107C63.8508 75.7681 62.8766 75.5968 61.8489 75.5968C60.7569 75.5968 59.7505 75.7895 58.8298 76.1749C57.9091 76.5389 57.1062 77.0849 56.421 77.8129C55.7358 78.5195 55.2006 79.3867 54.8152 80.4144C54.4297 81.4208 54.237 82.5663 54.237 83.851C54.237 84.9216 54.3976 85.9707 54.7188 86.9985C55.0614 88.0048 55.5646 88.9148 56.2283 89.7285C56.9135 90.5207 57.7699 91.163 58.7977 91.6555C59.8469 92.1266 61.078 92.3621 62.4912 92.3621C63.8615 92.3621 65.1248 92.1266 66.2811 91.6555C67.4373 91.163 68.4436 90.4672 69.3001 89.5679L68.2723 88.5401C67.8227 88.9255 67.3945 89.2788 66.9876 89.6C66.6022 89.9212 66.2061 90.1888 65.7993 90.4029C65.3925 90.617 64.9642 90.7883 64.5146 90.9168C64.0864 91.0239 63.6046 91.0774 63.0693 91.0774C62.4698 91.0774 61.8274 90.9918 61.1423 90.8205C60.4785 90.6278 59.8576 90.2959 59.2795 89.8248C58.7014 89.3538 58.2196 88.7007 57.8342 87.8657C57.4488 87.0306 57.2561 85.96 57.2561 84.6539H69.4607ZM57.2561 83.3692C57.2561 82.5128 57.3417 81.6884 57.513 80.8962C57.7057 80.0825 57.9841 79.3653 58.3481 78.7443C58.7335 78.1234 59.2152 77.6309 59.7933 77.2669C60.3715 76.8815 61.0566 76.6888 61.8489 76.6888C63.3691 76.6888 64.5467 77.2883 65.3818 78.4874C66.2382 79.665 66.6665 81.2923 66.6665 83.3692H57.2561ZM85.4943 79.5794C85.4943 79.0013 85.3444 78.466 85.0446 77.9735C84.7449 77.481 84.3273 77.0635 83.792 76.7209C83.2782 76.3569 82.6679 76.0786 81.9614 75.8859C81.2762 75.6718 80.5375 75.5647 79.7453 75.5647C78.9959 75.5647 78.2893 75.6611 77.6255 75.8538C76.9832 76.0465 76.4158 76.3355 75.9233 76.7209C75.4522 77.1063 75.0775 77.5881 74.7992 78.1662C74.5208 78.7229 74.3817 79.376 74.3817 80.1254C74.3817 81.1531 74.6172 81.9668 75.0882 82.5663C75.5593 83.1658 76.1481 83.6476 76.8547 84.0116C77.5613 84.3756 78.3214 84.6753 79.135 84.9109C79.9701 85.125 80.7409 85.3712 81.4475 85.6496C82.1541 85.9065 82.7429 86.2384 83.2139 86.6452C83.685 87.052 83.9205 87.6087 83.9205 88.3153C83.9205 88.6151 83.867 88.9255 83.7599 89.2467C83.6743 89.5679 83.503 89.8676 83.2461 90.146C82.9891 90.4029 82.6358 90.6278 82.1862 90.8205C81.7365 90.9918 81.1691 91.0774 80.484 91.0774C79.6275 91.0774 78.8995 90.9489 78.3 90.692C77.7219 90.4136 77.2401 90.0925 76.8547 89.7285C76.4907 89.3431 76.2231 88.9577 76.0518 88.5722C75.9019 88.1868 75.8269 87.8657 75.8269 87.6087H73.7393C73.7393 88.2082 73.8785 88.7971 74.1568 89.3752C74.4352 89.9319 74.8527 90.4351 75.4094 90.8847C75.9875 91.3343 76.6834 91.6983 77.497 91.9767C78.3321 92.2336 79.2956 92.3621 80.3876 92.3621C82.3575 92.3621 83.8349 91.9339 84.8198 91.0774C85.8261 90.1995 86.3293 89.054 86.3293 87.6408C86.3293 86.6131 86.0831 85.7887 85.5906 85.1678C85.1196 84.5469 84.52 84.0544 83.792 83.6904C83.0641 83.305 82.2718 82.9945 81.4154 82.759C80.5803 82.5235 79.7988 82.2772 79.0708 82.0203C78.3428 81.7634 77.7326 81.4529 77.2401 81.0889C76.769 80.7249 76.5335 80.211 76.5335 79.5473C76.5335 79.2689 76.5871 78.9799 76.6941 78.6801C76.8012 78.3589 76.9832 78.0699 77.2401 77.8129C77.497 77.5346 77.8396 77.3097 78.2679 77.1385C78.6961 76.9458 79.2314 76.8494 79.8737 76.8494C80.5161 76.8494 81.0728 76.9458 81.5438 77.1385C82.0149 77.3097 82.411 77.5346 82.7322 77.8129C83.0533 78.0699 83.2889 78.3589 83.4388 78.6801C83.5886 79.0013 83.6636 79.301 83.6636 79.5794H85.4943ZM93.3138 75.918V91.9767H96.0438V75.918H93.3138ZM92.9284 70.8434C92.9284 71.3145 93.0997 71.7213 93.4423 72.0639C93.7849 72.4065 94.1917 72.5778 94.6628 72.5778C95.1338 72.5778 95.5407 72.4065 95.8832 72.0639C96.2258 71.7213 96.3971 71.3145 96.3971 70.8434C96.3971 70.3724 96.2258 69.9656 95.8832 69.623C95.5407 69.2804 95.1338 69.1091 94.6628 69.1091C94.1917 69.1091 93.7849 69.2804 93.4423 69.623C93.0997 69.9656 92.9284 70.3724 92.9284 70.8434ZM115.238 93.3256C115.238 94.3105 115.12 95.1456 114.884 95.8308C114.649 96.5159 114.317 97.0726 113.889 97.5009C113.482 97.9291 112.99 98.2396 112.411 98.4323C111.855 98.625 111.255 98.7213 110.613 98.7213C109.478 98.7213 108.557 98.4323 107.851 97.8542C107.166 97.2761 106.534 96.5052 105.956 95.5417L104.189 97.1476C104.339 97.3403 104.575 97.5865 104.896 97.8863C105.217 98.2075 105.624 98.5179 106.116 98.8177C106.609 99.1389 107.198 99.4065 107.883 99.6206C108.568 99.8561 109.35 99.9739 110.227 99.9739C111.855 99.9739 113.172 99.7384 114.178 99.2673C115.184 98.8177 115.966 98.2075 116.522 97.4366C117.079 96.6658 117.454 95.7772 117.647 94.7709C117.861 93.786 117.968 92.7582 117.968 91.6876V75.918H115.238V78.4232H115.109C114.852 77.5239 114.296 76.828 113.439 76.3355C112.604 75.8216 111.501 75.5647 110.131 75.5647C109.039 75.5647 108.043 75.7681 107.144 76.1749C106.245 76.5603 105.474 77.117 104.832 77.845C104.189 78.573 103.686 79.4509 103.322 80.4787C102.98 81.5064 102.808 82.6519 102.808 83.9152C102.808 85.1999 102.98 86.3668 103.322 87.416C103.686 88.4438 104.189 89.3324 104.832 90.0818C105.474 90.8098 106.234 91.3772 107.112 91.784C108.011 92.1694 109.007 92.3621 110.099 92.3621C111.298 92.3621 112.336 92.1266 113.214 91.6555C114.114 91.1845 114.745 90.4351 115.109 89.4073H115.238V93.3256ZM115.238 85.1357C115.238 86.035 115.109 86.8272 114.852 87.5124C114.617 88.1975 114.296 88.7757 113.889 89.2467C113.482 89.7178 113.011 90.0818 112.476 90.3387C111.94 90.5742 111.384 90.692 110.806 90.692C110.292 90.692 109.735 90.6063 109.135 90.4351C108.557 90.2423 108.011 89.8998 107.497 89.4073C107.005 88.9148 106.587 88.219 106.245 87.3197C105.924 86.4204 105.763 85.2642 105.763 83.851C105.763 82.3522 105.967 81.1638 106.373 80.286C106.78 79.3867 107.251 78.7015 107.786 78.2304C108.343 77.7594 108.9 77.4596 109.457 77.3312C110.035 77.1813 110.484 77.1063 110.806 77.1063C111.512 77.1063 112.144 77.2669 112.7 77.5881C113.257 77.8879 113.718 78.3054 114.082 78.8407C114.467 79.3546 114.756 79.9541 114.949 80.6392C115.141 81.3244 115.238 82.031 115.238 82.759V85.1357ZM138.123 91.9767V81.5707C138.123 81.1852 138.091 80.6607 138.027 79.9969C137.963 79.3117 137.749 78.648 137.385 78.0056C137.042 77.3419 136.485 76.7745 135.715 76.3034C134.944 75.8109 133.852 75.5647 132.439 75.5647C131.818 75.5433 131.122 75.6718 130.351 75.9501C129.58 76.2071 128.82 76.7102 128.071 77.4596L127.557 77.9735H127.428V75.918H124.698V91.9767H127.428V82.0524C127.428 81.2174 127.546 80.5001 127.782 79.9005C128.017 79.301 128.338 78.7979 128.745 78.391C129.152 77.9842 129.612 77.6845 130.126 77.4917C130.661 77.299 131.207 77.2027 131.764 77.2027C132.663 77.2027 133.359 77.3847 133.852 77.7487C134.344 78.0913 134.698 78.4981 134.912 78.9691C135.147 79.4402 135.286 79.9113 135.329 80.3823C135.372 80.8534 135.393 81.196 135.393 81.4101V91.9767H138.123ZM158.828 75.918V91.9767H161.558V75.918H158.828ZM158.443 70.8434C158.443 71.3145 158.614 71.7213 158.957 72.0639C159.299 72.4065 159.706 72.5778 160.177 72.5778C160.648 72.5778 161.055 72.4065 161.398 72.0639C161.74 71.7213 161.912 71.3145 161.912 70.8434C161.912 70.3724 161.74 69.9656 161.398 69.623C161.055 69.2804 160.648 69.1091 160.177 69.1091C159.706 69.1091 159.299 69.2804 158.957 69.623C158.614 69.9656 158.443 70.3724 158.443 70.8434ZM182.711 91.9767V81.5707C182.711 81.1852 182.679 80.6607 182.615 79.9969C182.551 79.3117 182.337 78.648 181.973 78.0056C181.63 77.3419 181.073 76.7745 180.303 76.3034C179.532 75.8109 178.44 75.5647 177.027 75.5647C176.406 75.5433 175.71 75.6718 174.939 75.9501C174.168 76.2071 173.408 76.7102 172.659 77.4596L172.145 77.9735H172.016V75.918H169.286V91.9767H172.016V82.0524C172.016 81.2174 172.134 80.5001 172.37 79.9005C172.605 79.301 172.926 78.7979 173.333 78.391C173.74 77.9842 174.2 77.6845 174.714 77.4917C175.249 77.299 175.795 77.2027 176.352 77.2027C177.251 77.2027 177.947 77.3847 178.44 77.7487C178.932 78.0913 179.285 78.4981 179.5 78.9691C179.735 79.4402 179.874 79.9113 179.917 80.3823C179.96 80.8534 179.981 81.196 179.981 81.4101V91.9767H182.711ZM187.948 77.2027V75.918H190.742V70.9719H193.472V75.918H197.359V77.2027H193.472V87.8657C193.472 88.1226 193.483 88.4224 193.505 88.7649C193.526 89.0861 193.59 89.3966 193.697 89.6964C193.804 89.9747 193.965 90.2102 194.179 90.4029C194.415 90.5956 194.736 90.692 195.142 90.692C195.656 90.692 196.085 90.4993 196.427 90.1139C196.77 89.7285 197.048 89.3109 197.262 88.8613L198.772 90.4029C197.723 91.4521 196.534 91.9767 195.207 91.9767C194.65 91.9767 194.104 91.8803 193.569 91.6876C193.033 91.4949 192.552 91.2059 192.123 90.8205C191.717 90.4136 191.385 89.8998 191.128 89.2788C190.871 88.6579 190.742 87.9299 190.742 87.0948V77.2027H187.948ZM217.464 84.6539V83.9795C217.464 82.5449 217.261 81.303 216.854 80.2538C216.447 79.2047 215.89 78.3375 215.184 77.6523C214.499 76.9672 213.696 76.4533 212.775 76.1107C211.854 75.7681 210.88 75.5968 209.852 75.5968C208.76 75.5968 207.754 75.7895 206.833 76.1749C205.913 76.5389 205.11 77.0849 204.424 77.8129C203.739 78.5195 203.204 79.3867 202.819 80.4144C202.433 81.4208 202.24 82.5663 202.24 83.851C202.24 84.9216 202.401 85.9707 202.722 86.9985C203.065 88.0048 203.568 88.9148 204.232 89.7285C204.917 90.5207 205.773 91.163 206.801 91.6555C207.85 92.1266 209.081 92.3621 210.495 92.3621C211.865 92.3621 213.128 92.1266 214.284 91.6555C215.441 91.163 216.447 90.4672 217.303 89.5679L216.276 88.5401C215.826 88.9255 215.398 89.2788 214.991 89.6C214.606 89.9212 214.21 90.1888 213.803 90.4029C213.396 90.617 212.968 90.7883 212.518 90.9168C212.09 91.0239 211.608 91.0774 211.073 91.0774C210.473 91.0774 209.831 90.9918 209.146 90.8205C208.482 90.6278 207.861 90.2959 207.283 89.8248C206.705 89.3538 206.223 88.7007 205.838 87.8657C205.452 87.0306 205.259 85.96 205.259 84.6539H217.464ZM205.259 83.3692C205.259 82.5128 205.345 81.6884 205.516 80.8962C205.709 80.0825 205.987 79.3653 206.351 78.7443C206.737 78.1234 207.219 77.6309 207.797 77.2669C208.375 76.8815 209.06 76.6888 209.852 76.6888C211.372 76.6888 212.55 77.2883 213.385 78.4874C214.242 79.665 214.67 81.2923 214.67 83.3692H205.259ZM223.252 75.918V91.9767H225.982V82.2772C225.982 81.3994 226.079 80.6607 226.271 80.0611C226.485 79.4402 226.753 78.937 227.074 78.5516C227.395 78.1662 227.749 77.8879 228.134 77.7166C228.519 77.5453 228.894 77.4596 229.258 77.4596C229.751 77.4596 230.2 77.6202 230.607 77.9414C231.035 78.2626 231.346 78.5623 231.539 78.8407L232.631 76.8494C232.438 76.5925 232.202 76.3783 231.924 76.2071C231.667 76.0358 231.399 75.9073 231.121 75.8216C230.864 75.7146 230.618 75.6504 230.382 75.6289C230.168 75.5861 230.008 75.5647 229.901 75.5647C229.001 75.5647 228.252 75.8109 227.652 76.3034C227.053 76.7959 226.56 77.5239 226.175 78.4874H225.982V75.918H223.252ZM238.149 75.918V91.9767H240.879V75.918H238.149ZM237.764 70.8434C237.764 71.3145 237.935 71.7213 238.278 72.0639C238.62 72.4065 239.027 72.5778 239.498 72.5778C239.969 72.5778 240.376 72.4065 240.719 72.0639C241.061 71.7213 241.233 71.3145 241.233 70.8434C241.233 70.3724 241.061 69.9656 240.719 69.623C240.376 69.2804 239.969 69.1091 239.498 69.1091C239.027 69.1091 238.62 69.2804 238.278 69.623C237.935 69.9656 237.764 70.3724 237.764 70.8434ZM264.281 83.9795C264.281 85.0929 264.088 86.1634 263.703 87.1912C263.317 88.1975 262.76 89.0861 262.032 89.8569C261.326 90.6278 260.459 91.238 259.431 91.6876C258.425 92.1373 257.29 92.3621 256.027 92.3621C254.742 92.3621 253.575 92.1373 252.526 91.6876C251.498 91.2166 250.62 90.5956 249.892 89.8248C249.186 89.054 248.629 88.1654 248.222 87.1591C247.837 86.1313 247.644 85.0714 247.644 83.9795C247.644 82.8661 247.837 81.8062 248.222 80.7998C248.629 79.7721 249.186 78.8728 249.892 78.102C250.62 77.3312 251.498 76.7209 252.526 76.2713C253.575 75.8002 254.742 75.5647 256.027 75.5647C257.29 75.5647 258.425 75.8002 259.431 76.2713C260.459 76.7209 261.326 77.3312 262.032 78.102C262.76 78.8728 263.317 79.7721 263.703 80.7998C264.088 81.8062 264.281 82.8661 264.281 83.9795ZM261.23 83.9795C261.23 82.4806 261.069 81.2709 260.748 80.3502C260.427 79.4081 260.009 78.6801 259.495 78.1662C258.981 77.6523 258.414 77.3097 257.793 77.1385C257.172 76.9458 256.573 76.8494 255.994 76.8494C255.416 76.8494 254.817 76.9458 254.196 77.1385C253.575 77.3097 252.997 77.6523 252.461 78.1662C251.948 78.6801 251.519 79.4081 251.177 80.3502C250.856 81.2709 250.695 82.4806 250.695 83.9795C250.695 85.4569 250.856 86.6666 251.177 87.6087C251.519 88.5294 251.948 89.2467 252.461 89.7606C252.997 90.2745 253.575 90.6278 254.196 90.8205C254.817 90.9918 255.416 91.0774 255.994 91.0774C256.573 91.0774 257.172 90.9918 257.793 90.8205C258.414 90.6278 258.981 90.2745 259.495 89.7606C260.009 89.2467 260.427 88.5294 260.748 87.6087C261.069 86.6666 261.23 85.4569 261.23 83.9795ZM270.067 75.918V91.9767H272.797V82.2772C272.797 81.3994 272.893 80.6607 273.086 80.0611C273.3 79.4402 273.568 78.937 273.889 78.5516C274.21 78.1662 274.564 77.8879 274.949 77.7166C275.334 77.5453 275.709 77.4596 276.073 77.4596C276.565 77.4596 277.015 77.6202 277.422 77.9414C277.85 78.2626 278.161 78.5623 278.353 78.8407L279.445 76.8494C279.253 76.5925 279.017 76.3783 278.739 76.2071C278.482 76.0358 278.214 75.9073 277.936 75.8216C277.679 75.7146 277.433 75.6504 277.197 75.6289C276.983 75.5861 276.822 75.5647 276.715 75.5647C275.816 75.5647 275.067 75.8109 274.467 76.3034C273.868 76.7959 273.375 77.5239 272.99 78.4874H272.797V75.918H270.067Z" fill="#592424" fill-opacity="0.2"/>
</svg>
