<svg width="304" height="137" viewBox="0 0 304 137" fill="none" xmlns="http://www.w3.org/2000/svg">
<path fill-rule="evenodd" clip-rule="evenodd" d="M0 122.591V136.237H80.1891L81.3106 103.899H79.4414L79.2545 106.329C78.756 112.062 77.323 115.987 74.9553 118.105C72.5876 120.224 68.4131 121.283 62.4316 121.283H3.5515L27.3684 99.2568H21.5511L0 122.591ZM50.2217 63.831H62.6742C66.2611 59.4964 69.0464 55.5935 71.03 52.1222C73.1484 48.5084 74.5815 45.2061 75.3291 42.2154C76.2014 39.1001 76.6376 35.9847 76.6376 32.8694C76.6376 26.2648 75.1422 20.5949 72.1515 15.8596C69.2854 11.1242 64.9862 7.44812 59.2539 4.83123C53.5217 2.21433 46.5433 0.905884 38.3188 0.905884C30.7173 0.905884 24.1751 1.9651 18.6921 4.08354C13.3337 6.20198 9.22143 9.1304 6.35531 12.8688C3.48919 16.4826 2.05613 20.5949 2.05613 25.2056C2.05613 28.5702 2.74151 31.1871 4.11226 33.0563C5.60763 34.9255 7.53914 36.2339 9.90681 36.9816C12.3991 37.7293 15.1406 38.1031 18.1313 38.1031C18.1313 29.6294 18.7544 22.8379 20.0005 17.7288C21.3713 12.495 23.4897 8.69425 26.3558 6.32659C29.3466 3.95892 33.2719 2.77509 38.1319 2.77509C42.7426 2.77509 46.481 3.83431 49.3471 5.95275C52.2132 7.94657 54.3317 11.2488 55.7024 15.8596C57.0732 20.4703 57.7586 26.514 57.7586 33.9909C57.7586 38.8508 57.3224 43.4616 56.4501 47.823C55.5778 52.0599 54.0201 56.4214 51.7771 60.9075C51.2984 61.865 50.7799 62.8395 50.2217 63.831Z" fill="black"/>
<path d="M30.6421 92.8826V70.4004H38.0291C39.8062 70.4004 41.4335 70.6895 42.9109 71.2676C44.3883 71.8243 45.6516 72.6058 46.7007 73.6121C47.7713 74.5971 48.5957 75.7747 49.1738 77.1451C49.7733 78.5154 50.0731 79.9928 50.0731 81.5773C50.0731 83.2259 49.7626 84.7462 49.1417 86.1379C48.5421 87.5083 47.7071 88.6966 46.6365 89.7029C45.5873 90.7093 44.3562 91.4908 42.943 92.0475C41.5298 92.6042 40.0203 92.8826 38.4145 92.8826H30.6421ZM33.5647 91.4694H37.0977C38.8534 91.4694 40.3415 91.1803 41.562 90.6022C42.8038 90.0027 43.8209 89.2319 44.6131 88.2898C45.4053 87.3477 45.9835 86.2985 46.3475 85.1423C46.7115 83.9646 46.8935 82.7977 46.8935 81.6415C46.8935 80.3568 46.6793 79.1256 46.2511 77.948C45.8229 76.7489 45.1912 75.6998 44.3562 74.8005C43.5425 73.8798 42.5255 73.1518 41.305 72.6165C40.0846 72.0812 38.6821 71.8136 37.0977 71.8136H33.5647V91.4694ZM70.103 85.5598V84.8853C70.103 83.4508 69.8996 82.2089 69.4928 81.1597C69.086 80.1106 68.5293 79.2434 67.8227 78.5582C67.1375 77.873 66.3346 77.3592 65.4139 77.0166C64.4932 76.674 63.519 76.5027 62.4912 76.5027C61.3992 76.5027 60.3929 76.6954 59.4722 77.0808C58.5515 77.4448 57.7485 77.9908 57.0634 78.7188C56.3782 79.4254 55.8429 80.2926 55.4575 81.3203C55.0721 82.3267 54.8794 83.4722 54.8794 84.7569C54.8794 85.8275 55.04 86.8766 55.3611 87.9044C55.7037 88.9107 56.2069 89.8207 56.8707 90.6344C57.5558 91.4266 58.4123 92.0689 59.4401 92.5614C60.4892 93.0324 61.7204 93.268 63.1336 93.268C64.5039 93.268 65.7672 93.0324 66.9234 92.5614C68.0796 92.0689 69.086 91.3731 69.9424 90.4738L68.9147 89.446C68.465 89.8314 68.0368 90.1847 67.63 90.5059C67.2446 90.8271 66.8485 91.0947 66.4416 91.3088C66.0348 91.5229 65.6066 91.6942 65.1569 91.8227C64.7287 91.9298 64.247 91.9833 63.7117 91.9833C63.1121 91.9833 62.4698 91.8976 61.7846 91.7263C61.1209 91.5336 60.4999 91.2018 59.9218 90.7307C59.3437 90.2596 58.8619 89.6066 58.4765 88.7715C58.0911 87.9365 57.8984 86.8659 57.8984 85.5598H70.103ZM57.8984 84.2751C57.8984 83.4186 57.9841 82.5943 58.1554 81.8021C58.3481 80.9884 58.6264 80.2711 58.9904 79.6502C59.3758 79.0293 59.8576 78.5368 60.4357 78.1728C61.0138 77.7874 61.699 77.5947 62.4912 77.5947C64.0114 77.5947 65.1891 78.1942 66.0241 79.3933C66.8806 80.5709 67.3088 82.1982 67.3088 84.2751H57.8984ZM86.779 80.4853C86.779 79.9071 86.6291 79.3719 86.3293 78.8794C86.0296 78.3869 85.612 77.9694 85.0767 77.6268C84.5629 77.2628 83.9526 76.9845 83.2461 76.7918C82.5609 76.5776 81.8222 76.4706 81.03 76.4706C80.2805 76.4706 79.574 76.5669 78.9102 76.7596C78.2679 76.9523 77.7005 77.2414 77.208 77.6268C76.7369 78.0122 76.3622 78.494 76.0839 79.0721C75.8055 79.6288 75.6664 80.2818 75.6664 81.0313C75.6664 82.059 75.9019 82.8727 76.3729 83.4722C76.844 84.0717 77.4328 84.5535 78.1394 84.9175C78.846 85.2815 79.6061 85.5812 80.4197 85.8167C81.2548 86.0309 82.0256 86.2771 82.7322 86.5554C83.4388 86.8124 84.0276 87.1443 84.4986 87.5511C84.9697 87.9579 85.2052 88.5146 85.2052 89.2212C85.2052 89.5209 85.1517 89.8314 85.0446 90.1526C84.959 90.4738 84.7877 90.7735 84.5307 91.0519C84.2738 91.3088 83.9205 91.5336 83.4709 91.7263C83.0212 91.8976 82.4538 91.9833 81.7687 91.9833C80.9122 91.9833 80.1842 91.8548 79.5847 91.5979C79.0066 91.3195 78.5248 90.9983 78.1394 90.6344C77.7754 90.2489 77.5077 89.8635 77.3365 89.4781C77.1866 89.0927 77.1116 88.7715 77.1116 88.5146H75.024C75.024 89.1141 75.1632 89.7029 75.4415 90.2811C75.7199 90.8378 76.1374 91.3409 76.6941 91.7906C77.2722 92.2402 77.9681 92.6042 78.7817 92.8826C79.6168 93.1395 80.5803 93.268 81.6723 93.268C83.6422 93.268 85.1196 92.8397 86.1045 91.9833C87.1108 91.1054 87.614 89.9599 87.614 88.5467C87.614 87.519 87.3678 86.6946 86.8753 86.0737C86.4043 85.4527 85.8047 84.9603 85.0767 84.5963C84.3487 84.2109 83.5565 83.9004 82.7001 83.6649C81.865 83.4294 81.0835 83.1831 80.3555 82.9262C79.6275 82.6692 79.0173 82.3588 78.5248 81.9948C78.0537 81.6308 77.8182 81.1169 77.8182 80.4531C77.8182 80.1748 77.8717 79.8857 77.9788 79.586C78.0859 79.2648 78.2679 78.9757 78.5248 78.7188C78.7817 78.4405 79.1243 78.2156 79.5526 78.0443C79.9808 77.8516 80.5161 77.7553 81.1584 77.7553C81.8008 77.7553 82.3575 77.8516 82.8285 78.0443C83.2996 78.2156 83.6957 78.4405 84.0169 78.7188C84.338 78.9757 84.5736 79.2648 84.7235 79.586C84.8733 79.9071 84.9483 80.2069 84.9483 80.4853H86.779ZM95.2409 76.8239V92.8826H97.9709V76.8239H95.2409ZM94.8555 71.7493C94.8555 72.2204 95.0268 72.6272 95.3694 72.9698C95.7119 73.3124 96.1188 73.4837 96.5898 73.4837C97.0609 73.4837 97.4677 73.3124 97.8103 72.9698C98.1529 72.6272 98.3242 72.2204 98.3242 71.7493C98.3242 71.2783 98.1529 70.8715 97.8103 70.5289C97.4677 70.1863 97.0609 70.015 96.5898 70.015C96.1188 70.015 95.7119 70.1863 95.3694 70.5289C95.0268 70.8715 94.8555 71.2783 94.8555 71.7493ZM117.807 94.2315C117.807 95.2164 117.689 96.0515 117.454 96.7367C117.218 97.4218 116.886 97.9785 116.458 98.4068C116.051 98.835 115.559 99.1455 114.981 99.3382C114.424 99.5309 113.825 99.6272 113.182 99.6272C112.047 99.6272 111.127 99.3382 110.42 98.76C109.735 98.1819 109.103 97.4111 108.525 96.4476L106.759 98.0535C106.909 98.2462 107.144 98.4924 107.465 98.7922C107.786 99.1133 108.193 99.4238 108.686 99.7236C109.178 100.045 109.767 100.312 110.452 100.527C111.137 100.762 111.919 100.88 112.797 100.88C114.424 100.88 115.741 100.644 116.747 100.173C117.754 99.7236 118.535 99.1133 119.092 98.3425C119.649 97.5717 120.023 96.6831 120.216 95.6768C120.43 94.6918 120.537 93.6641 120.537 92.5935V76.8239H117.807V79.329H117.679C117.422 78.4297 116.865 77.7339 116.009 77.2414C115.173 76.7275 114.071 76.4706 112.7 76.4706C111.608 76.4706 110.613 76.674 109.714 77.0808C108.814 77.4662 108.043 78.0229 107.401 78.7509C106.759 79.4789 106.256 80.3568 105.892 81.3845C105.549 82.4123 105.378 83.5578 105.378 84.8211C105.378 86.1058 105.549 87.2727 105.892 88.3219C106.256 89.3497 106.759 90.2382 107.401 90.9876C108.043 91.7156 108.804 92.283 109.681 92.6899C110.581 93.0753 111.576 93.268 112.668 93.268C113.867 93.268 114.906 93.0324 115.784 92.5614C116.683 92.0903 117.315 91.3409 117.679 90.3132H117.807V94.2315ZM117.807 86.0416C117.807 86.9409 117.679 87.7331 117.422 88.4183C117.186 89.1034 116.865 89.6815 116.458 90.1526C116.051 90.6236 115.58 90.9876 115.045 91.2446C114.51 91.4801 113.953 91.5979 113.375 91.5979C112.861 91.5979 112.304 91.5122 111.705 91.3409C111.127 91.1482 110.581 90.8056 110.067 90.3132C109.574 89.8207 109.157 89.1248 108.814 88.2255C108.493 87.3263 108.332 86.17 108.332 84.7569C108.332 83.2581 108.536 82.0697 108.943 81.1918C109.35 80.2926 109.821 79.6074 110.356 79.1363C110.913 78.6653 111.469 78.3655 112.026 78.237C112.604 78.0872 113.054 78.0122 113.375 78.0122C114.081 78.0122 114.713 78.1728 115.27 78.494C115.827 78.7937 116.287 79.2113 116.651 79.7466C117.036 80.2604 117.325 80.86 117.518 81.5451C117.711 82.2303 117.807 82.9369 117.807 83.6649V86.0416ZM141.335 92.8826V82.4765C141.335 82.0911 141.303 81.5665 141.239 80.9028C141.175 80.2176 140.96 79.5539 140.596 78.9115C140.254 78.2477 139.697 77.6803 138.926 77.2093C138.155 76.7168 137.063 76.4706 135.65 76.4706C135.029 76.4492 134.334 76.5776 133.563 76.856C132.792 77.1129 132.032 77.6161 131.282 78.3655L130.768 78.8794H130.64V76.8239H127.91V92.8826H130.64V82.9583C130.64 82.1232 130.758 81.406 130.993 80.8064C131.229 80.2069 131.55 79.7037 131.957 79.2969C132.364 78.8901 132.824 78.5903 133.338 78.3976C133.873 78.2049 134.419 78.1086 134.976 78.1086C135.875 78.1086 136.571 78.2906 137.063 78.6546C137.556 78.9972 137.909 79.404 138.123 79.875C138.359 80.3461 138.498 80.8171 138.541 81.2882C138.584 81.7592 138.605 82.1018 138.605 82.316V92.8826H141.335ZM163.325 76.8239V92.8826H166.055V76.8239H163.325ZM162.939 71.7493C162.939 72.2204 163.111 72.6272 163.453 72.9698C163.796 73.3124 164.203 73.4837 164.674 73.4837C165.145 73.4837 165.552 73.3124 165.894 72.9698C166.237 72.6272 166.408 72.2204 166.408 71.7493C166.408 71.2783 166.237 70.8715 165.894 70.5289C165.552 70.1863 165.145 70.015 164.674 70.015C164.203 70.015 163.796 70.1863 163.453 70.5289C163.111 70.8715 162.939 71.2783 162.939 71.7493ZM187.85 92.8826V82.4765C187.85 82.0911 187.818 81.5665 187.754 80.9028C187.69 80.2176 187.475 79.5539 187.111 78.9115C186.769 78.2477 186.212 77.6803 185.441 77.2093C184.67 76.7168 183.578 76.4706 182.165 76.4706C181.544 76.4492 180.849 76.5776 180.078 76.856C179.307 77.1129 178.547 77.6161 177.797 78.3655L177.283 78.8794H177.155V76.8239H174.425V92.8826H177.155V82.9583C177.155 82.1232 177.273 81.406 177.508 80.8064C177.744 80.2069 178.065 79.7037 178.472 79.2969C178.879 78.8901 179.339 78.5903 179.853 78.3976C180.388 78.2049 180.934 78.1086 181.491 78.1086C182.39 78.1086 183.086 78.2906 183.578 78.6546C184.071 78.9972 184.424 79.404 184.638 79.875C184.874 80.3461 185.013 80.8171 185.056 81.2882C185.099 81.7592 185.12 82.1018 185.12 82.316V92.8826H187.85ZM193.729 78.1086V76.8239H196.524V71.8778H199.254V76.8239H203.14V78.1086H199.254V88.7715C199.254 89.0285 199.264 89.3282 199.286 89.6708C199.307 89.992 199.371 90.3025 199.478 90.6022C199.585 90.8806 199.746 91.1161 199.96 91.3088C200.196 91.5015 200.517 91.5979 200.924 91.5979C201.438 91.5979 201.866 91.4052 202.208 91.0198C202.551 90.6344 202.829 90.2168 203.043 89.7672L204.553 91.3088C203.504 92.358 202.315 92.8826 200.988 92.8826C200.431 92.8826 199.885 92.7862 199.35 92.5935C198.815 92.4008 198.333 92.1118 197.905 91.7263C197.498 91.3195 197.166 90.8056 196.909 90.1847C196.652 89.5638 196.524 88.8358 196.524 88.0007V78.1086H193.729ZM223.888 85.5598V84.8853C223.888 83.4508 223.684 82.2089 223.277 81.1597C222.871 80.1106 222.314 79.2434 221.607 78.5582C220.922 77.873 220.119 77.3592 219.198 77.0166C218.278 76.674 217.303 76.5027 216.276 76.5027C215.184 76.5027 214.177 76.6954 213.257 77.0808C212.336 77.4448 211.533 77.9908 210.848 78.7188C210.163 79.4254 209.627 80.2926 209.242 81.3203C208.857 82.3267 208.664 83.4722 208.664 84.7569C208.664 85.8275 208.825 86.8766 209.146 87.9044C209.488 88.9107 209.991 89.8207 210.655 90.6344C211.34 91.4266 212.197 92.0689 213.225 92.5614C214.274 93.0324 215.505 93.268 216.918 93.268C218.288 93.268 219.552 93.0324 220.708 92.5614C221.864 92.0689 222.871 91.3731 223.727 90.4738L222.699 89.446C222.25 89.8314 221.821 90.1847 221.415 90.5059C221.029 90.8271 220.633 91.0947 220.226 91.3088C219.819 91.5229 219.391 91.6942 218.941 91.8227C218.513 91.9298 218.031 91.9833 217.496 91.9833C216.897 91.9833 216.254 91.8976 215.569 91.7263C214.905 91.5336 214.284 91.2018 213.706 90.7307C213.128 90.2596 212.646 89.6066 212.261 88.7715C211.876 87.9365 211.683 86.8659 211.683 85.5598H223.888ZM211.683 84.2751C211.683 83.4186 211.769 82.5943 211.94 81.8021C212.133 80.9884 212.411 80.2711 212.775 79.6502C213.16 79.0293 213.642 78.5368 214.22 78.1728C214.798 77.7874 215.484 77.5947 216.276 77.5947C217.796 77.5947 218.974 78.1942 219.809 79.3933C220.665 80.5709 221.093 82.1982 221.093 84.2751H211.683ZM230.318 76.8239V92.8826H233.048V83.1831C233.048 82.3052 233.144 81.5665 233.337 80.967C233.551 80.3461 233.819 79.8429 234.14 79.4575C234.461 79.0721 234.814 78.7937 235.2 78.6225C235.585 78.4512 235.96 78.3655 236.324 78.3655C236.816 78.3655 237.266 78.5261 237.673 78.8473C238.101 79.1684 238.412 79.4682 238.604 79.7466L239.696 77.7553C239.504 77.4983 239.268 77.2842 238.99 77.1129C238.733 76.9416 238.465 76.8132 238.187 76.7275C237.93 76.6205 237.684 76.5562 237.448 76.5348C237.234 76.492 237.073 76.4706 236.966 76.4706C236.067 76.4706 235.318 76.7168 234.718 77.2093C234.119 77.7018 233.626 78.4297 233.241 79.3933H233.048V76.8239H230.318ZM245.858 76.8239V92.8826H248.588V76.8239H245.858ZM245.472 71.7493C245.472 72.2204 245.643 72.6272 245.986 72.9698C246.329 73.3124 246.735 73.4837 247.207 73.4837C247.678 73.4837 248.084 73.3124 248.427 72.9698C248.77 72.6272 248.941 72.2204 248.941 71.7493C248.941 71.2783 248.77 70.8715 248.427 70.5289C248.084 70.1863 247.678 70.015 247.207 70.015C246.735 70.015 246.329 70.1863 245.986 70.5289C245.643 70.8715 245.472 71.2783 245.472 71.7493ZM272.631 84.8853C272.631 85.9987 272.438 87.0693 272.053 88.0971C271.668 89.1034 271.111 89.992 270.383 90.7628C269.676 91.5336 268.809 92.1439 267.781 92.5935C266.775 93.0432 265.64 93.268 264.377 93.268C263.092 93.268 261.925 93.0432 260.876 92.5935C259.848 92.1225 258.971 91.5015 258.243 90.7307C257.536 89.9599 256.979 89.0713 256.573 88.065C256.187 87.0372 255.994 85.9773 255.994 84.8853C255.994 83.7719 256.187 82.7121 256.573 81.7057C256.979 80.678 257.536 79.7787 258.243 79.0079C258.971 78.237 259.848 77.6268 260.876 77.1772C261.925 76.7061 263.092 76.4706 264.377 76.4706C265.64 76.4706 266.775 76.7061 267.781 77.1772C268.809 77.6268 269.676 78.237 270.383 79.0079C271.111 79.7787 271.668 80.678 272.053 81.7057C272.438 82.7121 272.631 83.7719 272.631 84.8853ZM269.58 84.8853C269.58 83.3865 269.419 82.1768 269.098 81.2561C268.777 80.314 268.36 79.586 267.846 79.0721C267.332 78.5582 266.764 78.2156 266.143 78.0443C265.523 77.8516 264.923 77.7553 264.345 77.7553C263.767 77.7553 263.167 77.8516 262.546 78.0443C261.925 78.2156 261.347 78.5582 260.812 79.0721C260.298 79.586 259.87 80.314 259.527 81.2561C259.206 82.1768 259.046 83.3865 259.046 84.8853C259.046 86.3627 259.206 87.5725 259.527 88.5146C259.87 89.4353 260.298 90.1526 260.812 90.6665C261.347 91.1803 261.925 91.5336 262.546 91.7263C263.167 91.8976 263.767 91.9833 264.345 91.9833C264.923 91.9833 265.523 91.8976 266.143 91.7263C266.764 91.5336 267.332 91.1803 267.846 90.6665C268.36 90.1526 268.777 89.4353 269.098 88.5146C269.419 87.5725 269.58 86.3627 269.58 84.8853ZM279.06 76.8239V92.8826H281.79V83.1831C281.79 82.3052 281.886 81.5665 282.079 80.967C282.293 80.3461 282.561 79.8429 282.882 79.4575C283.203 79.0721 283.556 78.7937 283.942 78.6225C284.327 78.4512 284.702 78.3655 285.066 78.3655C285.558 78.3655 286.008 78.5261 286.415 78.8473C286.843 79.1684 287.154 79.4682 287.346 79.7466L288.438 77.7553C288.246 77.4983 288.01 77.2842 287.732 77.1129C287.475 76.9416 287.207 76.8132 286.929 76.7275C286.672 76.6205 286.426 76.5562 286.19 76.5348C285.976 76.492 285.815 76.4706 285.708 76.4706C284.809 76.4706 284.06 76.7168 283.46 77.2093C282.86 77.7018 282.368 78.4297 281.983 79.3933H281.79V76.8239H279.06Z" fill="black"/>
<path d="M30.6421 92.8826V70.4004H38.0291C39.8062 70.4004 41.4335 70.6895 42.9109 71.2676C44.3883 71.8243 45.6516 72.6058 46.7007 73.6121C47.7713 74.5971 48.5957 75.7747 49.1738 77.1451C49.7733 78.5154 50.0731 79.9928 50.0731 81.5773C50.0731 83.2259 49.7626 84.7462 49.1417 86.1379C48.5421 87.5083 47.7071 88.6966 46.6365 89.7029C45.5873 90.7093 44.3562 91.4908 42.943 92.0475C41.5298 92.6042 40.0203 92.8826 38.4145 92.8826H30.6421ZM33.5647 91.4694H37.0977C38.8534 91.4694 40.3415 91.1803 41.562 90.6022C42.8038 90.0027 43.8209 89.2319 44.6131 88.2898C45.4053 87.3477 45.9835 86.2985 46.3475 85.1423C46.7115 83.9646 46.8935 82.7977 46.8935 81.6415C46.8935 80.3568 46.6793 79.1256 46.2511 77.948C45.8229 76.7489 45.1912 75.6998 44.3562 74.8005C43.5425 73.8798 42.5255 73.1518 41.305 72.6165C40.0846 72.0812 38.6821 71.8136 37.0977 71.8136H33.5647V91.4694ZM70.103 85.5598V84.8853C70.103 83.4508 69.8996 82.2089 69.4928 81.1597C69.086 80.1106 68.5293 79.2434 67.8227 78.5582C67.1375 77.873 66.3346 77.3592 65.4139 77.0166C64.4932 76.674 63.519 76.5027 62.4912 76.5027C61.3992 76.5027 60.3929 76.6954 59.4722 77.0808C58.5515 77.4448 57.7485 77.9908 57.0634 78.7188C56.3782 79.4254 55.8429 80.2926 55.4575 81.3203C55.0721 82.3267 54.8794 83.4722 54.8794 84.7569C54.8794 85.8275 55.04 86.8766 55.3611 87.9044C55.7037 88.9107 56.2069 89.8207 56.8707 90.6344C57.5558 91.4266 58.4123 92.0689 59.4401 92.5614C60.4892 93.0324 61.7204 93.268 63.1336 93.268C64.5039 93.268 65.7672 93.0324 66.9234 92.5614C68.0796 92.0689 69.086 91.3731 69.9424 90.4738L68.9147 89.446C68.465 89.8314 68.0368 90.1847 67.63 90.5059C67.2446 90.8271 66.8485 91.0947 66.4416 91.3088C66.0348 91.5229 65.6066 91.6942 65.1569 91.8227C64.7287 91.9298 64.247 91.9833 63.7117 91.9833C63.1121 91.9833 62.4698 91.8976 61.7846 91.7263C61.1209 91.5336 60.4999 91.2018 59.9218 90.7307C59.3437 90.2596 58.8619 89.6066 58.4765 88.7715C58.0911 87.9365 57.8984 86.8659 57.8984 85.5598H70.103ZM57.8984 84.2751C57.8984 83.4186 57.9841 82.5943 58.1554 81.8021C58.3481 80.9884 58.6264 80.2711 58.9904 79.6502C59.3758 79.0293 59.8576 78.5368 60.4357 78.1728C61.0138 77.7874 61.699 77.5947 62.4912 77.5947C64.0114 77.5947 65.1891 78.1942 66.0241 79.3933C66.8806 80.5709 67.3088 82.1982 67.3088 84.2751H57.8984ZM86.779 80.4853C86.779 79.9071 86.6291 79.3719 86.3293 78.8794C86.0296 78.3869 85.612 77.9694 85.0767 77.6268C84.5629 77.2628 83.9526 76.9845 83.2461 76.7918C82.5609 76.5776 81.8222 76.4706 81.03 76.4706C80.2805 76.4706 79.574 76.5669 78.9102 76.7596C78.2679 76.9523 77.7005 77.2414 77.208 77.6268C76.7369 78.0122 76.3622 78.494 76.0839 79.0721C75.8055 79.6288 75.6664 80.2818 75.6664 81.0313C75.6664 82.059 75.9019 82.8727 76.3729 83.4722C76.844 84.0717 77.4328 84.5535 78.1394 84.9175C78.846 85.2815 79.6061 85.5812 80.4197 85.8167C81.2548 86.0309 82.0256 86.2771 82.7322 86.5554C83.4388 86.8124 84.0276 87.1443 84.4986 87.5511C84.9697 87.9579 85.2052 88.5146 85.2052 89.2212C85.2052 89.5209 85.1517 89.8314 85.0446 90.1526C84.959 90.4738 84.7877 90.7735 84.5307 91.0519C84.2738 91.3088 83.9205 91.5336 83.4709 91.7263C83.0212 91.8976 82.4538 91.9833 81.7687 91.9833C80.9122 91.9833 80.1842 91.8548 79.5847 91.5979C79.0066 91.3195 78.5248 90.9983 78.1394 90.6344C77.7754 90.2489 77.5077 89.8635 77.3365 89.4781C77.1866 89.0927 77.1116 88.7715 77.1116 88.5146H75.024C75.024 89.1141 75.1632 89.7029 75.4415 90.2811C75.7199 90.8378 76.1374 91.3409 76.6941 91.7906C77.2722 92.2402 77.9681 92.6042 78.7817 92.8826C79.6168 93.1395 80.5803 93.268 81.6723 93.268C83.6422 93.268 85.1196 92.8397 86.1045 91.9833C87.1108 91.1054 87.614 89.9599 87.614 88.5467C87.614 87.519 87.3678 86.6946 86.8753 86.0737C86.4043 85.4527 85.8047 84.9603 85.0767 84.5963C84.3487 84.2109 83.5565 83.9004 82.7001 83.6649C81.865 83.4294 81.0835 83.1831 80.3555 82.9262C79.6275 82.6692 79.0173 82.3588 78.5248 81.9948C78.0537 81.6308 77.8182 81.1169 77.8182 80.4531C77.8182 80.1748 77.8717 79.8857 77.9788 79.586C78.0859 79.2648 78.2679 78.9757 78.5248 78.7188C78.7817 78.4405 79.1243 78.2156 79.5526 78.0443C79.9808 77.8516 80.5161 77.7553 81.1584 77.7553C81.8008 77.7553 82.3575 77.8516 82.8285 78.0443C83.2996 78.2156 83.6957 78.4405 84.0169 78.7188C84.338 78.9757 84.5736 79.2648 84.7235 79.586C84.8733 79.9071 84.9483 80.2069 84.9483 80.4853H86.779ZM95.2409 76.8239V92.8826H97.9709V76.8239H95.2409ZM94.8555 71.7493C94.8555 72.2204 95.0268 72.6272 95.3694 72.9698C95.7119 73.3124 96.1188 73.4837 96.5898 73.4837C97.0609 73.4837 97.4677 73.3124 97.8103 72.9698C98.1529 72.6272 98.3242 72.2204 98.3242 71.7493C98.3242 71.2783 98.1529 70.8715 97.8103 70.5289C97.4677 70.1863 97.0609 70.015 96.5898 70.015C96.1188 70.015 95.7119 70.1863 95.3694 70.5289C95.0268 70.8715 94.8555 71.2783 94.8555 71.7493ZM117.807 94.2315C117.807 95.2164 117.689 96.0515 117.454 96.7367C117.218 97.4218 116.886 97.9785 116.458 98.4068C116.051 98.835 115.559 99.1455 114.981 99.3382C114.424 99.5309 113.825 99.6272 113.182 99.6272C112.047 99.6272 111.127 99.3382 110.42 98.76C109.735 98.1819 109.103 97.4111 108.525 96.4476L106.759 98.0535C106.909 98.2462 107.144 98.4924 107.465 98.7922C107.786 99.1133 108.193 99.4238 108.686 99.7236C109.178 100.045 109.767 100.312 110.452 100.527C111.137 100.762 111.919 100.88 112.797 100.88C114.424 100.88 115.741 100.644 116.747 100.173C117.754 99.7236 118.535 99.1133 119.092 98.3425C119.649 97.5717 120.023 96.6831 120.216 95.6768C120.43 94.6918 120.537 93.6641 120.537 92.5935V76.8239H117.807V79.329H117.679C117.422 78.4297 116.865 77.7339 116.009 77.2414C115.173 76.7275 114.071 76.4706 112.7 76.4706C111.608 76.4706 110.613 76.674 109.714 77.0808C108.814 77.4662 108.043 78.0229 107.401 78.7509C106.759 79.4789 106.256 80.3568 105.892 81.3845C105.549 82.4123 105.378 83.5578 105.378 84.8211C105.378 86.1058 105.549 87.2727 105.892 88.3219C106.256 89.3497 106.759 90.2382 107.401 90.9876C108.043 91.7156 108.804 92.283 109.681 92.6899C110.581 93.0753 111.576 93.268 112.668 93.268C113.867 93.268 114.906 93.0324 115.784 92.5614C116.683 92.0903 117.315 91.3409 117.679 90.3132H117.807V94.2315ZM117.807 86.0416C117.807 86.9409 117.679 87.7331 117.422 88.4183C117.186 89.1034 116.865 89.6815 116.458 90.1526C116.051 90.6236 115.58 90.9876 115.045 91.2446C114.51 91.4801 113.953 91.5979 113.375 91.5979C112.861 91.5979 112.304 91.5122 111.705 91.3409C111.127 91.1482 110.581 90.8056 110.067 90.3132C109.574 89.8207 109.157 89.1248 108.814 88.2255C108.493 87.3263 108.332 86.17 108.332 84.7569C108.332 83.2581 108.536 82.0697 108.943 81.1918C109.35 80.2926 109.821 79.6074 110.356 79.1363C110.913 78.6653 111.469 78.3655 112.026 78.237C112.604 78.0872 113.054 78.0122 113.375 78.0122C114.081 78.0122 114.713 78.1728 115.27 78.494C115.827 78.7937 116.287 79.2113 116.651 79.7466C117.036 80.2604 117.325 80.86 117.518 81.5451C117.711 82.2303 117.807 82.9369 117.807 83.6649V86.0416ZM141.335 92.8826V82.4765C141.335 82.0911 141.303 81.5665 141.239 80.9028C141.175 80.2176 140.96 79.5539 140.596 78.9115C140.254 78.2477 139.697 77.6803 138.926 77.2093C138.155 76.7168 137.063 76.4706 135.65 76.4706C135.029 76.4492 134.334 76.5776 133.563 76.856C132.792 77.1129 132.032 77.6161 131.282 78.3655L130.768 78.8794H130.64V76.8239H127.91V92.8826H130.64V82.9583C130.64 82.1232 130.758 81.406 130.993 80.8064C131.229 80.2069 131.55 79.7037 131.957 79.2969C132.364 78.8901 132.824 78.5903 133.338 78.3976C133.873 78.2049 134.419 78.1086 134.976 78.1086C135.875 78.1086 136.571 78.2906 137.063 78.6546C137.556 78.9972 137.909 79.404 138.123 79.875C138.359 80.3461 138.498 80.8171 138.541 81.2882C138.584 81.7592 138.605 82.1018 138.605 82.316V92.8826H141.335ZM163.325 76.8239V92.8826H166.055V76.8239H163.325ZM162.939 71.7493C162.939 72.2204 163.111 72.6272 163.453 72.9698C163.796 73.3124 164.203 73.4837 164.674 73.4837C165.145 73.4837 165.552 73.3124 165.894 72.9698C166.237 72.6272 166.408 72.2204 166.408 71.7493C166.408 71.2783 166.237 70.8715 165.894 70.5289C165.552 70.1863 165.145 70.015 164.674 70.015C164.203 70.015 163.796 70.1863 163.453 70.5289C163.111 70.8715 162.939 71.2783 162.939 71.7493ZM187.85 92.8826V82.4765C187.85 82.0911 187.818 81.5665 187.754 80.9028C187.69 80.2176 187.475 79.5539 187.111 78.9115C186.769 78.2477 186.212 77.6803 185.441 77.2093C184.67 76.7168 183.578 76.4706 182.165 76.4706C181.544 76.4492 180.849 76.5776 180.078 76.856C179.307 77.1129 178.547 77.6161 177.797 78.3655L177.283 78.8794H177.155V76.8239H174.425V92.8826H177.155V82.9583C177.155 82.1232 177.273 81.406 177.508 80.8064C177.744 80.2069 178.065 79.7037 178.472 79.2969C178.879 78.8901 179.339 78.5903 179.853 78.3976C180.388 78.2049 180.934 78.1086 181.491 78.1086C182.39 78.1086 183.086 78.2906 183.578 78.6546C184.071 78.9972 184.424 79.404 184.638 79.875C184.874 80.3461 185.013 80.8171 185.056 81.2882C185.099 81.7592 185.12 82.1018 185.12 82.316V92.8826H187.85ZM193.729 78.1086V76.8239H196.524V71.8778H199.254V76.8239H203.14V78.1086H199.254V88.7715C199.254 89.0285 199.264 89.3282 199.286 89.6708C199.307 89.992 199.371 90.3025 199.478 90.6022C199.585 90.8806 199.746 91.1161 199.96 91.3088C200.196 91.5015 200.517 91.5979 200.924 91.5979C201.438 91.5979 201.866 91.4052 202.208 91.0198C202.551 90.6344 202.829 90.2168 203.043 89.7672L204.553 91.3088C203.504 92.358 202.315 92.8826 200.988 92.8826C200.431 92.8826 199.885 92.7862 199.35 92.5935C198.815 92.4008 198.333 92.1118 197.905 91.7263C197.498 91.3195 197.166 90.8056 196.909 90.1847C196.652 89.5638 196.524 88.8358 196.524 88.0007V78.1086H193.729ZM223.888 85.5598V84.8853C223.888 83.4508 223.684 82.2089 223.277 81.1597C222.871 80.1106 222.314 79.2434 221.607 78.5582C220.922 77.873 220.119 77.3592 219.198 77.0166C218.278 76.674 217.303 76.5027 216.276 76.5027C215.184 76.5027 214.177 76.6954 213.257 77.0808C212.336 77.4448 211.533 77.9908 210.848 78.7188C210.163 79.4254 209.627 80.2926 209.242 81.3203C208.857 82.3267 208.664 83.4722 208.664 84.7569C208.664 85.8275 208.825 86.8766 209.146 87.9044C209.488 88.9107 209.991 89.8207 210.655 90.6344C211.34 91.4266 212.197 92.0689 213.225 92.5614C214.274 93.0324 215.505 93.268 216.918 93.268C218.288 93.268 219.552 93.0324 220.708 92.5614C221.864 92.0689 222.871 91.3731 223.727 90.4738L222.699 89.446C222.25 89.8314 221.821 90.1847 221.415 90.5059C221.029 90.8271 220.633 91.0947 220.226 91.3088C219.819 91.5229 219.391 91.6942 218.941 91.8227C218.513 91.9298 218.031 91.9833 217.496 91.9833C216.897 91.9833 216.254 91.8976 215.569 91.7263C214.905 91.5336 214.284 91.2018 213.706 90.7307C213.128 90.2596 212.646 89.6066 212.261 88.7715C211.876 87.9365 211.683 86.8659 211.683 85.5598H223.888ZM211.683 84.2751C211.683 83.4186 211.769 82.5943 211.94 81.8021C212.133 80.9884 212.411 80.2711 212.775 79.6502C213.16 79.0293 213.642 78.5368 214.22 78.1728C214.798 77.7874 215.484 77.5947 216.276 77.5947C217.796 77.5947 218.974 78.1942 219.809 79.3933C220.665 80.5709 221.093 82.1982 221.093 84.2751H211.683ZM230.318 76.8239V92.8826H233.048V83.1831C233.048 82.3052 233.144 81.5665 233.337 80.967C233.551 80.3461 233.819 79.8429 234.14 79.4575C234.461 79.0721 234.814 78.7937 235.2 78.6225C235.585 78.4512 235.96 78.3655 236.324 78.3655C236.816 78.3655 237.266 78.5261 237.673 78.8473C238.101 79.1684 238.412 79.4682 238.604 79.7466L239.696 77.7553C239.504 77.4983 239.268 77.2842 238.99 77.1129C238.733 76.9416 238.465 76.8132 238.187 76.7275C237.93 76.6205 237.684 76.5562 237.448 76.5348C237.234 76.492 237.073 76.4706 236.966 76.4706C236.067 76.4706 235.318 76.7168 234.718 77.2093C234.119 77.7018 233.626 78.4297 233.241 79.3933H233.048V76.8239H230.318ZM245.858 76.8239V92.8826H248.588V76.8239H245.858ZM245.472 71.7493C245.472 72.2204 245.643 72.6272 245.986 72.9698C246.329 73.3124 246.735 73.4837 247.207 73.4837C247.678 73.4837 248.084 73.3124 248.427 72.9698C248.77 72.6272 248.941 72.2204 248.941 71.7493C248.941 71.2783 248.77 70.8715 248.427 70.5289C248.084 70.1863 247.678 70.015 247.207 70.015C246.735 70.015 246.329 70.1863 245.986 70.5289C245.643 70.8715 245.472 71.2783 245.472 71.7493ZM272.631 84.8853C272.631 85.9987 272.438 87.0693 272.053 88.0971C271.668 89.1034 271.111 89.992 270.383 90.7628C269.676 91.5336 268.809 92.1439 267.781 92.5935C266.775 93.0432 265.64 93.268 264.377 93.268C263.092 93.268 261.925 93.0432 260.876 92.5935C259.848 92.1225 258.971 91.5015 258.243 90.7307C257.536 89.9599 256.979 89.0713 256.573 88.065C256.187 87.0372 255.994 85.9773 255.994 84.8853C255.994 83.7719 256.187 82.7121 256.573 81.7057C256.979 80.678 257.536 79.7787 258.243 79.0079C258.971 78.237 259.848 77.6268 260.876 77.1772C261.925 76.7061 263.092 76.4706 264.377 76.4706C265.64 76.4706 266.775 76.7061 267.781 77.1772C268.809 77.6268 269.676 78.237 270.383 79.0079C271.111 79.7787 271.668 80.678 272.053 81.7057C272.438 82.7121 272.631 83.7719 272.631 84.8853ZM269.58 84.8853C269.58 83.3865 269.419 82.1768 269.098 81.2561C268.777 80.314 268.36 79.586 267.846 79.0721C267.332 78.5582 266.764 78.2156 266.143 78.0443C265.523 77.8516 264.923 77.7553 264.345 77.7553C263.767 77.7553 263.167 77.8516 262.546 78.0443C261.925 78.2156 261.347 78.5582 260.812 79.0721C260.298 79.586 259.87 80.314 259.527 81.2561C259.206 82.1768 259.046 83.3865 259.046 84.8853C259.046 86.3627 259.206 87.5725 259.527 88.5146C259.87 89.4353 260.298 90.1526 260.812 90.6665C261.347 91.1803 261.925 91.5336 262.546 91.7263C263.167 91.8976 263.767 91.9833 264.345 91.9833C264.923 91.9833 265.523 91.8976 266.143 91.7263C266.764 91.5336 267.332 91.1803 267.846 90.6665C268.36 90.1526 268.777 89.4353 269.098 88.5146C269.419 87.5725 269.58 86.3627 269.58 84.8853ZM279.06 76.8239V92.8826H281.79V83.1831C281.79 82.3052 281.886 81.5665 282.079 80.967C282.293 80.3461 282.561 79.8429 282.882 79.4575C283.203 79.0721 283.556 78.7937 283.942 78.6225C284.327 78.4512 284.702 78.3655 285.066 78.3655C285.558 78.3655 286.008 78.5261 286.415 78.8473C286.843 79.1684 287.154 79.4682 287.346 79.7466L288.438 77.7553C288.246 77.4983 288.01 77.2842 287.732 77.1129C287.475 76.9416 287.207 76.8132 286.929 76.7275C286.672 76.6205 286.426 76.5562 286.19 76.5348C285.976 76.492 285.815 76.4706 285.708 76.4706C284.809 76.4706 284.06 76.7168 283.46 77.2093C282.86 77.7018 282.368 78.4297 281.983 79.3933H281.79V76.8239H279.06Z" fill="#592424" fill-opacity="0.2"/>
</svg>
