<svg width="208" height="46" viewBox="0 0 208 46" fill="none" xmlns="http://www.w3.org/2000/svg">
<g clip-path="url(#clip0_2057_1421)">
<path fill-rule="evenodd" clip-rule="evenodd" d="M202.872 40.1291C198.094 34.8283 194.133 30.4395 182.298 17.3321L175.89 10.2351L175.829 27.3446L175.768 44.454H175.177H174.586V23.4811C174.586 11.9461 174.67 2.5083 174.771 2.5083C174.873 2.5083 182.098 10.4234 190.827 20.0974L206.697 37.6865L206.758 20.4529L206.819 3.21925H207.41H208.001V24.3106C208.001 35.9108 207.916 45.4019 207.813 45.4019C207.71 45.4019 205.487 43.0291 202.872 40.1291Z" fill="black"/>
<path fill-rule="evenodd" clip-rule="evenodd" d="M9.00358 24.6058C4.15324 13.2995 0.116089 3.86229 0.0321905 3.63419C-0.107229 3.25529 0.102201 3.21948 2.45704 3.21948H5.03448L12.3764 20.3987C16.4144 29.8473 19.7716 37.5767 19.8367 37.5751C19.9019 37.5735 23.3678 29.8829 27.5386 20.4849C31.7095 11.0869 35.2463 3.34955 35.3982 3.29086C35.5502 3.23215 35.9396 3.21874 36.2636 3.26105C36.8369 3.33591 36.6048 3.89471 27.5745 24.1772C22.4715 35.6389 18.1897 45.0494 18.0594 45.0896C17.929 45.1297 13.8539 35.912 9.00358 24.6058Z" fill="black"/>
<path fill-rule="evenodd" clip-rule="evenodd" d="M125.412 44.7728C123.331 44.4405 120.671 43.6004 118.776 42.6773C116.456 41.5468 113.372 39.3208 113.249 38.6883C113.134 38.0936 113.761 38.2123 114.41 38.9082C114.726 39.2468 115.297 39.7475 115.679 40.0208C116.06 40.2942 115.572 39.7239 114.593 38.7535C111.206 35.397 109.029 31.3201 107.956 26.325C107.467 24.0528 107.596 18.8839 108.198 16.6088C110.248 8.86113 116.693 3.04656 125.17 1.29704C127.58 0.799601 131.74 0.70567 133.959 1.09862C140.792 2.30895 145.983 6.37916 149.098 12.9708C151.574 18.2092 152.159 24.094 150.73 29.4058C149.796 32.8755 147.652 36.5358 145.168 38.8986C143.255 40.7193 141.867 41.6637 139.435 42.8004C136.222 44.302 134.258 44.716 129.915 44.8069C127.829 44.8506 125.803 44.8352 125.412 44.7728ZM136.568 43.1848C138.483 42.5331 140.382 41.6042 141.882 40.5848C143.178 39.7043 145.778 37.2531 146.45 36.2782C146.72 35.8872 146.256 36.2699 145.419 37.1287C142.746 39.8699 139.562 41.9026 135.958 43.1673C135.11 43.4646 134.532 43.7158 134.672 43.7255C134.812 43.7352 135.665 43.4919 136.568 43.1848ZM133.592 42.3096C140.698 40.3628 146.365 34.8402 148.322 27.9547C149.081 25.2863 149.086 20.9222 148.334 18.3129C147.746 16.2742 146.945 14.5511 146.162 13.6443C145.685 13.0908 145.689 13.1279 146.228 14.239C146.545 14.8907 147.103 16.3303 147.469 17.4382C148.07 19.2597 148.135 19.7816 148.148 22.8888C148.16 25.7969 148.078 26.6139 147.618 28.2047C146.732 31.2655 145.161 34.023 143.009 36.2965C139.511 39.9916 136.001 41.7721 130.507 42.6374C130.138 42.6955 130.274 42.7429 130.867 42.7629C131.391 42.7807 132.618 42.5767 133.592 42.3096ZM133.349 43.237C135.797 42.6772 139.723 40.8409 141.862 39.2555C147.858 34.8105 150.963 28.0581 150.192 21.1417C149.946 18.9371 149.224 16.4442 148.317 14.666C147.184 12.445 144.21 9.49489 141.808 8.20962L140.816 7.67843L141.882 8.56796C144.67 10.8935 146.497 13.0339 147.634 15.3088C149.186 18.4114 149.559 20.0132 149.541 23.4813C149.523 26.8418 148.864 29.4535 147.301 32.3591C144.631 37.3241 139.641 41.3068 134.417 42.6428C127.382 44.442 121.653 43.059 115.434 38.0606L113.563 36.5565L114.866 37.9194C119.714 42.9885 126.234 44.8641 133.349 43.237ZM109.537 17.0828C110.677 13.7199 113.195 10.0887 115.738 8.14088C119.796 5.03183 123.203 3.69044 127.492 3.51295C130.832 3.37476 132.16 3.60144 136.278 5.01239C142.694 7.2103 145.516 9.32941 148.926 14.509C149.166 14.8736 149.174 14.8278 148.971 14.2441C148.14 11.8572 146.105 8.87506 143.899 6.81217C136.203 -0.387343 122.749 0.0415251 114.354 7.75397C111.135 10.7107 108.881 15.375 108.586 19.6895L108.472 21.3484L108.804 19.808C108.986 18.9608 109.316 17.7345 109.537 17.0828ZM134.039 41.282C143.741 37.8746 149.148 28.5543 147.121 18.7327C146.599 16.2024 145.636 14.1664 143.847 11.81C142.289 9.75708 141.232 8.8804 139.231 7.98165C136.925 6.9456 134.904 6.49905 131.929 6.36777C127.582 6.17599 123.995 7.02988 119.536 9.31795C118.39 9.90611 117.389 10.3234 117.311 10.2453C117.028 9.96283 117.775 9.39857 119.679 8.45618C125.56 5.5458 131.384 4.86439 137.001 6.42962C138.17 6.75547 136.718 6.03932 135.317 5.59932C131.463 4.38866 126.086 4.48431 121.856 5.83876C119.357 6.63889 117.931 7.48936 115.987 9.33934C111.454 13.6527 109.028 20.1941 109.881 25.803C110.938 32.7507 115.401 38.4386 121.651 40.8046C124.447 41.8629 125.857 42.0837 129.204 41.9871C131.764 41.9133 132.581 41.7941 134.039 41.282Z" fill="black"/>
<path fill-rule="evenodd" clip-rule="evenodd" d="M58.2285 23.8369V3.2195H60.5983H62.9681V12.6987V22.178H72.4447H81.9212L81.9832 12.758L82.0451 3.33798L84.4755 3.27043L86.9059 3.20288L86.8453 23.7693L86.7848 44.3357H84.4149H82.0451L81.9834 33.9678L81.9217 23.5999H72.4449H62.9681V34.027V44.4542H60.5983H58.2285V23.8369Z" fill="black"/>
</g>
<defs>
<clipPath id="clip0_2057_1421">
<rect width="208" height="44.5448" fill="white" transform="translate(0 0.857422)"/>
</clipPath>
</defs>
</svg>
