<svg width="102" height="102" viewBox="0 0 102 102" fill="none" xmlns="http://www.w3.org/2000/svg">
<g filter="url(#filter0_d_1453_512)">
<circle cx="51" cy="46" r="38" fill="white"/>
<path d="M51.1444 27.4419C47.8957 27.4453 44.7038 28.2793 41.8826 29.8617C39.0614 31.4442 36.708 33.7207 35.0537 36.4674C33.3995 39.2141 32.5013 42.3365 32.4477 45.5275C32.394 48.7185 33.1866 51.8683 34.7475 54.6672L32.4424 64.1866L42.1327 61.9221C44.632 63.269 47.4117 64.0368 50.2593 64.1668C53.1069 64.2968 55.9471 63.7856 58.5628 62.6723C61.1786 61.5589 63.5006 59.8729 65.3515 57.743C67.2024 55.6131 68.5331 53.0957 69.242 50.3832C69.951 47.6708 70.0193 44.835 69.4419 42.0926C68.8644 39.3502 67.6564 36.7738 65.9102 34.5602C64.164 32.3467 61.9258 30.5546 59.3667 29.3208C56.8075 28.0871 53.9951 27.4444 51.1444 27.4419ZM41.7934 35.7906H46.8908C47.1215 35.7906 47.3428 35.8807 47.5059 36.0409C47.669 36.2012 47.7607 36.4185 47.7607 36.6452C47.7321 37.7848 47.9271 38.9191 48.3348 39.9864C48.5104 40.3436 48.549 40.7511 48.4435 41.1341C48.3381 41.517 48.0956 41.8498 47.7607 42.0714L45.9775 43.7805C46.7681 45.2973 47.802 46.6794 49.0394 47.8737C50.2453 49.1091 51.6464 50.145 53.1886 50.9414L54.9283 49.1897C55.7982 48.3351 56.1984 48.3351 57.0508 48.6257C58.1372 49.0262 59.2919 49.2177 60.452 49.1897C60.6793 49.2001 60.8944 49.2934 61.0553 49.4515C61.2162 49.6095 61.3113 49.8209 61.3218 50.0442V55.0517C61.3113 55.275 61.2162 55.4864 61.0553 55.6444C60.8944 55.8025 60.6793 55.8959 60.452 55.9063C55.3351 55.6873 50.4848 53.6034 46.8473 50.0613C43.236 46.4917 41.1137 41.7246 40.8975 36.6964C40.8995 36.4612 40.9938 36.2359 41.1607 36.0672C41.3275 35.8985 41.5541 35.7994 41.7934 35.7906Z" fill="white" fill-opacity="0.12" stroke="black" stroke-width="0.869893" stroke-linecap="round" stroke-linejoin="round"/>
</g>
<defs>
<filter id="filter0_d_1453_512" x="0.627908" y="0.930233" width="100.744" height="100.744" filterUnits="userSpaceOnUse" color-interpolation-filters="sRGB">
<feFlood flood-opacity="0" result="BackgroundImageFix"/>
<feColorMatrix in="SourceAlpha" type="matrix" values="0 0 0 0 0 0 0 0 0 0 0 0 0 0 0 0 0 0 127 0" result="hardAlpha"/>
<feOffset dy="5.30233"/>
<feGaussianBlur stdDeviation="6.18605"/>
<feComposite in2="hardAlpha" operator="out"/>
<feColorMatrix type="matrix" values="0 0 0 0 0 0 0 0 0 0 0 0 0 0 0 0 0 0 0.11 0"/>
<feBlend mode="normal" in2="BackgroundImageFix" result="effect1_dropShadow_1453_512"/>
<feBlend mode="normal" in="SourceGraphic" in2="effect1_dropShadow_1453_512" result="shape"/>
</filter>
</defs>
</svg>
